<?xml version="1.0" encoding="utf-8"?>
<!-- Generator: Adobe Illustrator 22.0.1, SVG Export Plug-In . SVG Version: 6.00 Build 0)  -->
<svg version="1.1" id="Layer_1" xmlns="http://www.w3.org/2000/svg" xmlns:xlink="http://www.w3.org/1999/xlink" x="0px" y="0px"
	 viewBox="0 0 153.6 1113.4" style="enable-background:new 0 0 153.6 1113.4;" xml:space="preserve">
<style type="text/css">
	.st0{fill:none;stroke:#000000;stroke-width:4;}
	.st1{fill:none;stroke:#7F651B;stroke-width:3;}
</style>
<path class="st0" d="M91.5,34.2h19.1v29.8h9.6v37.4H82v9.7H33.6v19.9h28.9v18.7H14.3v38.2h19.1v-18.9h29.1v28.7H42.8v29.2h48.4V245
	h19.5v38.2h19.1v38.2h-48v59.9h48v75.1H80.6v57.9h20.1v48.4h-39v28.7H42.8v38.8h9.4v38.2H72v9.4h28.5v19.5h9.9v28.7h9.7v35.5h-19.3
	v32H44.7v29.2H23.9v46.4h37.6v56.9h30v68v67.8H72v18.9"/>
<path class="st1" d="M91.5,34.2h19.1v29.8h9.6v37.4H82v9.7H33.6v19.9h28.9v18.7H14.3v38.2h19.1v-18.9h29.1v28.7H42.8v29.2h48.4V245
	h19.5v38.2h19.1v38.2h-48v59.9h48v75.1H80.6v57.9h20.1v48.4h-39v28.7H42.8v38.8h9.4v38.2H72v9.4h28.5v19.5h9.9v28.7h9.7v35.5h-19.3
	v32H44.7v29.2H23.9v46.4h37.6v56.9h30v68v67.8H72v18.9"/>
</svg>
