<svg id="Layer_1" data-name="Layer 1" xmlns="http://www.w3.org/2000/svg" viewBox="0 0 60.6 537.5"><defs><style>.cls-1,.cls-2{fill:none;}.cls-1{stroke:#000;stroke-width:1.5px;}.cls-2{stroke:#7f651b;}</style></defs><title>path_4x</title><polyline class="cls-1" points="40.3 0.8 50.1 0.8 50.1 16.1 55 16.1 55 35.3 35.4 35.3 35.4 40.3 10.6 40.3 10.6 50.5 25.4 50.5 25.4 60.1 0.8 60.1 0.8 79.6 10.5 79.6 10.5 70 25.4 70 25.4 84.6 15.3 84.6 15.3 99.6 40.1 99.6 40.1 108.9 50.1 108.9 50.1 128.5 59.9 128.5 59.9 148.1 35.3 148.1 35.3 178.8 59.9 178.8 59.9 217.3 34.8 217.3 34.8 247 45 247 45 271.8 25 271.8 25 286.5 15.3 286.5 15.3 306.4 20.1 306.4 20.1 326 30.3 326 30.3 330.8 44.9 330.8 44.9 340.8 50 340.8 50 355.5 55 355.5 55 384.9 45.1 384.9 45.1 390.1 16.3 390.1 16.3 405.1 5.6 405.1 5.6 428.9 30.3 428.9 30.3 448.8 40.3 448.8 40.3 493 40.3 527.8 30.3 527.8 30.3 537.5"/><polyline class="cls-2" points="40.3 0.8 50.1 0.8 50.1 16.1 55 16.1 55 35.3 35.4 35.3 35.4 40.3 10.6 40.3 10.6 50.5 25.4 50.5 25.4 60.1 0.8 60.1 0.8 79.6 10.5 79.6 10.5 70 25.4 70 25.4 84.6 15.3 84.6 15.3 99.6 40.1 99.6 40.1 108.9 50.1 108.9 50.1 128.5 59.9 128.5 59.9 148.1 35.3 148.1 35.3 178.8 59.9 178.8 59.9 217.3 34.8 217.3 34.8 247 45 247 45 271.8 25 271.8 25 286.5 15.3 286.5 15.3 306.4 20.1 306.4 20.1 326 30.3 326 30.3 330.8 44.9 330.8 44.9 340.8 50 340.8 50 355.5 55 355.5 55 384.9 45.1 384.9 45.1 390.1 16.3 390.1 16.3 405.1 5.6 405.1 5.6 428.9 30.3 428.9 30.3 448.8 40.3 448.8 40.3 493 40.3 527.8 30.3 527.8 30.3 537.5"/></svg>