<?xml version="1.0" encoding="utf-8"?>
<!-- Generator: Adobe Illustrator 22.0.1, SVG Export Plug-In . SVG Version: 6.00 Build 0)  -->
<svg version="1.1" id="Layer_1" xmlns="http://www.w3.org/2000/svg" xmlns:xlink="http://www.w3.org/1999/xlink" x="0px" y="0px"
	 viewBox="0 0 383.9 422.5" style="enable-background:new 0 0 383.9 422.5;" xml:space="preserve">
<style type="text/css">
	.st0{fill:none;stroke:#000000;stroke-width:4;stroke-miterlimit:10;}
	.st1{fill:none;stroke:#7F651B;stroke-width:3;stroke-miterlimit:10;}
</style>
<polyline class="st0" points="100.7,24.3 100.7,43.3 91,43.3 91,91.3 52.3,91.3 52.3,80.7 33.3,80.7 33.3,110.7 91,110.7 91,150 
	111,150 111,91 196.7,91 196.7,139.3 217.3,139.3 217.3,100.3 292.3,100.3 292.3,169 283,169 283,205.7 311,205.7 311,178 360,178 
	360,274 350,274 350,351 321.3,351 321.3,360 282.3,360 282.3,340.3 244,340.3 244,284 206.7,284 206.7,207 101.7,207 101.7,245.3 
	91,245.3 91,351.7 "/>
<polyline class="st1" points="100.7,24.3 100.7,43.3 91,43.3 91,91.3 52.3,91.3 52.3,80.7 33.3,80.7 33.3,110.7 91,110.7 91,150 
	111,150 111,91 196.7,91 196.7,139.3 217.3,139.3 217.3,100.3 292.3,100.3 292.3,169 283,169 283,205.7 311,205.7 311,178 360,178 
	360,274 350,274 350,351 321.3,351 321.3,360 282.3,360 282.3,340.3 244,340.3 244,284 206.7,284 206.7,207 101.7,207 101.7,245.3 
	91,245.3 91,351.7 "/>
</svg>
