<svg xmlns="http://www.w3.org/2000/svg" viewBox="0 0 146.376 141.045"><defs><style>.cls-1{fill:#f4e0c3;}.cls-2{fill:#dbc4a5;}.cls-3{fill:#c6d8db;}.cls-4{fill:#e4f4f8;}.cls-5{fill:#cccccb;}.cls-6{fill:#b0b0b0;}</style></defs><title>Asset 5</title><g id="Layer_2" data-name="Layer 2"><g id="Layer_1-2" data-name="Layer 1"><rect class="cls-1" x="73.188" y="88.533" width="19.021" height="45.512"/><rect class="cls-2" x="54.309" y="88.533" width="18.879" height="45.512"/><path class="cls-1" d="M68.176.045H78.2a28.8,28.8,0,0,1,28.8,28.8V61.233A33.812,33.812,0,0,1,73.188,95.045h0A33.812,33.812,0,0,1,39.376,61.233V28.845a28.8,28.8,0,0,1,28.8-28.8Z"/><path class="cls-2" d="M73.293,92.878a20.964,20.964,0,0,1,.188-4.342c.208-.73,1.492-1.741,1.587-2.5.081-.657-1.386-2.461-.794-2.5,1.437-.094,5.126.087,7.284,0,.682-.028,2.212-1.767,1.531-1.706-1.735.156-6.964.527-8.833-.169-.587-.219-.483-3.684-.775-4.875-.913-3.717,2.439-12.691,0-15.417-.628-.7-2.789.512-3.549,0a5.951,5.951,0,0,1-1.578-3.333c-.114-1.438,1.254-4.1,1.578-5.5.5-2.159,1.152-6.566,1.555-8.75.481-2.608,1.743-7.769,1.994-10.417.249-2.631-.065-7.938,0-10.583.03-1.252.213-3.749.244-5,.029-1.187-.314-3.616,0-4.75a17.564,17.564,0,0,1,2.909-4.75c1.168-1.4,3.77-4.071,5.371-4.75,1.774-.753,7.577-1.154,7.577-1.154S85.077.834,83.521.54a56.559,56.559,0,0,0-6.215-.5C74.619-.064,69.231.031,66.554.278A49.44,49.44,0,0,0,59.122,1.5a34.353,34.353,0,0,0-5.73,2.626A36.417,36.417,0,0,0,48.153,8.15a45.7,45.7,0,0,0-5.195,6.778,33.018,33.018,0,0,0-2.072,4.689c-.46,1.358-1.35,5.573-1.35,5.573l-1.505,7.23-1.61-.792-2.69-.384-1.379.384-2.635,2.746-1.054,2.495v7.5l.606,4.536.817,3.438.864,2.662,1.688,2.425,2.52,2.3L38.031,60.9l.526,1.293,1.117,5.129s1.164,3.4,1.57,4.523,1.143,3.362,1.655,4.427a40.6,40.6,0,0,0,2.616,4.391,46,46,0,0,0,3.537,4.246,45.2,45.2,0,0,0,4.157,3.6c1.116.818,3.479,3.275,4.714,3.9a44.785,44.785,0,0,0,5.4,2.172,45.424,45.424,0,0,0,5,1.031,30.21,30.21,0,0,0,4.836-.251Z"/><path class="cls-1" d="M103.663,36.182c0-2.066,3.425-3.755,5.087-4.546.913-.434,3.127-.619,3.956,0,1.167.872,3.1,2.982,3.391,4.546.44,2.382,0,7.306,0,9.741a38.236,38.236,0,0,1-2.028,9.091,14.592,14.592,0,0,1-4.754,5.2c-1.313.862-5.652,1.169-5.652,1.169"/><path class="cls-2" d="M78.293,61.378c.208-.434,1.183-.846,1.5-1.208a7.556,7.556,0,0,0,1.125-2.625,21.614,21.614,0,0,0,0-3.375,27.5,27.5,0,0,1,1.375,3.6,5.286,5.286,0,0,1,0,2.271,5.479,5.479,0,0,1-2,1.875,9.407,9.407,0,0,1-2,.375A2.77,2.77,0,0,1,78.293,61.378Z"/><path class="cls-3" d="M43.2,33.378H66.659a2.16,2.16,0,0,1,2.16,2.16v3.57a7.2,7.2,0,0,1-7.2,7.2H48.243a7.2,7.2,0,0,1-7.2-7.2v-3.57A2.16,2.16,0,0,1,43.2,33.378Z"/><path class="cls-4" d="M78.337,33.378h23.3a2.16,2.16,0,0,1,2.16,2.16v3.57a7.2,7.2,0,0,1-7.2,7.2H83.377a7.2,7.2,0,0,1-7.2-7.2v-3.57A2.16,2.16,0,0,1,78.337,33.378Z"/><path class="cls-5" d="M73.188,127.124,92.21,101.3s16.509,1.981,19.3,2.226a74.488,74.488,0,0,1,18.488,4.894c2.456,1.147,6.633,5.064,8.622,7.07,2.067,2.084,6.485,9.575,7.491,12.508.452,1.317.2,13.052.2,13.052H73.188Z"/><path class="cls-6" d="M73.188,127.076,54.309,101.645s-16.652,1.5-19.438,1.746A74.265,74.265,0,0,0,16.383,108.3c-2.455,1.151-6.633,5.081-8.622,7.095C5.7,117.488,1.276,125,.27,127.948c-.451,1.321-.2,13.1-.2,13.1H73.188Z"/></g></g></svg>