<svg xmlns="http://www.w3.org/2000/svg" viewBox="0 0 118.604 108.193"><defs><style>.cls-1{fill:#e5d58f;}.cls-2{fill:#f4e499;}.cls-3{fill:#fff0b3;}.cls-4{fill:#e8d9b1;}.cls-5{fill:#8e8e8e;}.cls-6{fill:#bababa;}.cls-7{fill:#a09f9f;}.cls-8{fill:#c9c9c9;}.cls-9{fill:#f8b3bc;}</style></defs><title>Asset 4</title><g id="Layer_2" data-name="Layer 2"><g id="Layer_1-2" data-name="Layer 1"><rect class="cls-1" x="45.893" y="3.146" width="7.694" height="89.333" transform="translate(52.182 -21.137) rotate(48.161)"/><rect class="cls-2" x="49.656" y="11.942" width="15.918" height="89.333" transform="translate(61.358 -24.076) rotate(48.161)"/><rect class="cls-3" x="61.643" y="20.738" width="7.694" height="89.333" transform="translate(70.533 -27.014) rotate(48.161)"/><polyline class="cls-4" points="0 108.193 13.896 74.741 29.334 71.246 24.16 86.206 39.952 83.105 34.779 98.065"/><polygon class="cls-5" points="0 108.193 5.213 95.587 12.455 96.936 12.96 104.406 0 108.193"/><rect class="cls-6" x="86.6" y="18.609" width="15.918" height="9.844" transform="translate(49.015 -62.614) rotate(48.161)"/><rect class="cls-7" x="82.837" y="9.813" width="7.694" height="9.844" transform="translate(39.84 -59.675) rotate(48.161)"/><rect class="cls-8" x="98.587" y="27.405" width="7.694" height="9.844" transform="translate(58.19 -65.552) rotate(48.161)"/><path class="cls-9" d="M96.224,5.812h16.906a7.2,7.2,0,0,1,7.2,7.2V23.131a0,0,0,0,1,0,0H89.024a0,0,0,0,1,0,0V13.012A7.2,7.2,0,0,1,96.224,5.812Z" transform="translate(45.634 -73.168) rotate(48.161)"/></g></g></svg>