<?xml version="1.0" encoding="UTF-8"?>
<svg width="400px" height="1000px" viewBox="0 0 400 1000" version="1.1" xmlns="http://www.w3.org/2000/svg" xmlns:xlink="http://www.w3.org/1999/xlink">
    <!-- Generator: Sketch 49.2 (51160) - http://www.bohemiancoding.com/sketch -->
    <title>mdpi/corn_tools_narrow</title>
    <desc>Created with Sketch.</desc>
    <defs></defs>
    <g id="Page-1" stroke="none" stroke-width="1" fill="none" fill-rule="evenodd">
        <g id="Artboard-12" transform="translate(-420.000000, 0.000000)">
            <g id="corn_tools_narrow" transform="translate(420.000000, 0.000000)">
                <rect id="Rectangle-8" fill="#D6E6F4" x="0" y="150" width="400" height="850"></rect>
                <rect id="Rectangle-8" fill="#D6E6F4" x="0" y="0" width="400" height="50"></rect>
                <g id="Group-3" transform="translate(0.000000, 100.000000)">
                    <rect id="Rectangle-8" fill="#C7DAED" x="225" y="50" width="50" height="50"></rect>
                    <rect id="Rectangle-8" fill="#C7DAED" x="375" y="50" width="25" height="25"></rect>
                    <rect id="Rectangle-8" fill="#C7DAED" x="125" y="75" width="25" height="25"></rect>
                    <rect id="Rectangle-8" fill="#C7DAED" x="25" y="50" width="25" height="25"></rect>
                    <rect id="Rectangle-8" fill="#B6CCE4" x="300" y="25" width="25" height="25"></rect>
                    <rect id="Rectangle-8" fill="#B6CCE4" x="125" y="0" width="25" height="25"></rect>
                    <rect id="Rectangle-8" fill="#D6E6F4" x="375" y="25" width="25" height="25"></rect>
                    <rect id="Rectangle-8" fill="#B6CCE4" x="0" y="0" width="50" height="50"></rect>
                    <rect id="Rectangle-8" fill="#B6CCE4" x="175" y="0" width="50" height="50"></rect>
                    <rect id="Rectangle-8" fill="#D6E6F4" x="50" y="25" width="25" height="25"></rect>
                </g>
                <rect id="Rectangle-8" fill="#C7DAED" x="0" y="25" width="25" height="25"></rect>
                <rect id="Rectangle-8" fill="#C7DAED" x="175" y="25" width="25" height="25"></rect>
                <rect id="Rectangle-8" fill="#B6CCE4" x="350" y="50" width="50" height="50"></rect>
                <rect id="Rectangle-8" fill="#C7DAED" x="300" y="0" width="50" height="50"></rect>
                <rect id="Rectangle-8" fill="#B6CCE4" x="51" y="50" width="25" height="25"></rect>
                <rect id="Rectangle-8" fill="#B6CCE4" x="250" y="75" width="25" height="25"></rect>
            </g>
        </g>
    </g>
</svg>