<?xml version="1.0" encoding="UTF-8"?>
<svg width="700px" height="2830px" viewBox="0 0 700 2830" version="1.1" xmlns="http://www.w3.org/2000/svg" xmlns:xlink="http://www.w3.org/1999/xlink">
    <!-- Generator: Sketch 49.2 (51160) - http://www.bohemiancoding.com/sketch -->
    <title>mdpi/corn_deliverable_wide</title>
    <desc>Created with Sketch.</desc>
    <defs></defs>
    <g id="Page-1" stroke="none" stroke-width="1" fill="none" fill-rule="evenodd">
        <g id="Artboard-13" transform="translate(-5273.000000, 0.000000)">
            <g id="corn_deliverable_wide" transform="translate(5273.000000, 0.000000)">
                <rect id="Rectangle-8" fill="#D6E6F4" x="50" y="0" width="600" height="100"></rect>
                <rect id="Rectangle-8" fill="#C7DAED" x="400" y="50" width="50" height="50"></rect>
                <rect id="Rectangle-8" fill="#C7DAED" x="200" y="50" width="50" height="50"></rect>
                <rect id="Rectangle-8" fill="#C7DAED" x="500" y="75" width="25" height="25"></rect>
                <rect id="Rectangle-8" fill="#C7DAED" x="125" y="50" width="25" height="25"></rect>
                <rect id="Rectangle-8" fill="#C7DAED" x="550" y="50" width="25" height="25"></rect>
                <rect id="Rectangle-8" fill="#D6E6F4" transform="translate(687.500000, 137.500000) scale(1, -1) translate(-687.500000, -137.500000) " x="675" y="125" width="25" height="25"></rect>
                <rect id="Rectangle-8" fill="#D6E6F4" transform="translate(125.000000, 125.000000) scale(1, -1) translate(-125.000000, -125.000000) " x="100" y="100" width="50" height="50"></rect>
                <rect id="Rectangle-8" fill="#D6E6F4" transform="translate(37.500000, 137.500000) scale(1, -1) translate(-37.500000, -137.500000) " x="25" y="125" width="25" height="25"></rect>
                <rect id="Rectangle-8" fill="#D6E6F4" transform="translate(512.500000, 112.500000) scale(1, -1) translate(-512.500000, -112.500000) " x="500" y="100" width="25" height="25"></rect>
                <rect id="Rectangle-8" fill="#B6CCE4" transform="translate(187.500000, 112.500000) scale(1, -1) translate(-187.500000, -112.500000) " x="175" y="100" width="25" height="25"></rect>
                <rect id="Rectangle-8" fill="#B6CCE4" transform="translate(37.500000, 62.500000) scale(1, -1) translate(-37.500000, -62.500000) " x="25" y="50" width="25" height="25"></rect>
                <rect id="Rectangle-8" fill="#B6CCE4" transform="translate(462.500000, 137.500000) scale(1, -1) translate(-462.500000, -137.500000) " x="450" y="125" width="25" height="25"></rect>
                <rect id="Rectangle-8" fill="#B6CCE4" transform="translate(375.000000, 125.000000) scale(1, -1) translate(-375.000000, -125.000000) " x="350" y="100" width="50" height="50"></rect>
                <rect id="Rectangle-8" fill="#B6CCE4" transform="translate(625.000000, 125.000000) scale(1, -1) translate(-625.000000, -125.000000) " x="600" y="100" width="50" height="50"></rect>
                <rect id="Rectangle-8" fill="#D6E6F4" transform="translate(262.500000, 112.500000) scale(1, -1) translate(-262.500000, -112.500000) " x="250" y="100" width="25" height="25"></rect>
                <rect id="Rectangle-8" fill="#B6CCE4" transform="translate(37.500000, 636.500000) scale(1, -1) translate(-37.500000, -636.500000) " x="25" y="624" width="25" height="25"></rect>
                <rect id="Rectangle-8" fill="#B6CCE4" transform="translate(37.500000, 511.500000) scale(1, -1) translate(-37.500000, -511.500000) " x="25" y="499" width="25" height="25"></rect>
                <rect id="Rectangle-8" fill="#D6E6F4" transform="translate(12.500000, 562.500000) scale(1, -1) translate(-12.500000, -562.500000) " x="0" y="550" width="25" height="25"></rect>
                <rect id="Rectangle-8" fill="#D6E6F4" transform="translate(12.500000, 311.500000) scale(1, -1) translate(-12.500000, -311.500000) " x="0" y="299" width="25" height="25"></rect>
                <rect id="Rectangle-8" fill="#D6E6F4" transform="translate(687.500000, 412.500000) scale(1, -1) translate(-687.500000, -412.500000) " x="675" y="400" width="25" height="25"></rect>
                <rect id="Rectangle-8" fill="#B6CCE4" transform="translate(675.000000, 1855.000000) scale(1, -1) translate(-675.000000, -1855.000000) " x="650" y="1830" width="50" height="50"></rect>
                <rect id="Rectangle-8" fill="#D6E6F4" transform="translate(675.000000, 1955.000000) scale(1, -1) translate(-675.000000, -1955.000000) " x="650" y="1930" width="50" height="50"></rect>
                <rect id="Rectangle-8" fill="#D6E6F4" transform="translate(687.500000, 2042.500000) scale(1, -1) translate(-687.500000, -2042.500000) " x="675" y="2030" width="25" height="25"></rect>
                <rect id="Rectangle-8" fill="#D6E6F4" transform="translate(675.000000, 2155.000000) scale(1, -1) translate(-675.000000, -2155.000000) " x="650" y="2130" width="50" height="50"></rect>
                <rect id="Rectangle-8" fill="#D6E6F4" transform="translate(687.500000, 2342.500000) scale(1, -1) translate(-687.500000, -2342.500000) " x="675" y="2330" width="25" height="25"></rect>
                <rect id="Rectangle-8" fill="#B6CCE4" transform="translate(675.000000, 2255.000000) scale(1, -1) translate(-675.000000, -2255.000000) " x="650" y="2230" width="50" height="50"></rect>
                <rect id="Rectangle-8" fill="#B6CCE4" transform="translate(662.500000, 2092.500000) scale(1, -1) translate(-662.500000, -2092.500000) " x="650" y="2080" width="25" height="25"></rect>
                <rect id="Rectangle-8" fill="#D6E6F4" transform="translate(350.000000, 1540.000000) scale(1, -1) translate(-350.000000, -1540.000000) " x="50" y="250" width="600" height="2580"></rect>
                <rect id="Rectangle-8" fill="#B6CCE4" transform="translate(25.000000, 425.000000) scale(1, -1) translate(-25.000000, -425.000000) " x="0" y="400" width="50" height="50"></rect>
                <rect id="Rectangle-8" fill="#D6E6F4" transform="translate(662.500000, 337.500000) scale(1, -1) translate(-662.500000, -337.500000) " x="650" y="325" width="25" height="25"></rect>
                <rect id="Rectangle-8" fill="#D6E6F4" transform="translate(25.000000, 2155.000000) scale(1, -1) translate(-25.000000, -2155.000000) " x="0" y="2130" width="50" height="50"></rect>
                <rect id="Rectangle-8" fill="#D6E6F4" transform="translate(25.000000, 1955.000000) scale(1, -1) translate(-25.000000, -1955.000000) " x="0" y="1930" width="50" height="50"></rect>
                <rect id="Rectangle-8" fill="#D6E6F4" transform="translate(675.000000, 475.000000) scale(1, -1) translate(-675.000000, -475.000000) " x="650" y="450" width="50" height="50"></rect>
                <rect id="Rectangle-8" fill="#D6E6F4" transform="translate(37.500000, 2342.500000) scale(1, -1) translate(-37.500000, -2342.500000) " x="25" y="2330" width="25" height="25"></rect>
                <rect id="Rectangle-8" fill="#D6E6F4" transform="translate(37.500000, 2042.500000) scale(1, -1) translate(-37.500000, -2042.500000) " x="25" y="2030" width="25" height="25"></rect>
                <rect id="Rectangle-8" fill="#B6CCE4" transform="translate(25.000000, 2255.000000) scale(1, -1) translate(-25.000000, -2255.000000) " x="0" y="2230" width="50" height="50"></rect>
                <rect id="Rectangle-8" fill="#B6CCE4" transform="translate(662.500000, 2417.500000) scale(1, -1) translate(-662.500000, -2417.500000) " x="650" y="2405" width="25" height="25"></rect>
                <rect id="Rectangle-8" fill="#B6CCE4" transform="translate(675.000000, 550.000000) scale(1, -1) translate(-675.000000, -550.000000) " x="650" y="525" width="50" height="50"></rect>
                <rect id="Rectangle-8" fill="#D6E6F4" transform="translate(675.000000, 650.000000) scale(1, -1) translate(-675.000000, -650.000000) " x="650" y="625" width="50" height="50"></rect>
                <rect id="Rectangle-8" fill="#D6E6F4" transform="translate(687.500000, 812.500000) scale(1, -1) translate(-687.500000, -812.500000) " x="675" y="800" width="25" height="25"></rect>
                <rect id="Rectangle-8" fill="#B6CCE4" transform="translate(675.000000, 750.000000) scale(1, -1) translate(-675.000000, -750.000000) " x="650" y="725" width="50" height="50"></rect>
                <rect id="Rectangle-8" fill="#D6E6F4" transform="translate(687.500000, 912.500000) scale(1, -1) translate(-687.500000, -912.500000) " x="675" y="900" width="25" height="25"></rect>
                <rect id="Rectangle-8" fill="#D6E6F4" transform="translate(662.500000, 1142.500000) scale(-1, -1) translate(-662.500000, -1142.500000) " x="650" y="1130" width="25" height="25"></rect>
                <rect id="Rectangle-8" fill="#B6CCE4" transform="translate(675.000000, 1205.000000) scale(-1, -1) translate(-675.000000, -1205.000000) " x="650" y="1180" width="50" height="50"></rect>
                <rect id="Rectangle-8" fill="#D6E6F4" transform="translate(675.000000, 1305.000000) scale(-1, -1) translate(-675.000000, -1305.000000) " x="650" y="1280" width="50" height="50"></rect>
                <rect id="Rectangle-8" fill="#D6E6F4" transform="translate(662.500000, 1392.500000) scale(-1, -1) translate(-662.500000, -1392.500000) " x="650" y="1380" width="25" height="25"></rect>
                <rect id="Rectangle-8" fill="#D6E6F4" transform="translate(675.000000, 1505.000000) scale(-1, -1) translate(-675.000000, -1505.000000) " x="650" y="1480" width="50" height="50"></rect>
                <rect id="Rectangle-8" fill="#D6E6F4" transform="translate(662.500000, 1692.500000) scale(-1, -1) translate(-662.500000, -1692.500000) " x="650" y="1680" width="25" height="25"></rect>
                <rect id="Rectangle-8" fill="#B6CCE4" transform="translate(675.000000, 1605.000000) scale(-1, -1) translate(-675.000000, -1605.000000) " x="650" y="1580" width="50" height="50"></rect>
                <rect id="Rectangle-8" fill="#B6CCE4" transform="translate(687.500000, 1442.500000) scale(-1, -1) translate(-687.500000, -1442.500000) " x="675" y="1430" width="25" height="25"></rect>
                <rect id="Rectangle-8" fill="#B6CCE4" transform="translate(662.500000, 992.500000) scale(-1, -1) translate(-662.500000, -992.500000) " x="650" y="980" width="25" height="25"></rect>
                <rect id="Rectangle-8" fill="#D6E6F4" transform="translate(687.500000, 1067.500000) scale(-1, -1) translate(-687.500000, -1067.500000) " x="675" y="1055" width="25" height="25"></rect>
                <rect id="Rectangle-8" fill="#D6E6F4" transform="translate(687.500000, 967.500000) scale(-1, -1) translate(-687.500000, -967.500000) " x="675" y="955" width="25" height="25"></rect>
                <rect id="Rectangle-8" fill="#B6CCE4" transform="translate(687.500000, 1767.500000) scale(-1, -1) translate(-687.500000, -1767.500000) " x="675" y="1755" width="25" height="25"></rect>
                <rect id="Rectangle-8" fill="#B6CCE4" transform="translate(37.500000, 887.500000) scale(1, -1) translate(-37.500000, -887.500000) " x="25" y="875" width="25" height="25"></rect>
                <rect id="Rectangle-8" fill="#D6E6F4" transform="translate(12.500000, 1112.500000) scale(1, -1) translate(-12.500000, -1112.500000) " x="0" y="1100" width="25" height="25"></rect>
                <rect id="Rectangle-8" fill="#B6CCE4" transform="translate(25.000000, 975.000000) scale(1, -1) translate(-25.000000, -975.000000) " x="0" y="950" width="50" height="50"></rect>
                <rect id="Rectangle-8" fill="#D6E6F4" transform="translate(25.000000, 625.000000) scale(1, -1) translate(-25.000000, -625.000000) " x="0" y="600" width="50" height="50"></rect>
                <rect id="Rectangle-8" fill="#D6E6F4" transform="translate(25.000000, 825.000000) scale(1, -1) translate(-25.000000, -825.000000) " x="0" y="800" width="50" height="50"></rect>
                <rect id="Rectangle-8" fill="#D6E6F4" transform="translate(37.500000, 462.500000) scale(1, -1) translate(-37.500000, -462.500000) " x="25" y="450" width="25" height="25"></rect>
                <rect id="Rectangle-8" fill="#B6CCE4" transform="translate(675.000000, 25.000000) scale(1, -1) translate(-675.000000, -25.000000) " x="650" y="0" width="50" height="50"></rect>
                <rect id="Rectangle-8" fill="#D6E6F4" transform="translate(687.500000, 62.500000) scale(1, -1) translate(-687.500000, -62.500000) " x="675" y="50" width="25" height="25"></rect>
                <rect id="Rectangle-8" fill="#D6E6F4" transform="translate(37.500000, 762.500000) scale(1, -1) translate(-37.500000, -762.500000) " x="25" y="750" width="25" height="25"></rect>
                <rect id="Rectangle-8" fill="#D6E6F4" transform="translate(37.500000, 362.500000) scale(1, -1) translate(-37.500000, -362.500000) " x="25" y="350" width="25" height="25"></rect>
                <rect id="Rectangle-8" fill="#D6E6F4" transform="translate(37.500000, 1742.500000) scale(1, -1) translate(-37.500000, -1742.500000) " x="25" y="1730" width="25" height="25"></rect>
                <rect id="Rectangle-8" fill="#B6CCE4" transform="translate(25.000000, 1655.000000) scale(1, -1) translate(-25.000000, -1655.000000) " x="0" y="1630" width="50" height="50"></rect>
                <rect id="Rectangle-8" fill="#D6E6F4" transform="translate(25.000000, 1555.000000) scale(1, -1) translate(-25.000000, -1555.000000) " x="0" y="1530" width="50" height="50"></rect>
                <rect id="Rectangle-8" fill="#D6E6F4" transform="translate(37.500000, 1492.500000) scale(1, -1) translate(-37.500000, -1492.500000) " x="25" y="1480" width="25" height="25"></rect>
                <rect id="Rectangle-8" fill="#D6E6F4" transform="translate(25.000000, 1355.000000) scale(1, -1) translate(-25.000000, -1355.000000) " x="0" y="1330" width="50" height="50"></rect>
                <rect id="Rectangle-8" fill="#D6E6F4" transform="translate(37.500000, 1192.500000) scale(1, -1) translate(-37.500000, -1192.500000) " x="25" y="1180" width="25" height="25"></rect>
                <rect id="Rectangle-8" fill="#B6CCE4" transform="translate(25.000000, 1255.000000) scale(1, -1) translate(-25.000000, -1255.000000) " x="0" y="1230" width="50" height="50"></rect>
                <rect id="Rectangle-8" fill="#B6CCE4" transform="translate(12.500000, 1442.500000) scale(1, -1) translate(-12.500000, -1442.500000) " x="0" y="1430" width="25" height="25"></rect>
                <rect id="Rectangle-8" fill="#B6CCE4" transform="translate(37.500000, 1892.500000) scale(1, -1) translate(-37.500000, -1892.500000) " x="25" y="1880" width="25" height="25"></rect>
                <rect id="Rectangle-8" fill="#D6E6F4" transform="translate(12.500000, 1817.500000) scale(1, -1) translate(-12.500000, -1817.500000) " x="0" y="1805" width="25" height="25"></rect>
                <rect id="Rectangle-8" fill="#D6E6F4" transform="translate(662.500000, 2467.500000) scale(-1, -1) translate(-662.500000, -2467.500000) " x="650" y="2455" width="25" height="25"></rect>
                <rect id="Rectangle-8" fill="#D6E6F4" transform="translate(675.000000, 2580.000000) scale(-1, -1) translate(-675.000000, -2580.000000) " x="650" y="2555" width="50" height="50"></rect>
                <rect id="Rectangle-8" fill="#D6E6F4" transform="translate(662.500000, 2767.500000) scale(-1, -1) translate(-662.500000, -2767.500000) " x="650" y="2755" width="25" height="25"></rect>
                <rect id="Rectangle-8" fill="#B6CCE4" transform="translate(675.000000, 2680.000000) scale(-1, -1) translate(-675.000000, -2680.000000) " x="650" y="2655" width="50" height="50"></rect>
                <rect id="Rectangle-8" fill="#B6CCE4" transform="translate(687.500000, 2517.500000) scale(-1, -1) translate(-687.500000, -2517.500000) " x="675" y="2505" width="25" height="25"></rect>
                <rect id="Rectangle-8" fill="#D6E6F4" transform="translate(37.500000, 2817.500000) scale(1, -1) translate(-37.500000, -2817.500000) " x="25" y="2805" width="25" height="25"></rect>
                <rect id="Rectangle-8" fill="#B6CCE4" transform="translate(25.000000, 2730.000000) scale(1, -1) translate(-25.000000, -2730.000000) " x="0" y="2705" width="50" height="50"></rect>
                <rect id="Rectangle-8" fill="#D6E6F4" transform="translate(25.000000, 2630.000000) scale(1, -1) translate(-25.000000, -2630.000000) " x="0" y="2605" width="50" height="50"></rect>
                <rect id="Rectangle-8" fill="#D6E6F4" transform="translate(37.500000, 2567.500000) scale(1, -1) translate(-37.500000, -2567.500000) " x="25" y="2555" width="25" height="25"></rect>
                <rect id="Rectangle-8" fill="#D6E6F4" transform="translate(25.000000, 2430.000000) scale(1, -1) translate(-25.000000, -2430.000000) " x="0" y="2405" width="50" height="50"></rect>
                <rect id="Rectangle-8" fill="#B6CCE4" transform="translate(12.500000, 2517.500000) scale(1, -1) translate(-12.500000, -2517.500000) " x="0" y="2505" width="25" height="25"></rect>
                <rect id="Rectangle-8" fill="#C7DAED" x="350" y="250" width="50" height="50"></rect>
                <rect id="Rectangle-8" fill="#C7DAED" x="550" y="250" width="50" height="50"></rect>
                <rect id="Rectangle-8" fill="#D6E6F4" x="0" y="250" width="25" height="25"></rect>
                <rect id="Rectangle-8" fill="#B6CCE4" x="675" y="225" width="25" height="25"></rect>
                <rect id="Rectangle-8" fill="#D6E6F4" x="650" y="250" width="25" height="25"></rect>
                <rect id="Rectangle-8" fill="#B6CCE4" x="400" y="200" width="50" height="50"></rect>
                <rect id="Rectangle-8" fill="#B6CCE4" x="200" y="200" width="50" height="50"></rect>
                <rect id="Rectangle-8" fill="#B6CCE4" x="500" y="275" width="25" height="25"></rect>
                <rect id="Rectangle-8" fill="#D6E6F4" x="500" y="225" width="25" height="25"></rect>
                <rect id="Rectangle-8" fill="#D6E6F4" x="125" y="200" width="25" height="25"></rect>
                <rect id="Rectangle-8" fill="#B6CCE4" x="550" y="200" width="25" height="25"></rect>
                <rect id="Rectangle-8" fill="#B6CCE4" x="225" y="250" width="25" height="25"></rect>
                <rect id="Rectangle-8" fill="#B6CCE4" x="300" y="250" width="50" height="50"></rect>
                <rect id="Rectangle-8" fill="#B6CCE4" x="50" y="250" width="50" height="50"></rect>
            </g>
        </g>
    </g>
</svg>