<?xml version="1.0" encoding="UTF-8"?>
<svg width="700px" height="850px" viewBox="0 0 700 850" version="1.1" xmlns="http://www.w3.org/2000/svg" xmlns:xlink="http://www.w3.org/1999/xlink">
    <!-- Generator: Sketch 49.2 (51160) - http://www.bohemiancoding.com/sketch -->
    <title>mdpi/corn_overview_wide</title>
    <desc>Created with Sketch.</desc>
    <defs></defs>
    <g id="Page-1" stroke="none" stroke-width="1" fill="none" fill-rule="evenodd">
        <g id="Artboard-13">
            <g id="corn_overview_wide">
                <g id="Group-7">
                    <rect id="Rectangle-8" fill="#D6E6F4" x="0" y="325" width="50" height="50"></rect>
                    <rect id="Rectangle-8" fill="#D6E6F4" x="600" y="300" width="50" height="50"></rect>
                    <rect id="Rectangle-8" fill="#D6E6F4" x="50" y="50" width="600" height="800"></rect>
                    <rect id="Rectangle-8" fill="#D6E6F4" x="75" y="0" width="25" height="25"></rect>
                    <rect id="Rectangle-8" fill="#D6E6F4" x="25" y="25" width="25" height="25"></rect>
                    <rect id="Rectangle-8" fill="#D6E6F4" x="490" y="0" width="25" height="25"></rect>
                    <rect id="Rectangle-8" fill="#D6E6F4" x="675" y="175" width="25" height="25"></rect>
                    <rect id="Rectangle-8" fill="#C7DAED" x="100" y="50" width="25" height="25"></rect>
                    <rect id="Rectangle-8" fill="#C7DAED" x="175" y="50" width="25" height="25"></rect>
                    <rect id="Rectangle-8" fill="#B6CCE4" x="0" y="150" width="50" height="50"></rect>
                    <rect id="Rectangle-8" fill="#B6CCE4" x="300" y="0" width="50" height="50"></rect>
                    <rect id="Rectangle-8" fill="#B6CCE4" x="650" y="250" width="50" height="50"></rect>
                    <rect id="Rectangle-8" fill="#C7DAED" x="550" y="50" width="50" height="50"></rect>
                    <rect id="Rectangle-8" fill="#C7DAED" x="350" y="50" width="50" height="50"></rect>
                    <rect id="Rectangle-8" fill="#D6E6F4" x="0" y="250" width="25" height="25"></rect>
                    <rect id="Rectangle-8" fill="#B6CCE4" x="650" y="100" width="25" height="25"></rect>
                    <rect id="Rectangle-8" fill="#B6CCE4" x="525" y="25" width="25" height="25"></rect>
                </g>
                <rect id="Rectangle-8" fill="#D6E6F4" transform="translate(12.500000, 412.500000) scale(-1, -1) translate(-12.500000, -412.500000) " x="0" y="400" width="25" height="25"></rect>
                <rect id="Rectangle-8" fill="#B6CCE4" transform="translate(25.000000, 475.000000) scale(-1, -1) translate(-25.000000, -475.000000) " x="0" y="450" width="50" height="50"></rect>
                <rect id="Rectangle-8" fill="#D6E6F4" transform="translate(25.000000, 575.000000) scale(-1, -1) translate(-25.000000, -575.000000) " x="0" y="550" width="50" height="50"></rect>
                <rect id="Rectangle-8" fill="#D6E6F4" transform="translate(12.500000, 662.500000) scale(-1, -1) translate(-12.500000, -662.500000) " x="0" y="650" width="25" height="25"></rect>
                <rect id="Rectangle-8" fill="#D6E6F4" transform="translate(25.000000, 775.000000) scale(-1, -1) translate(-25.000000, -775.000000) " x="0" y="750" width="50" height="50"></rect>
                <rect id="Rectangle-8" fill="#B6CCE4" transform="translate(37.500000, 712.500000) scale(-1, -1) translate(-37.500000, -712.500000) " x="25" y="700" width="25" height="25"></rect>
                <rect id="Rectangle-8" fill="#B6CCE4" x="650" y="426" width="50" height="50"></rect>
                <rect id="Rectangle-8" fill="#B6CCE4" x="650" y="376" width="25" height="25"></rect>
                <rect id="Rectangle-8" fill="#D6E6F4" x="675" y="601" width="25" height="25"></rect>
                <rect id="Rectangle-8" fill="#B6CCE4" x="650" y="526" width="25" height="25"></rect>
                <rect id="Rectangle-8" fill="#D6E6F4" x="650" y="800" width="50" height="50"></rect>
                <rect id="Rectangle-8" fill="#B6CCE4" x="650" y="686" width="50" height="50"></rect>
            </g>
        </g>
    </g>
</svg>