<?xml version="1.0" encoding="UTF-8"?>
<svg width="400px" height="1300px" viewBox="0 0 400 1300" version="1.1" xmlns="http://www.w3.org/2000/svg" xmlns:xlink="http://www.w3.org/1999/xlink">
    <!-- Generator: Sketch 49 (51002) - http://www.bohemiancoding.com/sketch -->
    <title>mdpi/Group 11</title>
    <desc>Created with Sketch.</desc>
    <defs></defs>
    <g id="CASE-STUDY" stroke="none" stroke-width="1" fill="none" fill-rule="evenodd">
        <g id="Artboard-5" transform="translate(0.000000, -6850.000000)">
            <g id="Group-11" transform="translate(0.000000, 6850.000000)">
                <rect id="Rectangle-8" fill="#DEF4D6" x="0" y="50" width="400" height="1200"></rect>
                <rect id="Rectangle-8" fill="#CFEDC6" x="350" y="50" width="50" height="50"></rect>
                <g id="Group-2" transform="translate(200.000000, 1250.000000) scale(-1, -1) translate(-200.000000, -1250.000000) translate(0.000000, 1200.000000)">
                    <rect id="Rectangle-8" fill="#CFEDC6" x="350" y="50" width="50" height="50"></rect>
                    <rect id="Rectangle-8" fill="#CFEDC6" x="250" y="50" width="25" height="25"></rect>
                    <rect id="Rectangle-8" fill="#CFEDC6" x="75" y="75" width="25" height="25"></rect>
                    <rect id="Rectangle-8" fill="#C0E4B6" x="200" y="25" width="25" height="25"></rect>
                    <rect id="Rectangle-8" fill="#C0E4B6" x="125" y="0" width="25" height="25"></rect>
                    <rect id="Rectangle-8" fill="#DEF4D6" x="375" y="0" width="25" height="25"></rect>
                    <rect id="Rectangle-8" fill="#C0E4B6" x="0" y="0" width="50" height="50"></rect>
                    <rect id="Rectangle-8" fill="#C0E4B6" x="275" y="0" width="50" height="50"></rect>
                    <rect id="Rectangle-8" fill="#DEF4D6" x="75" y="25" width="25" height="25"></rect>
                </g>
                <rect id="Rectangle-8" fill="#CFEDC6" x="50" y="50" width="50" height="50"></rect>
                <rect id="Rectangle-8" fill="#CFEDC6" x="200" y="50" width="25" height="25"></rect>
                <rect id="Rectangle-8" fill="#CFEDC6" x="250" y="75" width="25" height="25"></rect>
                <rect id="Rectangle-8" fill="#C0E4B6" x="25" y="25" width="25" height="25"></rect>
                <rect id="Rectangle-8" fill="#C0E4B6" x="325" y="0" width="25" height="25"></rect>
                <rect id="Rectangle-8" fill="#C0E4B6" x="150" y="0" width="50" height="50"></rect>
                <rect id="Rectangle-8" fill="#DEF4D6" x="75" y="0" width="25" height="25"></rect>
            </g>
        </g>
    </g>
</svg>