<?xml version="1.0" encoding="UTF-8"?>
<svg width="701px" height="900px" viewBox="0 0 701 900" version="1.1" xmlns="http://www.w3.org/2000/svg" xmlns:xlink="http://www.w3.org/1999/xlink">
    <!-- Generator: Sketch 49 (51002) - http://www.bohemiancoding.com/sketch -->
    <title>mdpi/Group 10</title>
    <desc>Created with Sketch.</desc>
    <defs></defs>
    <g id="CASE-STUDY" stroke="none" stroke-width="1" fill="none" fill-rule="evenodd">
        <g id="Artboard-7" transform="translate(-49.000000, -2350.000000)">
            <g id="Group-10" transform="translate(49.000000, 2350.000000)">
                <rect id="Rectangle-8" fill="#C0E4B6" x="26" y="551" width="25" height="25"></rect>
                <rect id="Rectangle-8" fill="#C0E4B6" x="26" y="676" width="25" height="25"></rect>
                <rect id="Rectangle-8" fill="#DEF4D6" x="1" y="625" width="25" height="25"></rect>
                <rect id="Rectangle-8" fill="#DEF4D6" x="1" y="776" width="25" height="25"></rect>
                <rect id="Rectangle-8" fill="#DEF4D6" x="1" y="850" width="25" height="25"></rect>
                <rect id="Rectangle-8" fill="#DEF4D6" x="676" y="675" width="25" height="25"></rect>
                <rect id="Rectangle-8" fill="#C0E4B6" x="651" y="600" width="50" height="50"></rect>
                <rect id="Rectangle-8" fill="#DEF4D6" x="651" y="500" width="50" height="50"></rect>
                <rect id="Rectangle-8" fill="#DEF4D6" x="676" y="425" width="25" height="25"></rect>
                <rect id="Rectangle-8" fill="#DEF4D6" x="651" y="300" width="50" height="50"></rect>
                <rect id="Rectangle-8" fill="#DEF4D6" x="676" y="125" width="25" height="25"></rect>
                <rect id="Rectangle-8" fill="#C0E4B6" x="651" y="200" width="50" height="50"></rect>
                <rect id="Rectangle-8" fill="#C0E4B6" x="651" y="375" width="25" height="25"></rect>
                <rect id="Rectangle-8" fill="#DEF4D6" x="576" y="850" width="50" height="50"></rect>
                <rect id="Rectangle-8" fill="#DEF4D6" x="51" y="50" width="600" height="800"></rect>
                <rect id="Rectangle-8" fill="#C0E4B6" x="0" y="650" width="50" height="50"></rect>
                <rect id="Rectangle-8" fill="#C0E4B6" x="676" y="825" width="25" height="25"></rect>
                <rect id="Rectangle-8" fill="#DEF4D6" x="651" y="750" width="25" height="25"></rect>
                <rect id="Rectangle-8" fill="#DEF4D6" x="651" y="850" width="25" height="25"></rect>
                <rect id="Rectangle-8" fill="#DEF4D6" x="176" y="875" width="25" height="25"></rect>
                <rect id="Rectangle-8" fill="#DEF4D6" x="1" y="300" width="50" height="50"></rect>
                <rect id="Rectangle-8" fill="#DEF4D6" x="1" y="500" width="50" height="50"></rect>
                <rect id="Rectangle-8" fill="#DEF4D6" x="26" y="125" width="25" height="25"></rect>
                <rect id="Rectangle-8" fill="#DEF4D6" x="26" y="425" width="25" height="25"></rect>
                <rect id="Rectangle-8" fill="#C0E4B6" x="1" y="200" width="50" height="50"></rect>
                <rect id="Rectangle-8" fill="#C0E4B6" x="651" y="50" width="25" height="25"></rect>
                <rect id="Rectangle-8" fill="#DEF4D6" x="26" y="25" width="25" height="25"></rect>
                <rect id="Rectangle-8" fill="#CFEDC6" x="504" y="50" width="50" height="50"></rect>
                <rect id="Rectangle-8" fill="#CFEDC6" x="251" y="50" width="50" height="50"></rect>
                <rect id="Rectangle-8" fill="#CFEDC6" x="51" y="50" width="50" height="50"></rect>
                <rect id="Rectangle-8" fill="#CFEDC6" x="401" y="800" width="50" height="50"></rect>
                <rect id="Rectangle-8" fill="#CFEDC6" x="201" y="800" width="50" height="50"></rect>
                <rect id="Rectangle-8" fill="#C0E4B6" x="501" y="875" width="25" height="25"></rect>
                <rect id="Rectangle-8" fill="#C0E4B6" x="551" y="0" width="25" height="25"></rect>
                <rect id="Rectangle-8" fill="#CFEDC6" x="426" y="75" width="25" height="25"></rect>
                <rect id="Rectangle-8" fill="#CFEDC6" x="176" y="75" width="25" height="25"></rect>
                <rect id="Rectangle-8" fill="#CFEDC6" x="501" y="825" width="25" height="25"></rect>
                <rect id="Rectangle-8" fill="#CFEDC6" x="126" y="800" width="25" height="25"></rect>
                <rect id="Rectangle-8" fill="#CFEDC6" x="551" y="800" width="25" height="25"></rect>
                <rect id="Rectangle-8" fill="#C0E4B6" x="226" y="850" width="25" height="25"></rect>
                <rect id="Rectangle-8" fill="#C0E4B6" x="351" y="0" width="50" height="50"></rect>
                <rect id="Rectangle-8" fill="#C0E4B6" x="301" y="850" width="50" height="50"></rect>
                <rect id="Rectangle-8" fill="#C0E4B6" x="51" y="850" width="50" height="50"></rect>
                <rect id="Rectangle-8" fill="#DEF4D6" x="201" y="25" width="25" height="25"></rect>
                <rect id="Rectangle-8" fill="#DEF4D6" x="451" y="25" width="25" height="25"></rect>
                <rect id="Rectangle-8" fill="#DEF4D6" x="426" y="875" width="25" height="25"></rect>
            </g>
        </g>
    </g>
</svg>