<?xml version="1.0" encoding="UTF-8"?>
<svg width="400px" height="1851px" viewBox="0 0 400 1851" version="1.1" xmlns="http://www.w3.org/2000/svg" xmlns:xlink="http://www.w3.org/1999/xlink">
    <!-- Generator: Sketch 49.1 (51147) - http://www.bohemiancoding.com/sketch -->
    <title>mdpi/hh_mvp_narrow</title>
    <desc>Created with Sketch.</desc>
    <defs></defs>
    <g id="Page-1" stroke="none" stroke-width="1" fill="none" fill-rule="evenodd">
        <g id="Artboard-12" transform="translate(-1260.000000, 0.000000)">
            <g id="hh_mvp_narrow" transform="translate(1260.000000, 0.000000)">
                <rect id="Rectangle-8" fill="#DEF4D6" x="0" y="150" width="400" height="1701"></rect>
                <rect id="Rectangle-8" fill="#DEF4D6" x="0" y="0" width="400" height="50"></rect>
                <rect id="Rectangle-8" fill="#CFEDC6" x="300" y="150" width="50" height="50"></rect>
                <rect id="Rectangle-8" fill="#CFEDC6" x="0" y="150" width="50" height="50"></rect>
                <rect id="Rectangle-8" fill="#CFEDC6" x="150" y="150" width="25" height="25"></rect>
                <rect id="Rectangle-8" fill="#CFEDC6" x="200" y="175" width="25" height="25"></rect>
                <rect id="Rectangle-8" fill="#C0E4B6" x="225" y="125" width="25" height="25"></rect>
                <rect id="Rectangle-8" fill="#C0E4B6" x="325" y="100" width="25" height="25"></rect>
                <rect id="Rectangle-8" fill="#C0E4B6" x="100" y="100" width="50" height="50"></rect>
                <rect id="Rectangle-8" fill="#DEF4D6" x="25" y="100" width="25" height="25"></rect>
                <rect id="Rectangle-8" fill="#CFEDC6" x="250" y="0" width="50" height="50"></rect>
                <rect id="Rectangle-8" fill="#CFEDC6" x="0" y="25" width="25" height="25"></rect>
                <rect id="Rectangle-8" fill="#CFEDC6" x="100" y="25" width="25" height="25"></rect>
                <rect id="Rectangle-8" fill="#CFEDC6" x="325" y="0" width="25" height="25"></rect>
                <rect id="Rectangle-8" fill="#C0E4B6" x="275" y="75" width="25" height="25"></rect>
                <rect id="Rectangle-8" fill="#C0E4B6" x="0" y="75" width="25" height="25"></rect>
                <rect id="Rectangle-8" fill="#C0E4B6" x="150" y="50" width="50" height="50"></rect>
                <rect id="Rectangle-8" fill="#C0E4B6" x="350" y="50" width="50" height="50"></rect>
            </g>
        </g>
    </g>
</svg>