<?xml version="1.0" encoding="UTF-8"?>
<svg width="400px" height="3150px" viewBox="0 0 400 3150" version="1.1" xmlns="http://www.w3.org/2000/svg" xmlns:xlink="http://www.w3.org/1999/xlink">
    <!-- Generator: Sketch 49.1 (51147) - http://www.bohemiancoding.com/sketch -->
    <title>mdpi/hh_mockups_narrow</title>
    <desc>Created with Sketch.</desc>
    <defs></defs>
    <g id="Page-1" stroke="none" stroke-width="1" fill="none" fill-rule="evenodd">
        <g id="Artboard-12" transform="translate(-2520.000000, 0.000000)">
            <g id="hh_mockups_narrow" transform="translate(2520.000000, 0.000000)">
                <rect id="Rectangle-8" fill="#DEF4D6" x="0" y="150" width="400" height="3000"></rect>
                <rect id="Rectangle-8" fill="#DEF4D6" x="0" y="0" width="400" height="50"></rect>
                <rect id="Rectangle-8" fill="#CFEDC6" transform="translate(25.000000, 175.000000) scale(-1, 1) translate(-25.000000, -175.000000) " x="0" y="150" width="50" height="50"></rect>
                <rect id="Rectangle-8" fill="#CFEDC6" transform="translate(137.500000, 162.500000) scale(-1, 1) translate(-137.500000, -162.500000) " x="125" y="150" width="25" height="25"></rect>
                <rect id="Rectangle-8" fill="#CFEDC6" transform="translate(262.500000, 162.500000) scale(-1, 1) translate(-262.500000, -162.500000) " x="250" y="150" width="25" height="25"></rect>
                <rect id="Rectangle-8" fill="#CFEDC6" transform="translate(362.500000, 187.500000) scale(-1, 1) translate(-362.500000, -187.500000) " x="350" y="175" width="25" height="25"></rect>
                <rect id="Rectangle-8" fill="#C0E4B6" transform="translate(187.500000, 137.500000) scale(-1, 1) translate(-187.500000, -137.500000) " x="175" y="125" width="25" height="25"></rect>
                <rect id="Rectangle-8" fill="#C0E4B6" transform="translate(262.500000, 112.500000) scale(-1, 1) translate(-262.500000, -112.500000) " x="250" y="100" width="25" height="25"></rect>
                <rect id="Rectangle-8" fill="#DEF4D6" transform="translate(12.500000, 137.500000) scale(-1, 1) translate(-12.500000, -137.500000) " x="0" y="125" width="25" height="25"></rect>
                <rect id="Rectangle-8" fill="#C0E4B6" transform="translate(325.000000, 125.000000) scale(-1, 1) translate(-325.000000, -125.000000) " x="300" y="100" width="50" height="50"></rect>
                <rect id="Rectangle-8" fill="#C0E4B6" transform="translate(75.000000, 125.000000) scale(-1, 1) translate(-75.000000, -125.000000) " x="50" y="100" width="50" height="50"></rect>
                <rect id="Rectangle-8" fill="#DEF4D6" transform="translate(362.500000, 137.500000) scale(-1, 1) translate(-362.500000, -137.500000) " x="350" y="125" width="25" height="25"></rect>
                <rect id="Rectangle-8" fill="#CFEDC6" transform="translate(375.000000, 25.000000) scale(1, -1) translate(-375.000000, -25.000000) " x="350" y="0" width="50" height="50"></rect>
                <rect id="Rectangle-8" fill="#CFEDC6" transform="translate(75.000000, 25.000000) scale(1, -1) translate(-75.000000, -25.000000) " x="50" y="0" width="50" height="50"></rect>
                <rect id="Rectangle-8" fill="#CFEDC6" transform="translate(212.500000, 37.500000) scale(1, -1) translate(-212.500000, -37.500000) " x="200" y="25" width="25" height="25"></rect>
                <rect id="Rectangle-8" fill="#CFEDC6" transform="translate(262.500000, 12.500000) scale(1, -1) translate(-262.500000, -12.500000) " x="250" y="0" width="25" height="25"></rect>
                <rect id="Rectangle-8" fill="#C0E4B6" transform="translate(287.500000, 62.500000) scale(1, -1) translate(-287.500000, -62.500000) " x="275" y="50" width="25" height="25"></rect>
                <rect id="Rectangle-8" fill="#C0E4B6" transform="translate(387.500000, 87.500000) scale(1, -1) translate(-387.500000, -87.500000) " x="375" y="75" width="25" height="25"></rect>
                <rect id="Rectangle-8" fill="#C0E4B6" transform="translate(175.000000, 75.000000) scale(1, -1) translate(-175.000000, -75.000000) " x="150" y="50" width="50" height="50"></rect>
                <rect id="Rectangle-8" fill="#DEF4D6" transform="translate(37.500000, 87.500000) scale(1, -1) translate(-37.500000, -87.500000) " x="25" y="75" width="25" height="25"></rect>
            </g>
        </g>
    </g>
</svg>