<?xml version="1.0" encoding="UTF-8"?>
<svg width="700px" height="2829px" viewBox="0 0 700 2829" version="1.1" xmlns="http://www.w3.org/2000/svg" xmlns:xlink="http://www.w3.org/1999/xlink">
    <!-- Generator: Sketch 49.1 (51147) - http://www.bohemiancoding.com/sketch -->
    <title>mdpi/Group 9</title>
    <desc>Created with Sketch.</desc>
    <defs></defs>
    <g id="Page-1" stroke="none" stroke-width="1" fill="none" fill-rule="evenodd">
        <g id="Artboard-13" transform="translate(-1500.000000, 0.000000)">
            <g id="Group-9" transform="translate(1500.000000, 0.000000)">
                <rect id="Rectangle-8" fill="#DEF4D6" x="50" y="249" width="600" height="2580"></rect>
                <rect id="Rectangle-8" fill="#DEF4D6" x="0" y="2074" width="50" height="50"></rect>
                <rect id="Rectangle-8" fill="#DEF4D6" x="25" y="1999" width="25" height="25"></rect>
                <rect id="Rectangle-8" fill="#C0E4B6" x="650" y="849" width="50" height="50"></rect>
                <rect id="Rectangle-8" fill="#C0E4B6" x="675" y="1024" width="25" height="25"></rect>
                <rect id="Rectangle-8" fill="#C0E4B6" x="675" y="2149" width="25" height="25"></rect>
                <rect id="Rectangle-8" fill="#DEF4D6" x="650" y="949" width="25" height="25"></rect>
                <rect id="Rectangle-8" fill="#DEF4D6" x="650" y="499" width="50" height="50"></rect>
                <rect id="Rectangle-8" fill="#DEF4D6" x="650" y="699" width="50" height="50"></rect>
                <rect id="Rectangle-8" fill="#DEF4D6" x="675" y="324" width="25" height="25"></rect>
                <rect id="Rectangle-8" fill="#DEF4D6" x="675" y="624" width="25" height="25"></rect>
                <rect id="Rectangle-8" fill="#C0E4B6" x="650" y="399" width="50" height="50"></rect>
                <rect id="Rectangle-8" fill="#C0E4B6" x="650" y="574" width="25" height="25"></rect>
                <rect id="Rectangle-8" fill="#C0E4B6" x="650" y="249" width="25" height="25"></rect>
                <rect id="Rectangle-8" fill="#DEF4D6" x="0" y="324" width="50" height="50"></rect>
                <rect id="Rectangle-8" fill="#DEF4D6" x="25" y="224" width="25" height="25"></rect>
                <rect id="Rectangle-8" fill="#C0E4B6" x="0" y="524" width="50" height="50"></rect>
                <rect id="Rectangle-8" fill="#C0E4B6" x="0" y="474" width="25" height="25"></rect>
                <rect id="Rectangle-8" fill="#DEF4D6" x="0" y="1874" width="50" height="50"></rect>
                <rect id="Rectangle-8" fill="#DEF4D6" x="25" y="699" width="25" height="25"></rect>
                <rect id="Rectangle-8" fill="#C0E4B6" x="0" y="1774" width="50" height="50"></rect>
                <rect id="Rectangle-8" fill="#C0E4B6" x="650" y="2199" width="50" height="50"></rect>
                <rect id="Rectangle-8" fill="#C0E4B6" x="0" y="1949" width="25" height="25"></rect>
                <rect id="Rectangle-8" fill="#DEF4D6" x="675" y="2100" width="25" height="25"></rect>
                <rect id="Rectangle-8" fill="#C0E4B6" x="650" y="2050" width="25" height="25"></rect>
                <rect id="Rectangle-8" fill="#C0E4B6" x="0" y="624" width="25" height="25"></rect>
                <rect id="Rectangle-8" fill="#CFEDC6" x="100" y="249" width="50" height="50"></rect>
                <rect id="Rectangle-8" fill="#CFEDC6" x="450" y="249" width="50" height="50"></rect>
                <rect id="Rectangle-8" fill="#CFEDC6" x="600" y="249" width="50" height="50"></rect>
                <rect id="Rectangle-8" fill="#C0E4B6" x="550" y="199" width="25" height="25"></rect>
                <rect id="Rectangle-8" fill="#CFEDC6" x="300" y="249" width="25" height="25"></rect>
                <rect id="Rectangle-8" fill="#C0E4B6" x="350" y="199" width="50" height="50"></rect>
                <rect id="Rectangle-8" fill="#DEF4D6" x="225" y="224" width="25" height="25"></rect>
                <rect id="Rectangle-8" fill="#DEF4D6" x="450" y="224" width="25" height="25"></rect>
                <rect id="Rectangle-8" fill="#DEF4D6" x="650" y="1951" width="50" height="50"></rect>
                <rect id="Rectangle-8" fill="#C0E4B6" x="650" y="1826" width="50" height="50"></rect>
                <rect id="Rectangle-8" fill="#DEF4D6" transform="translate(662.500000, 1213.500000) scale(-1, -1) translate(-662.500000, -1213.500000) " x="650" y="1201" width="25" height="25"></rect>
                <rect id="Rectangle-8" fill="#C0E4B6" transform="translate(675.000000, 1276.000000) scale(-1, -1) translate(-675.000000, -1276.000000) " x="650" y="1251" width="50" height="50"></rect>
                <rect id="Rectangle-8" fill="#DEF4D6" transform="translate(675.000000, 1376.000000) scale(-1, -1) translate(-675.000000, -1376.000000) " x="650" y="1351" width="50" height="50"></rect>
                <rect id="Rectangle-8" fill="#DEF4D6" transform="translate(662.500000, 1463.500000) scale(-1, -1) translate(-662.500000, -1463.500000) " x="650" y="1451" width="25" height="25"></rect>
                <rect id="Rectangle-8" fill="#DEF4D6" transform="translate(675.000000, 1576.000000) scale(-1, -1) translate(-675.000000, -1576.000000) " x="650" y="1551" width="50" height="50"></rect>
                <rect id="Rectangle-8" fill="#DEF4D6" transform="translate(662.500000, 1763.500000) scale(-1, -1) translate(-662.500000, -1763.500000) " x="650" y="1751" width="25" height="25"></rect>
                <rect id="Rectangle-8" fill="#C0E4B6" x="0" y="2199" width="50" height="50"></rect>
                <rect id="Rectangle-8" fill="#DEF4D6" transform="translate(12.500000, 2161.500000) scale(-1, -1) translate(-12.500000, -2161.500000) " x="0" y="2149" width="25" height="25"></rect>
                <rect id="Rectangle-8" fill="#C0E4B6" transform="translate(675.000000, 1676.000000) scale(-1, -1) translate(-675.000000, -1676.000000) " x="650" y="1651" width="50" height="50"></rect>
                <rect id="Rectangle-8" fill="#C0E4B6" transform="translate(687.500000, 1513.500000) scale(-1, -1) translate(-687.500000, -1513.500000) " x="675" y="1501" width="25" height="25"></rect>
                <rect id="Rectangle-8" fill="#C0E4B6" transform="translate(675.000000, 2454.000000) scale(-1, -1) translate(-675.000000, -2454.000000) " x="650" y="2429" width="50" height="50"></rect>
                <rect id="Rectangle-8" fill="#DEF4D6" transform="translate(675.000000, 2554.000000) scale(-1, -1) translate(-675.000000, -2554.000000) " x="650" y="2529" width="50" height="50"></rect>
                <rect id="Rectangle-8" fill="#DEF4D6" transform="translate(662.500000, 2641.500000) scale(-1, -1) translate(-662.500000, -2641.500000) " x="650" y="2629" width="25" height="25"></rect>
                <rect id="Rectangle-8" fill="#DEF4D6" transform="translate(675.000000, 2754.000000) scale(-1, -1) translate(-675.000000, -2754.000000) " x="650" y="2729" width="50" height="50"></rect>
                <rect id="Rectangle-8" fill="#C0E4B6" transform="translate(687.500000, 2691.500000) scale(-1, -1) translate(-687.500000, -2691.500000) " x="675" y="2679" width="25" height="25"></rect>
                <rect id="Rectangle-8" fill="#C0E4B6" transform="translate(662.500000, 1063.500000) scale(-1, -1) translate(-662.500000, -1063.500000) " x="650" y="1051" width="25" height="25"></rect>
                <rect id="Rectangle-8" fill="#DEF4D6" transform="translate(687.500000, 1138.500000) scale(-1, -1) translate(-687.500000, -1138.500000) " x="675" y="1126" width="25" height="25"></rect>
                <rect id="Rectangle-8" fill="#C0E4B6" transform="translate(687.500000, 1938.500000) scale(-1, -1) translate(-687.500000, -1938.500000) " x="675" y="1926" width="25" height="25"></rect>
                <rect id="Rectangle-8" fill="#DEF4D6" x="25" y="1359" width="25" height="25"></rect>
                <rect id="Rectangle-8" fill="#C0E4B6" x="0" y="1184" width="50" height="50"></rect>
                <rect id="Rectangle-8" fill="#DEF4D6" x="0" y="1084" width="50" height="50"></rect>
                <rect id="Rectangle-8" fill="#DEF4D6" x="25" y="1009" width="25" height="25"></rect>
                <rect id="Rectangle-8" fill="#DEF4D6" x="0" y="884" width="50" height="50"></rect>
                <rect id="Rectangle-8" fill="#C0E4B6" x="0" y="784" width="50" height="50"></rect>
                <rect id="Rectangle-8" fill="#C0E4B6" x="0" y="959" width="25" height="25"></rect>
                <rect id="Rectangle-8" fill="#C0E4B6" x="25" y="1509" width="25" height="25"></rect>
                <rect id="Rectangle-8" fill="#DEF4D6" x="0" y="1434" width="25" height="25"></rect>
                <rect id="Rectangle-8" fill="#DEF4D6" x="0" y="1284" width="50" height="50"></rect>
                <rect id="Rectangle-8" fill="#C0E4B6" x="25" y="1585" width="25" height="25"></rect>
                <rect id="Rectangle-8" fill="#C0E4B6" x="25" y="1710" width="25" height="25"></rect>
                <rect id="Rectangle-8" fill="#DEF4D6" x="0" y="1659" width="25" height="25"></rect>
                <rect id="Rectangle-8" fill="#DEF4D6" x="0" y="1534" width="50" height="50"></rect>
                <rect id="Rectangle-8" fill="#DEF4D6" x="50" y="0" width="600" height="100"></rect>
                <rect id="Rectangle-8" fill="#DEF4D6" x="0" y="100" width="50" height="50"></rect>
                <rect id="Rectangle-8" fill="#DEF4D6" x="253" y="125" width="25" height="25"></rect>
                <rect id="Rectangle-8" fill="#C0E4B6" x="650" y="100" width="50" height="50"></rect>
                <rect id="Rectangle-8" fill="#C0E4B6" x="425" y="100" width="50" height="50"></rect>
                <rect id="Rectangle-8" fill="#CFEDC6" x="150" y="50" width="50" height="50"></rect>
                <rect id="Rectangle-8" fill="#CFEDC6" x="475" y="50" width="50" height="50"></rect>
                <rect id="Rectangle-8" fill="#CFEDC6" x="575" y="75" width="25" height="25"></rect>
                <rect id="Rectangle-8" fill="#CFEDC6" x="75" y="75" width="25" height="25"></rect>
                <rect id="Rectangle-8" fill="#C0E4B6" x="0" y="2329" width="25" height="25"></rect>
                <rect id="Rectangle-8" fill="#DEF4D6" x="25" y="2274" width="25" height="25"></rect>
                <rect id="Rectangle-8" fill="#C0E4B6" x="0" y="2379" width="50" height="50"></rect>
                <rect id="Rectangle-8" fill="#DEF4D6" x="675" y="2354" width="25" height="25"></rect>
                <rect id="Rectangle-8" fill="#C0E4B6" x="650" y="2279" width="50" height="50"></rect>
                <rect id="Rectangle-8" fill="#DEF4D6" x="0" y="2779" width="50" height="50"></rect>
                <rect id="Rectangle-8" fill="#DEF4D6" x="25" y="2704" width="25" height="25"></rect>
                <rect id="Rectangle-8" fill="#DEF4D6" x="0" y="2579" width="50" height="50"></rect>
                <rect id="Rectangle-8" fill="#C0E4B6" x="0" y="2479" width="50" height="50"></rect>
                <rect id="Rectangle-8" fill="#C0E4B6" x="0" y="2654" width="25" height="25"></rect>
            </g>
        </g>
    </g>
</svg>