<?xml version="1.0" encoding="UTF-8"?>
<svg width="700px" height="850px" viewBox="0 0 700 850" version="1.1" xmlns="http://www.w3.org/2000/svg" xmlns:xlink="http://www.w3.org/1999/xlink">
    <!-- Generator: Sketch 49.1 (51147) - http://www.bohemiancoding.com/sketch -->
    <title>mdpi/Group 27</title>
    <desc>Created with Sketch.</desc>
    <defs></defs>
    <g id="Page-1" stroke="none" stroke-width="1" fill="none" fill-rule="evenodd">
        <g id="Artboard-13" transform="translate(-750.000000, 0.000000)">
            <g id="Group-27" transform="translate(750.000000, 0.000000)">
                <g id="Group-2">
                    <g id="Group">
                        <g id="Group-8" transform="translate(0.000000, 200.000000)">
                            <rect id="Rectangle-8" fill="#DEF4D6" x="100" y="0" width="50" height="50"></rect>
                            <rect id="Rectangle-8" fill="#DEF4D6" x="650" y="150" width="50" height="50"></rect>
                            <rect id="Rectangle-8" fill="#DEF4D6" x="50" y="50" width="600" height="600"></rect>
                            <rect id="Rectangle-8" fill="#DEF4D6" x="490" y="0" width="25" height="25"></rect>
                            <rect id="Rectangle-8" fill="#DEF4D6" x="675" y="75" width="25" height="25"></rect>
                            <rect id="Rectangle-8" fill="#C0E4B6" x="400" y="0" width="50" height="50"></rect>
                            <rect id="Rectangle-8" fill="#C0E4B6" x="0" y="400" width="50" height="50"></rect>
                            <rect id="Rectangle-8" fill="#C0E4B6" x="25" y="50" width="25" height="25"></rect>
                            <rect id="Rectangle-8" fill="#C0E4B6" x="650" y="25" width="25" height="25"></rect>
                            <rect id="Rectangle-8" fill="#C0E4B6" x="675" y="250" width="25" height="25"></rect>
                            <rect id="Rectangle-8" fill="#C0E4B6" x="650" y="450" width="25" height="25"></rect>
                            <rect id="Rectangle-8" fill="#CFEDC6" x="350" y="50" width="50" height="50"></rect>
                            <rect id="Rectangle-8" fill="#DEF4D6" x="0" y="150" width="25" height="25"></rect>
                            <rect id="Rectangle-8" fill="#CFEDC6" x="600" y="50" width="25" height="25"></rect>
                            <rect id="Rectangle-8" fill="#CFEDC6" x="150" y="50" width="25" height="25"></rect>
                        </g>
                        <rect id="Rectangle-8" fill="#DEF4D6" x="50" y="0" width="600" height="100"></rect>
                        <rect id="Rectangle-8" fill="#DEF4D6" x="650" y="100" width="50" height="50"></rect>
                        <rect id="Rectangle-8" fill="#DEF4D6" x="275" y="100" width="25" height="25"></rect>
                        <rect id="Rectangle-8" fill="#DEF4D6" x="225" y="125" width="25" height="25"></rect>
                        <rect id="Rectangle-8" fill="#CFEDC6" x="50" y="75" width="25" height="25"></rect>
                        <rect id="Rectangle-8" fill="#CFEDC6" x="350" y="75" width="25" height="25"></rect>
                        <rect id="Rectangle-8" fill="#C0E4B6" x="25" y="75" width="25" height="25"></rect>
                        <rect id="Rectangle-8" fill="#C0E4B6" x="425" y="100" width="25" height="25"></rect>
                        <rect id="Rectangle-8" fill="#CFEDC6" x="550" y="50" width="50" height="50"></rect>
                        <rect id="Rectangle-8" fill="#CFEDC6" x="175" y="50" width="50" height="50"></rect>
                        <rect id="Rectangle-8" fill="#DEF4D6" x="75" y="125" width="25" height="25"></rect>
                    </g>
                    <rect id="Rectangle-8" fill="#C0E4B6" transform="translate(675.000000, 525.000000) scale(-1, -1) translate(-675.000000, -525.000000) " x="650" y="500" width="50" height="50"></rect>
                    <rect id="Rectangle-8" fill="#DEF4D6" transform="translate(675.000000, 625.000000) scale(-1, -1) translate(-675.000000, -625.000000) " x="650" y="600" width="50" height="50"></rect>
                    <rect id="Rectangle-8" fill="#C0E4B6" x="26" y="402" width="25" height="25"></rect>
                    <rect id="Rectangle-8" fill="#C0E4B6" x="26" y="527" width="25" height="25"></rect>
                    <rect id="Rectangle-8" fill="#DEF4D6" x="1" y="476" width="25" height="25"></rect>
                </g>
                <rect id="Rectangle-8" fill="#DEF4D6" transform="translate(675.000000, 725.000000) scale(-1, -1) translate(-675.000000, -725.000000) " x="650" y="700" width="50" height="50"></rect>
                <rect id="Rectangle-8" fill="#C0E4B6" transform="translate(675.000000, 825.000000) scale(-1, -1) translate(-675.000000, -825.000000) " x="650" y="800" width="50" height="50"></rect>
                <rect id="Rectangle-8" fill="#C0E4B6" x="25" y="759" width="25" height="25"></rect>
                <rect id="Rectangle-8" fill="#DEF4D6" x="0" y="825" width="25" height="25"></rect>
            </g>
        </g>
    </g>
</svg>