<?xml version="1.0" encoding="UTF-8"?>
<svg width="700px" height="400px" viewBox="0 0 700 400" version="1.1" xmlns="http://www.w3.org/2000/svg" xmlns:xlink="http://www.w3.org/1999/xlink">
    <!-- Generator: Sketch 49 (51002) - http://www.bohemiancoding.com/sketch -->
    <title>mdpi/Group 8</title>
    <desc>Created with Sketch.</desc>
    <defs></defs>
    <g id="CASE-STUDY" stroke="none" stroke-width="1" fill="none" fill-rule="evenodd">
        <g id="Artboard-7" transform="translate(-50.000000, -850.000000)">
            <g id="Group-8" transform="translate(50.000000, 850.000000)">
                <rect id="Rectangle-8" fill="#DEF4D6" x="100" y="0" width="50" height="50"></rect>
                <rect id="Rectangle-8" fill="#DEF4D6" x="0" y="350" width="50" height="50"></rect>
                <rect id="Rectangle-8" fill="#DEF4D6" x="650" y="150" width="50" height="50"></rect>
                <rect id="Rectangle-8" fill="#DEF4D6" x="50" y="50" width="600" height="300"></rect>
                <rect id="Rectangle-8" fill="#DEF4D6" x="490" y="0" width="25" height="25"></rect>
                <rect id="Rectangle-8" fill="#DEF4D6" x="253" y="375" width="25" height="25"></rect>
                <rect id="Rectangle-8" fill="#DEF4D6" x="675" y="75" width="25" height="25"></rect>
                <rect id="Rectangle-8" fill="#C0E4B6" x="650" y="350" width="50" height="50"></rect>
                <rect id="Rectangle-8" fill="#C0E4B6" x="400" y="0" width="50" height="50"></rect>
                <rect id="Rectangle-8" fill="#C0E4B6" x="0" y="250" width="50" height="50"></rect>
                <rect id="Rectangle-8" fill="#C0E4B6" x="25" y="50" width="25" height="25"></rect>
                <rect id="Rectangle-8" fill="#C0E4B6" x="650" y="25" width="25" height="25"></rect>
                <rect id="Rectangle-8" fill="#C0E4B6" x="650" y="300" width="25" height="25"></rect>
                <rect id="Rectangle-8" fill="#CFEDC6" x="350" y="50" width="50" height="50"></rect>
                <rect id="Rectangle-8" fill="#CFEDC6" x="150" y="300" width="50" height="50"></rect>
                <rect id="Rectangle-8" fill="#CFEDC6" x="475" y="300" width="50" height="50"></rect>
                <rect id="Rectangle-8" fill="#DEF4D6" x="0" y="150" width="25" height="25"></rect>
                <rect id="Rectangle-8" fill="#CFEDC6" x="575" y="325" width="25" height="25"></rect>
                <rect id="Rectangle-8" fill="#CFEDC6" x="600" y="50" width="25" height="25"></rect>
                <rect id="Rectangle-8" fill="#CFEDC6" x="150" y="50" width="25" height="25"></rect>
                <rect id="Rectangle-8" fill="#CFEDC6" x="75" y="325" width="25" height="25"></rect>
            </g>
        </g>
    </g>
</svg>