<svg xmlns="http://www.w3.org/2000/svg" viewBox="0 0 139.36 197.64"><defs><style>.cls-1{fill:none;stroke:#000;stroke-miterlimit:10;stroke-width:5px;}</style></defs><title>Asset 9</title><g id="Layer_2" data-name="Layer 2"><g id="Layer_1-2" data-name="Layer 1"><path class="cls-1" d="M136.8,190.14s.42-8-1-13.91l-14.88-48a3,3,0,0,0-2.86-2.11H33.65A3,3,0,0,1,31,121.8l2-4a3,3,0,0,1,2.68-1.66h75.44a3,3,0,0,0,2.83-4L89.59,48.74V2.5H49.52V48.74S9.22,151.07,3.28,176.23a34,34,0,0,0-.75,5.18,12.94,12.94,0,0,0,13,13.73H127.3"/></g></g></svg>