<!--?xml version="1.0" encoding="utf-8"?-->
<!-- Generator: Adobe Illustrator 22.0.1, SVG Export Plug-In . SVG Version: 6.00 Build 0)  -->
<svg version="1.1" id="Layer_1" xmlns="http://www.w3.org/2000/svg" xmlns:xlink="http://www.w3.org/1999/xlink" x="0px" y="0px" viewBox="0 0 303.5 303.5" style="" xml:space="preserve">
<style type="text/css">
	.st0{fill:none;stroke:#000000;stroke-width:8;stroke-linecap:round;stroke-linejoin:round;}
</style>
<title>Asset 19</title>
<g id="Layer_2_1_">
	<g id="Layer_1-2">
		<path class="st0 jLvdfnNu_0 cVKbLtBN_0" d="M74.7,299.5H256v-30c0,0-4.8-7-7.1-8.6c-5.6-3.6-19.1-6.2-25.7-7.1c-3.9-0.5-11.8,0-15.7,0
			c-3.6,0-10.9,1.3-14.3,0c-4.5-1.7-11.9-8.7-14.3-12.9c-2.8-5.1-5.1-17.1-4.3-22.8c0.8-5.5,5.7-16.4,10-20
			c5.4-4.6,21.1-4.7,27.1-8.6c4.9-3.1,12.5-12.3,15.7-17.1c4.2-6.2,10.6-20,12.9-27.1c1.2-3.8,2.9-15.7,2.9-15.7s24.2,1.3,31.4-1.8
			c4.9-2.1,12.8-10.8,15.7-15.3c2.5-3.8,5-12.7,5.7-17.1c1-4.7,1-9.6,0-14.3c-0.7-4.4-2.8-13.7-5.7-17.1c-3.7-4.2-14.5-8.7-20-10
			c-3.8-0.9-9.7,0-9.7,0V74c0,0,5.1-0.3,8.3,1.4s7.4,8,8.6,11.4c1.2,3.7,1.1,1.9,0,5.7c-1.3,4.5-5.9,13.5-10,15.7s-15,2.9-18.6,0
			c-3.2-2.7-5.7-15.7-5.7-15.7V43.3L271.7,4H31.8l28.6,35v53.5c0,0-2.5,13-5.7,15.7c-3.6,2.9-14.5,2.2-18.6,0s-8.7-11.2-10-15.7
			c-1.1-3.8-1.2-2,0-5.7c1.1-3.4,5.5-9.7,8.6-11.4S43,74,43,74V54c0,0-5.9-0.9-9.7,0c-5.4,1.3-16.3,5.8-20,10
			c-3,3.4-5,12.7-5.7,17.1c-1,4.7-1,9.6,0,14.3c0.7,4.5,3.2,13.3,5.7,17.1c2.9,4.4,10.9,13.1,15.7,15.3c7.2,3.2,31.4,1.8,31.4,1.8
			s1.6,11.9,2.8,15.7c2.3,7.1,8.7,20.9,12.8,27.1c3.2,4.8,10.8,14,15.7,17.1c6,3.8,21.7,3.9,27.1,8.6c4.2,3.6,9.2,14.5,10,20
			c0.8,5.8-1.4,17.8-4.3,22.8c-2.3,4.2-9.8,11.1-14.3,12.9c-3.3,1.3-10.7,0-14.3,0c-3.9,0-11.8-0.5-15.7,0
			c-6.6,0.9-20.1,3.5-25.7,7.1c-2.3,1.5-7.1,8.6-7.1,8.6v30h6.6"></path>
	</g>
</g>
<style>.jLvdfnNu_0{stroke-dasharray:1630 1632;stroke-dashoffset:1631;animation:jLvdfnNu_draw 2000ms linear 0ms forwards;}@keyframes jLvdfnNu_draw{100%{stroke-dashoffset:0;}}@keyframes jLvdfnNu_fade{0%{stroke-opacity:1;}94.44444444444444%{stroke-opacity:1;}100%{stroke-opacity:0;}}</style><style></style></svg>
