<svg xmlns="http://www.w3.org/2000/svg" viewBox="0 0 287.89 304.38" style="" class=""><defs><style>.cls-1{fill:none;stroke:#000;stroke-linecap:round;stroke-linejoin:round;stroke-width:8px;}</style></defs><title>Asset 16</title><g id="Layer_2" data-name="Layer 2"><g id="Layer_1-2" data-name="Layer 1"><path class="cls-1 hRcXKZYo_0 YDCVPxXW_0" d="M4,280,109,163.46s-10.08-14-11.93-17.72A124.07,124.07,0,0,1,89.9,126.1c-1.69-6.18-3-19.07-2.83-25.48.17-6,2.37-18,4-23.78,1.65-6,6-17.76,9-23.21,2.65-4.78,9.39-13.47,13-17.55,3.87-4.33,13.25-11.49,18-14.85,5.47-3.88,18.39-10.38,24.78-12.45a111.34,111.34,0,0,1,21.21-4.4c5.5-.4,16.59-.6,22.08,0,5.18.57,16.43,4.87,21.38,6.53,5.16,1.73,16.13,8.27,20.81,11.06a76.53,76.53,0,0,1,12.87,10.47,157.7,157.7,0,0,1,11.59,13.72,131.41,131.41,0,0,1,8.49,15,114.32,114.32,0,0,1,7.23,20c1.28,5.87,2.72,18.36,2.26,24.34-.48,6.34-2.36,18.37-4.53,24.35-2.09,5.78-6.83,16.59-9.62,22.08-2.62,5.14-10.77,14.47-14.72,18.68A98.9,98.9,0,0,1,239.64,183c-4.26,2.63-12.87,7.84-17.55,9.63-5.83,2.23-16.12,6-22.34,6.66-5.07.51-17.31.91-22.38.43a151.11,151.11,0,0,1-18.55-3.83,45.47,45.47,0,0,1-5.15-1.66L174.5,171s1.63.17,4.68.74c4.49.83,6.68.27,11.24,0a106.41,106.41,0,0,0,17-2.9c4.89-1.38,13.5-5.94,17.87-8.55a76,76,0,0,0,13.09-10.58c3.15-3.17,8.33-9.83,8.33-9.83s5.49-9.63,6.92-14c1.3-4,3.57-11.17,4.08-15.35a77.64,77.64,0,0,0,0-17.24c-.91-5.73-2.83-14.75-5.23-20a72.14,72.14,0,0,0-8.06-14c-3-3.75-7.93-10.46-11.84-13.21-4.32-3-11.92-8.63-16.87-10.44-4.41-1.61-12.61-4.69-17.25-5.4-4.2-.65-11.74-1.53-16-1.2-4.83.38-13.33,1.67-17.87,3.34a93,93,0,0,0-16.19,7.91c-3.55,2.41-10,7.14-13,10.22-3.48,3.57-8.2,8.08-10.62,12.44-2.12,3.85-5.53,13.39-6.63,17.64s-2.85,8.15-3.14,12.61c-.21,3.3.27,13.93.63,17.21a90.88,90.88,0,0,0,4,16.65,57,57,0,0,0,6.66,12.42,107.78,107.78,0,0,0,9.3,11.85C138.91,154.6,150.5,162,150.5,162L28.41,296.65a11.32,11.32,0,0,1-15.64,1.1l-3.24-2.36"></path></g></g><style>.hRcXKZYo_0{stroke-dasharray:1375 1377;stroke-dashoffset:1376;animation:hRcXKZYo_draw 2000ms linear 0ms forwards;}@keyframes hRcXKZYo_draw{100%{stroke-dashoffset:0;}}@keyframes hRcXKZYo_fade{0%{stroke-opacity:1;}94.44444444444444%{stroke-opacity:1;}100%{stroke-opacity:0;}}</style><style>.YDCVPxXW_0{stroke-dasharray:1375 1377;stroke-dashoffset:1376;}.iconAbout .YDCVPxXW_0{animation:YDCVPxXW_draw 2000ms linear 0ms forwards;}@keyframes YDCVPxXW_draw{100%{stroke-dashoffset:0;}}@keyframes YDCVPxXW_fade{0%{stroke-opacity:1;}94.44444444444444%{stroke-opacity:1;}100%{stroke-opacity:0;}}</style></svg>