<svg xmlns="http://www.w3.org/2000/svg" viewBox="0 0 195.5 206.72"><defs><style>.cls-1{fill:none;stroke:#000;stroke-linecap:round;stroke-linejoin:round;stroke-width:5px;}</style></defs><title>Asset 6</title><g id="Layer_2" data-name="Layer 2"><g id="Layer_1-2" data-name="Layer 1"><path class="cls-1" d="M2.5,190.35,73.3,111s-4.14-7.46-5.4-10C66,97.23,62.08,89.68,61,85.6A79.52,79.52,0,0,1,59,68.26a90.67,90.67,0,0,1,2.7-16.18,95.62,95.62,0,0,1,6.16-15.8,88.78,88.78,0,0,1,8.87-11.94A92.87,92.87,0,0,1,88.33,13.55c3.72-2.64,11.84-7.07,16.18-8.48,3.8-1.23,11.82-2,15.8-2.31a110.86,110.86,0,0,1,15,0,89,89,0,0,1,13.87,3.08A92.65,92.65,0,0,1,162.69,12a56.71,56.71,0,0,1,9.44,7.12c2.15,2.28,7.47,7.46,9.25,10,2,2.84,4.26,8.47,5.78,11.56,1.65,3.34,3.45,10.63,4.24,14.26.87,4,1.85,12.49,1.54,16.57-.33,4.31-1.61,12.5-3.08,16.57s-4.65,11.29-6.55,15c-1.79,3.51-7.33,9.85-10,12.72a67.71,67.71,0,0,1-10.4,8.48c-2.9,1.79-8.77,5.33-11.95,6.55a85.55,85.55,0,0,1-16.57,3.85,95.94,95.94,0,0,1-13.87-.38,92.23,92.23,0,0,1-11.94-1.93c-2.5-.69-9.64-3.85-9.64-3.85l10-10.41a83.75,83.75,0,0,0,8,2.59,69.63,69.63,0,0,0,12.41.69,72.92,72.92,0,0,0,11.56-2,70.77,70.77,0,0,0,12.85-5.14,71.1,71.1,0,0,0,10.27-8.56c2.15-2.16,7.71-9.42,7.71-9.42s3.74-8.59,4.71-11.56a79.78,79.78,0,0,0,2.78-11.13,59.27,59.27,0,0,0,0-12.42c-.62-3.89-3.29-11.39-4.92-15a73.42,73.42,0,0,0-6.85-11.56,61.15,61.15,0,0,0-9.42-9,73.72,73.72,0,0,0-12.84-6.43,87.75,87.75,0,0,0-12.42-3,66.9,66.9,0,0,0-11.56-.82,64.46,64.46,0,0,0-12.84,3,71.64,71.64,0,0,0-11.7,6.06,75.67,75.67,0,0,0-8.85,7.64c-2.37,2.43-7,7.54-8.59,10.51-1.45,2.61-3.09,8.43-3.83,11.32A87.3,87.3,0,0,0,73.3,66a67.5,67.5,0,0,0,.43,9c.33,3,1,9.15,2.07,12,1.12,3,4.75,8.5,6.58,11.18a74.68,74.68,0,0,0,6.33,8.07c2.21,2.21,9.83,7.72,9.83,7.72L19.12,201.69a7.72,7.72,0,0,1-10.65.75l-3.57-3"/></g></g></svg>