<svg id="Layer_1" data-name="Layer 1" xmlns="http://www.w3.org/2000/svg" viewBox="0 0 149.5 149.36"><defs><style>.cls-1{fill:#0077b5;stroke:#000;stroke-linecap:round;stroke-miterlimit:10;stroke-width:5px;}</style></defs><title>icon_linkedin_hover</title><g id="Layer_2" data-name="Layer 2"><g id="Layer_1-2" data-name="Layer 1-2"><path class="cls-1" d="M21.35,146.86H13.13A10.63,10.63,0,0,1,2.5,136.23h0V125.6h43V56.48H38.27V47.77s2.56-1.48,3.62-2.17a17.636,17.636,0,0,0,3.63-3.14,13.834,13.834,0,0,0,1.69-4.11,20.867,20.867,0,0,0,0-5.8,19.307,19.307,0,0,0-1.93-5.08,16.416,16.416,0,0,0-3.39-3.62,18.82,18.82,0,0,0-5.31-2.18,10.29,10.29,0,0,0-4.35,0,16.6,16.6,0,0,0-4.6,1.94,19.244,19.244,0,0,0-2.9,2.66,24.035,24.035,0,0,0-2.65,4.35,33.538,33.538,0,0,0-.25,5.31A26.455,26.455,0,0,0,23,41.25c.55,1.5,2.69,3,3.87,4.11.84.77,2.9,2.41,2.9,2.41v8.95h-6v58H2.5V13.13A10.63,10.63,0,0,1,13.13,2.5H136.39A10.63,10.63,0,0,1,147,13.13v123.1a10.63,10.63,0,0,1-10.63,10.63H126V77.74c0-10.14-9.19-23.2-19.34-23.2,0,0-7.76-.41-10.63,0a23.739,23.739,0,0,0-5.8,1.69,40.331,40.331,0,0,0-5.32,3.63c-1.15,1-3.31,3.28-4.43,4.35-.57.55-1.35,2.82-1.37,2.17V56.72H58.81v68.15H81.45V83.38a9.66,9.66,0,0,1,9.66-9.66h3.23A9.66,9.66,0,0,1,104,83.38v41.73h11.11v21.75h-80"/></g></g></svg>