<svg xmlns="http://www.w3.org/2000/svg" viewBox="0 0 237.04 163"><defs><style>.cls-1{fill:none;stroke:#000;stroke-linecap:round;stroke-linejoin:round;stroke-width:5px;}</style></defs><title>Asset 2</title><g id="Layer_2" data-name="Layer 2"><g id="Layer_1-2" data-name="Layer 1"><path class="cls-1" d="M144,4.82,2.5,73.33,44.23,160.5l49-23L83,117.13,59.85,128.26,39.45,85.6l103.87-51,19.47,41.74L93.24,112.49l10.2,20.41,87.15-43.58a7.88,7.88,0,0,0,2.08-1.5c5.66-5.67,35.39-35.91,40-50a48.23,48.23,0,0,0,1.85-11.13,24.3,24.3,0,0,0-1.85-8.34c-1.18-2.21-6-4.58-8.35-5.57-2-.84-10.34-2.85-10.34-2.85L201,8.06v17a26.25,26.25,0,0,1,3.71,1.85,20.14,20.14,0,0,1,4.64,5.57,21,21,0,0,1,.93,7.42c-.13,1.68-.86,5.12-1.86,6.49a14.25,14.25,0,0,1-5.56,3.71,20.56,20.56,0,0,1-7.42,0A19.07,19.07,0,0,1,189,47.3a16,16,0,0,1-4.18-6.49,15.32,15.32,0,0,1,.47-7.42c.75-1.81,3-5.34,4.64-6.49.84-.6,2.78-1.85,2.78-1.85V7.14L156.5,2.5"/></g></g></svg>