<!--?xml version="1.0" encoding="utf-8"?-->
<!-- Generator: Adobe Illustrator 22.0.1, SVG Export Plug-In . SVG Version: 6.00 Build 0)  -->
<svg version="1.1" id="Layer_1" xmlns="http://www.w3.org/2000/svg" xmlns:xlink="http://www.w3.org/1999/xlink" x="0px" y="0px" viewBox="0 0 313.5 313.5" style="" xml:space="preserve">
<style type="text/css">
	.st0{fill:none;stroke:#000000;stroke-width:8;stroke-linecap:round;stroke-miterlimit:10;}
</style>
<title>Asset 11</title>
<g id="Layer_2_1_">
	<g id="Layer_1-2">
		<path class="st0 tbJkLMwY_0 pgfsPjeY_0" d="M8,309.5L8,281L28.7,281L28.7,306.3L85.4,306.3L85.4,281L137.7,281L137.7,306.3L305.5,306.3L
			305.5,240.6L137.7,240.6L137.7,265.9L85.4,265.9L85.4,240.6L28.7,240.6L28.7,265.9L8,265.9L8,227.3L8,164.7L28.7,164.7L28.7,190L
			85.4,190L85.4,164.7L137.7,164.7L137.7,190L305.5,190L305.5,124.2L137.7,124.2L137.7,149.5L85.4,149.5L85.4,124.2L28.7,124.2L
			28.7,149.5L8,149.5L8,108.4L8,107.1L8,48.3L28.7,48.3L28.7,73.6L85.4,73.6L85.4,48.3L137.7,48.3L137.7,73.6L305.5,73.6L305.5,7.8L
			137.7,7.8L137.7,33.1L85.4,33.1L85.4,7.8L28.7,7.8L28.7,33.1L8,33.1L8,4"></path>
	</g>
</g>
<style>.tbJkLMwY_0{stroke-dasharray:2698 2700;stroke-dashoffset:2699;animation:tbJkLMwY_draw 2000ms linear 0ms forwards;}@keyframes tbJkLMwY_draw{100%{stroke-dashoffset:0;}}@keyframes tbJkLMwY_fade{0%{stroke-opacity:1;}94.44444444444444%{stroke-opacity:1;}100%{stroke-opacity:0;}}</style><style></style></svg>
