<!--?xml version="1.0" encoding="utf-8"?-->
<!-- Generator: Adobe Illustrator 22.0.1, SVG Export Plug-In . SVG Version: 6.00 Build 0)  -->
<svg version="1.1" id="Layer_1" xmlns="http://www.w3.org/2000/svg" xmlns:xlink="http://www.w3.org/1999/xlink" x="0px" y="0px" viewBox="0 0 305.5 305.5" style="" xml:space="preserve">
<style type="text/css">
	.st0{fill:none;stroke:#000000;stroke-width:8;stroke-linecap:round;stroke-miterlimit:10;}
</style>
<title>Asset 15</title>
<g id="Layer_2_1_">
	<g id="Layer_1-2">
		<path class="st0 hKhkFdra_0 xpFjkYMy_0" d="M194.3,295.9c0,0-7.1-0.2-9.5,1.9c-0.2,0.2-0.5,0.3-0.7,0.4l-14.9,3.3c-0.1,0-0.2,0-0.4,0h-22.2l-14.9-1.6
			c-0.9,0-1.7-0.1-2.6-0.3c-2-1.2-4.2-2-6.5-2.3c-0.8-0.6-0.9-1.7-0.3-2.4c0.3-0.4,0.7-0.6,1.2-0.7l71-14.1c0.9-0.2,1.5-1.1,1.4-2
			c-0.1-0.8-0.8-1.4-1.6-1.4h-75.6c-0.9,0-1.7-0.8-1.7-1.7c0-0.7,0.4-1.3,1.1-1.6l76.2-26c0.9-0.4,1.3-1.4,0.9-2.2
			c-0.3-0.6-0.9-1.1-1.6-1.1H119c-0.9,0-1.7-0.7-1.7-1.7c0-0.7,0.4-1.4,1.1-1.6l76.3-27.7c0.9-0.4,1.3-1.4,0.9-2.2
			c-0.3-0.6-0.9-1.1-1.6-1.1h-79v-18.8c0,0-6.1-15.6-8.6-20.6c-3.4-7.1-11.5-20.6-15.4-27.4c-3.4-6-10.8-17.7-13.7-24
			c-2.2-4.6-6-13.9-6.9-18.9c-0.6-3.4,0-13.7,0-13.7h36c0,0,1.5-14.5,3.4-18.9c1.7-3.9,7.3-10.7,10.3-13.7s9.9-8.5,13.7-10.3
			c4.8-2.3,19-2.7,22.3-6.9c2.1-2.7,0.7-9.6-1.7-12c-1.8-1.8-7.7-0.4-10.3,0c-5.9,1.1-11.6,2.8-17.2,5.1
			c-5.5,2.9-10.7,6.3-15.4,10.3c-3.8,3.6-7.3,7.6-10.3,12c-2.8,4.9-5.1,10.1-6.9,15.4c-0.4,1.2-1,2.4-1.7,3.4H72.1
			c0,0,3-10.5,5.1-15.4s7.1-14.6,10.3-18.9c2.5-3.4,8.8-9.3,12-12c5.4-4.4,11.1-8.4,17.2-12c5.5-2.8,11.2-5.1,17.1-6.8
			c4.2-1,12.8-1.7,17.1-1.7c5.6-0.1,16.8,0.5,22.3,1.7c4.7,1.3,9.3,3,13.7,5.1c6,3,11.7,6.4,17.1,10.3c4.8,3.7,13.5,12.3,17.1,17.1
			c4.1,5.9,7.5,12.2,10.3,18.9c2.4,6.7,4.1,13.6,5.1,20.6c0.6,5.1,1.1,15.5,0,20.6c-0.9,4.1-5.1,11.6-6.9,15.4
			c-2.1,4.7-6.2,14.2-8.6,18.9c-2,3.9-6.4,11.6-8.6,15.4c-2.5,4.3-8,12.7-10.3,17.1c-2.5,5-8.6,20.6-8.6,20.6v3.9"></path>
	</g>
</g>
<style>.hKhkFdra_0{stroke-dasharray:1287 1289;stroke-dashoffset:1288;animation:hKhkFdra_draw 2000ms linear 0ms forwards;}@keyframes hKhkFdra_draw{100%{stroke-dashoffset:0;}}@keyframes hKhkFdra_fade{0%{stroke-opacity:1;}94.44444444444444%{stroke-opacity:1;}100%{stroke-opacity:0;}}</style><style></style></svg>
