<svg xmlns="http://www.w3.org/2000/svg" viewBox="0 0 207 212"><defs><style>.cls-1{fill:none;stroke:#000;stroke-linecap:round;stroke-linejoin:round;stroke-width:5px;}</style></defs><title>Asset 10</title><g id="Layer_2" data-name="Layer 2"><g id="Layer_1-2" data-name="Layer 1"><polyline class="cls-1" points="63.5 209.5 176.5 209.5 176.5 188.5 171.5 182.5 153.5 177.5 142.5 177.5 132.5 177.5 122.5 168.5 119.5 152.5 126.5 138.5 145.5 132.5 156.5 120.5 165.5 101.5 167.5 90.5 189.5 88.5 200.5 78.5 204.5 66.5 204.5 49.5 200.5 37.5 186.5 30.5 175.5 30.5 175.5 44.5 185.5 45.5 191.5 53.5 191.5 64.5 184.5 75.5 171.5 75.5 167.5 64.5 167.5 30 187.5 2.5 93.5 2.5 19.5 2.5 39.5 27 39.5 64.5 35.5 75.5 22.5 75.5 15.5 64.5 15.5 53.5 21.5 45.5 31.5 44.5 31.5 30.5 20.5 30.5 6.5 37.5 2.5 49.5 2.5 66.5 6.5 78.5 17.5 88.5 39.5 90.5 41.5 101.5 50.5 120.5 61.5 132.5 80.5 138.5 87.5 152.5 84.5 168.5 74.5 177.5 64.5 177.5 53.5 177.5 35.5 182.5 30.5 188.5 30.5 209.5 43.5 209.5"/></g></g></svg>