<!--?xml version="1.0" encoding="utf-8"?-->
<!-- Generator: Adobe Illustrator 22.0.1, SVG Export Plug-In . SVG Version: 6.00 Build 0)  -->
<svg version="1.1" id="Layer_1" xmlns="http://www.w3.org/2000/svg" xmlns:xlink="http://www.w3.org/1999/xlink" x="0px" y="0px" viewBox="0 0 305.6 305.6" style="" xml:space="preserve">
<style type="text/css">
	.st0{fill:none;stroke:#000000;stroke-width:8;stroke-linecap:round;stroke-miterlimit:10;}
</style>
<title>Asset 13</title>
<g id="Layer_2_1_">
	<g id="Layer_1-2">
		<path class="st0 KJtKTdjf_0 nJTPIQaX_0" d="M170,91H4.4L4,284.9h194.3V162.2l-84.4,91.6l-73.2-75.3c-6.1-6.3-6-16.4,0.3-22.5c0.3-0.3,0.6-0.6,0.9-0.8
			l13.6-11.4c6.4-5.3,15.9-4.8,21.7,1.2l35.1,36.3L260.6,25.7c6.1-6.4,16.1-6.6,22.5-0.6c0,0,0,0,0,0l13.6,13
			c6.4,6.1,6.6,16.2,0.5,22.5c0,0,0,0,0,0l-81.3,84.8"></path>
	</g>
</g>
<style>.KJtKTdjf_0{stroke-dasharray:1426 1428;stroke-dashoffset:1427;animation:KJtKTdjf_draw 2000ms linear 0ms forwards;}@keyframes KJtKTdjf_draw{100%{stroke-dashoffset:0;}}@keyframes KJtKTdjf_fade{0%{stroke-opacity:1;}94.44444444444444%{stroke-opacity:1;}100%{stroke-opacity:0;}}</style><style></style></svg>
