<!--?xml version="1.0" encoding="utf-8"?-->
<!-- Generator: Adobe Illustrator 22.0.1, SVG Export Plug-In . SVG Version: 6.00 Build 0)  -->
<svg version="1.1" id="Layer_1" xmlns="http://www.w3.org/2000/svg" xmlns:xlink="http://www.w3.org/1999/xlink" x="0px" y="0px" viewBox="0 0 309.2 309.2" style="" xml:space="preserve">
<style type="text/css">
	.st0{fill:none;stroke:#000000;stroke-width:8;stroke-linecap:round;stroke-linejoin:round;}
</style>
<title>Asset 12</title>
<g id="Layer_2_1_">
	<g id="Layer_1-2">
		<path class="st0 OySrbUst_0 RyoArhek_0" d="M252.7,4L27.2,4L27.2,55.5L64.2,55.5L64.2,29.1L239.9,29.1L239.9,120.2L64.2,120.2L64.2,76.7L
			27.2,76.7L27.2,149.3L114.4,149.3L114.4,174.4L27.2,174.4L27.2,196.9L169.9,196.9L169.9,220.6L27.2,220.6L27.2,305.2L73.4,305.2L
			73.4,278.8L53.6,278.8L53.6,241.8L154,241.8L154,278.8L89.3,278.8L89.3,305.2L180.4,305.2L218.8,305.2L218.8,278.8L172.5,278.8L
			172.5,241.8L257.1,241.8L257.1,278.8L235.9,278.8L235.9,305.2L278.2,305.2L278.2,4"></path>
	</g>
</g>
<style>.OySrbUst_0{stroke-dasharray:2662 2664;stroke-dashoffset:2663;animation:OySrbUst_draw 2000ms linear 0ms forwards;}@keyframes OySrbUst_draw{100%{stroke-dashoffset:0;}}@keyframes OySrbUst_fade{0%{stroke-opacity:1;}94.44444444444444%{stroke-opacity:1;}100%{stroke-opacity:0;}}</style><style></style></svg>
