<!--?xml version="1.0" encoding="utf-8"?-->
<!-- Generator: Adobe Illustrator 22.0.1, SVG Export Plug-In . SVG Version: 6.00 Build 0)  -->
<svg version="1.1" id="Layer_1" xmlns="http://www.w3.org/2000/svg" xmlns:xlink="http://www.w3.org/1999/xlink" x="0px" y="0px" viewBox="0 0 304.5 304.5" style="" xml:space="preserve">
<style type="text/css">
	.st0{fill:none;stroke:#000000;stroke-width:8;stroke-linecap:round;stroke-linejoin:round;}
</style>
<title>Asset 14</title>
<g id="Layer_2_1_">
	<g id="Layer_1-2">
		<path class="st0 GlNEhDXp_0 jBmcPJdj_0" d="M174.5,70.3L4,153.1l53.3,111.4l62.6-29.4l-13-26.1l-29.7,14.2l-26.1-54.5l132.7-65.2l24.9,53.3l-80.9,42.2
			l13,26.1l103.4-51.7c1-0.5,1.9-1.1,2.7-1.9c7.2-7.2,45.2-45.9,51.1-63.9c1.3-4.6,2.1-9.4,2.4-14.2c0-2.7-1.1-8.3-2.4-10.7
			c-1.5-2.8-7.7-5.9-10.7-7.1c-2.5-1.1-13.2-3.7-13.2-3.7l-13.6-1.4v21.7l1.7,1.4c1.8,1.4,5,5,5.9,7.1s1.4,7.1,1.2,9.5
			c-0.2,2.1-1.1,6.5-2.4,8.3c-1.3,1.7-5.1,4.1-7.1,4.7c-2.3,0.7-7.2,0.5-9.5,0s-6.6-2.1-8.3-3.6c-2.4-2.3-4.2-5.1-5.3-8.2
			c-0.6-3.2-0.4-6.4,0.6-9.5c1-2.3,3.9-6.8,5.9-8.3c1.1-0.8,0.6-2.4,0.6-2.4V68.5l-43.2-5.9"></path>
	</g>
</g>
<style>.GlNEhDXp_0{stroke-dasharray:1277 1279;stroke-dashoffset:1278;animation:GlNEhDXp_draw 2000ms linear 0ms forwards;}@keyframes GlNEhDXp_draw{100%{stroke-dashoffset:0;}}@keyframes GlNEhDXp_fade{0%{stroke-opacity:1;}94.44444444444444%{stroke-opacity:1;}100%{stroke-opacity:0;}}</style><style></style></svg>
