<!--?xml version="1.0" encoding="utf-8"?-->
<!-- Generator: Adobe Illustrator 22.0.1, SVG Export Plug-In . SVG Version: 6.00 Build 0)  -->
<svg version="1.1" id="Layer_1" xmlns="http://www.w3.org/2000/svg" xmlns:xlink="http://www.w3.org/1999/xlink" x="0px" y="0px" viewBox="0 0 305.5 305.5" style="" xml:space="preserve">
<style type="text/css">
	.st0{fill:none;stroke:#000000;stroke-width:8;stroke-linecap:round;stroke-miterlimit:10;}
</style>
<title>Asset 17</title>
<g id="Layer_2_1_">
	<g id="Layer_1-2">
		<path class="st0 aFuxczRj_0 ZIFaBNeD_0" d="M256.4,293.8c0,0,0.6-12.4-1.5-21.5l-23-69.1c-0.6-1.9-2.4-3.3-4.4-3.3H97.1c-3.5,0,4.9-17.9,4.9-17.9
			c0.8-1.6,2.4-2.6,4.1-2.6h110.5c2.6,0,4.6-2.1,4.6-4.6c0-0.5-0.1-1-0.3-1.5l-37.6-97.9V4h-61.9v71.4c0,0-62.2,158-71.4,196.9
			c-0.6,2.6-1,5.3-1.2,8c-0.7,11,7.7,20.5,18.8,21.2c0.4,0,0.8,0,1.2,0h172.7"></path>
	</g>
</g>
<style>.aFuxczRj_0{stroke-dasharray:1108 1110;stroke-dashoffset:1109;animation:aFuxczRj_draw 2000ms linear 0ms forwards;}@keyframes aFuxczRj_draw{100%{stroke-dashoffset:0;}}@keyframes aFuxczRj_fade{0%{stroke-opacity:1;}94.44444444444444%{stroke-opacity:1;}100%{stroke-opacity:0;}}</style><style></style></svg>
