<svg xmlns="http://www.w3.org/2000/svg" viewBox="0 0 149.2 149"><defs><style>.cls-1{fill:none;stroke:#000;stroke-linecap:round;stroke-miterlimit:10;stroke-width:5px;}</style></defs><title>Asset 1</title><g id="Layer_2" data-name="Layer 2"><g id="Layer_1-2" data-name="Layer 1"><path class="cls-1" d="M19.37,146.5H10.5a8,8,0,0,1-8-8V10.5a8,8,0,0,1,8-8H138.7a8,8,0,0,1,8,8v128a8,8,0,0,1-8,8H102l-.33-56h19l2.67-20.67H101.7V54.17a10,10,0,0,1,10-10H124V23.83H103.7a25,25,0,0,0-25,25V69.17H60.37v21h19V146.5H32.7"/></g></g></svg>