<svg id="Layer_1" data-name="Layer 1" xmlns="http://www.w3.org/2000/svg" viewBox="0 0 149.2 149.33"><defs><style>.cls-1{fill:#8e8e8e;stroke:#000;stroke-linecap:round;stroke-miterlimit:10;stroke-width:5px;}</style></defs><title>icon_email_hover</title><g id="Layer_2" data-name="Layer 2"><g id="Layer_1-2" data-name="Layer 1-2"><path class="cls-1" d="M14,146.83H10.5a8,8,0,0,1-8-8V10.5a8,8,0,0,1,8-8H138.7a8,8,0,0,1,8,8V90.83h-11a1,1,0,0,1-1-1V47.68a1,1,0,0,0-1.65-.75L82.83,91.13a4,4,0,0,1-2.62,1H78.7V85.37a3,3,0,0,1,1-2.27L129,39.53c.71-.61.9-.63.46-1.45a13.817,13.817,0,0,0-.94-1.58,21.573,21.573,0,0,0-2.09-2,2,2,0,0,0-1.32-.49H23.7a2,2,0,0,0-1.2.4,21.586,21.586,0,0,0-2.13,1.77,11.986,11.986,0,0,0-1.08,1.52c-.54.83-.38.94.38,1.59l50,43.82a3,3,0,0,1,1,2.28V92.1h-.84a4,4,0,0,1-2.62-1L16.52,46.27a1,1,0,0,0-1.65.75V101.1a1,1,0,0,0,1.66.75L41.7,80.5l6,5.5L20.42,109.73a2.6,2.6,0,0,0-.89,2v-1c0,.83.4,2.6,1.07,3.09a11.707,11.707,0,0,0,4.56,1.06h98.55c.86,0,5.45-2.06,5.45-2.06a2.581,2.581,0,0,0,1-2.07v1a2.58,2.58,0,0,0-.88-1.94L101.57,86l5.63-5.5L133,102a2,2,0,0,0,1.66.3h12v36.5a8,8,0,0,1-8,8H27.2"/></g></g></svg>