<svg xmlns="http://www.w3.org/2000/svg" viewBox="0 0 167.5 200"><defs><style>.cls-1{fill:none;stroke:#000;stroke-linecap:round;stroke-linejoin:round;stroke-width:5px;}</style></defs><title>Asset 3</title><g id="Layer_2" data-name="Layer 2"><g id="Layer_1-2" data-name="Layer 1"><polyline class="cls-1" points="150.46 2.5 2.5 2.5 2.5 35.85 26.45 35.85 26.45 18.75 140.2 18.75 140.2 77.76 26.45 77.76 26.45 49.54 2.5 49.54 2.5 96.58 58.95 96.58 58.95 112.83 2.5 112.83 2.5 127.37 94.87 127.37 94.87 142.76 2.5 142.76 2.5 197.5 32.43 197.5 32.43 180.4 19.61 180.4 19.61 156.45 84.61 156.45 84.61 180.4 42.7 180.4 42.7 197.5 101.71 197.5 126.51 197.5 126.51 180.4 96.58 180.4 96.58 156.45 151.32 156.45 151.32 180.4 137.63 180.4 137.63 197.5 165 197.5 165 2.5"/></g></g></svg>