<svg xmlns="http://www.w3.org/2000/svg" viewBox="0 0 102.53 178.5"><defs><style>.cls-1{fill:none;stroke:#000;stroke-linecap:round;stroke-miterlimit:10;stroke-width:5px;}</style></defs><title>Asset 4</title><g id="Layer_2" data-name="Layer 2"><g id="Layer_1-2" data-name="Layer 1"><path class="cls-1" d="M73.15,171s-2.36,1.64-3.81,2.85a1.11,1.11,0,0,1-.42.21L60.26,176,60,176H47.1l-8.67-1a8,8,0,0,1-1.49-.19,9.12,9.12,0,0,0-3.78-1.34,1,1,0,0,1,.48-1.79l41.43-8.22a1,1,0,0,0-.16-2H30.8a1,1,0,0,1-.38-1.92l44.47-15.15a1,1,0,0,0-.38-1.93H31a1,1,0,0,1-.36-1.93l44.52-16.15a1,1,0,0,0-.39-1.92H28.65v-11s-3.57-9.08-5-12c-2-4.12-6.73-12-9-16-2-3.5-6.3-10.34-8-14-1.23-2.65-3.49-8.12-4-11a60.67,60.67,0,0,1,0-8h21s.89-8.44,2-11c1-2.29,4.24-6.23,6-8a40.22,40.22,0,0,1,8-6c2.8-1.33,11.1-1.56,13-4,1.24-1.57.42-5.58-1-7-1.06-1.06-4.51-.22-6,0a48,48,0,0,0-10,3,51.46,51.46,0,0,0-9,6,44.54,44.54,0,0,0-6,7,52.49,52.49,0,0,0-4,9,6.71,6.71,0,0,1-1,2h-12s1.74-6.1,3-9a73.16,73.16,0,0,1,6-11,58.58,58.58,0,0,1,7-7,81.17,81.17,0,0,1,10-7,56.71,56.71,0,0,1,10-4,59.78,59.78,0,0,1,10-1,77.34,77.34,0,0,1,13,1,48.78,48.78,0,0,1,8,3,73.14,73.14,0,0,1,10,6,71.06,71.06,0,0,1,10,10,61.39,61.39,0,0,1,6,11,65.25,65.25,0,0,1,3,12c.37,3,.63,9.07,0,12-.51,2.41-3,6.76-4,9-1.23,2.76-3.64,8.31-5,11-1.15,2.3-3.71,6.77-5,9-1.45,2.53-4.68,7.4-6,10-1.46,2.9-5,12-5,12v4"/></g></g></svg>