<!--?xml version="1.0" encoding="utf-8"?-->
<!-- Generator: Adobe Illustrator 22.0.1, SVG Export Plug-In . SVG Version: 6.00 Build 0)  -->
<svg version="1.1" id="Layer_1" xmlns="http://www.w3.org/2000/svg" xmlns:xlink="http://www.w3.org/1999/xlink" x="0px" y="0px" viewBox="0 0 537.7 268.8" style="" xml:space="preserve">
<style type="text/css">
	.st0{fill:none;stroke:#000000;stroke-width:4;stroke-miterlimit:10;}
	.st1{fill:none;stroke:#7F651B;stroke-width:3;stroke-miterlimit:10;}
</style>
<path class="st0 oIjiYEeR_0" d="M91,14.3L129.7,14.3L129.7,24L159,24L159,5L216.3,5L216.3,33.3L197.3,33.3L197.3,63.3L216.3,63.3L
	216.3,92L254.3,92L254.3,129.7L100.3,129.7L100.3,177.3L168.7,177.3L168.7,206.7L206,206.7L206,246L283.3,246L283.3,216.3L
	331,216.3L331,246L369.7,246L369.7,178.3L436.7,178.3L436.7,110.7L417.3,110.7L417.3,80.7L427.7,80.7L427.7,42.3L455.3,42.3L
	455.3,91.7L503,91.7L503,62.7"></path>
<path class="st1 oIjiYEeR_1" d="M91,14.3L129.7,14.3L129.7,24L159,24L159,5L216.3,5L216.3,33.3L197.3,33.3L197.3,63.3L216.3,63.3L
	216.3,92L254.3,92L254.3,129.7L100.3,129.7L100.3,177.3L168.7,177.3L168.7,206.7L206,206.7L206,246L283.3,246L283.3,216.3L
	331,216.3L331,246L369.7,246L369.7,178.3L436.7,178.3L436.7,110.7L417.3,110.7L417.3,80.7L427.7,80.7L427.7,42.3L455.3,42.3L
	455.3,91.7L503,91.7L503,62.7"></path>
<style>.oIjiYEeR_0{stroke-dasharray:1409 1411;stroke-dashoffset:1410;animation:oIjiYEeR_draw 30000ms linear 0ms forwards;}.oIjiYEeR_1{stroke-dasharray:1409 1411;stroke-dashoffset:1410;animation:oIjiYEeR_draw 30000ms linear 0ms forwards;}@keyframes oIjiYEeR_draw{100%{stroke-dashoffset:0;}}@keyframes oIjiYEeR_fade{0%{stroke-opacity:1;}98.83040935672514%{stroke-opacity:1;}100%{stroke-opacity:0;}}</style></svg>
