<!--?xml version="1.0" encoding="utf-8"?-->
<!-- Generator: Adobe Illustrator 22.0.1, SVG Export Plug-In . SVG Version: 6.00 Build 0)  -->
<svg version="1.1" id="Layer_1" xmlns="http://www.w3.org/2000/svg" xmlns:xlink="http://www.w3.org/1999/xlink" x="0px" y="0px" viewBox="0 0 383.9 422.5" style="" xml:space="preserve">
<style type="text/css">
	.st0{fill:none;stroke:#000000;stroke-width:4;stroke-miterlimit:10;}
	.st1{fill:none;stroke:#7F651B;stroke-width:3;stroke-miterlimit:10;}
</style>
<path class="st0 npEchbZk_0" d="M100.7,24.3L100.7,43.3L91,43.3L91,91.3L52.3,91.3L52.3,80.7L33.3,80.7L33.3,110.7L91,110.7L91,150L
	111,150L111,91L196.7,91L196.7,139.3L217.3,139.3L217.3,100.3L292.3,100.3L292.3,169L283,169L283,205.7L311,205.7L311,178L360,178L
	360,274L350,274L350,351L321.3,351L321.3,360L282.3,360L282.3,340.3L244,340.3L244,284L206.7,284L206.7,207L101.7,207L101.7,245.3L
	91,245.3L91,351.7"></path>
<path class="st1 npEchbZk_1" d="M100.7,24.3L100.7,43.3L91,43.3L91,91.3L52.3,91.3L52.3,80.7L33.3,80.7L33.3,110.7L91,110.7L91,150L
	111,150L111,91L196.7,91L196.7,139.3L217.3,139.3L217.3,100.3L292.3,100.3L292.3,169L283,169L283,205.7L311,205.7L311,178L360,178L
	360,274L350,274L350,351L321.3,351L321.3,360L282.3,360L282.3,340.3L244,340.3L244,284L206.7,284L206.7,207L101.7,207L101.7,245.3L
	91,245.3L91,351.7"></path>
<style>.npEchbZk_0{stroke-dasharray:1588 1590;stroke-dashoffset:1589;animation:npEchbZk_draw 30000ms linear 0ms forwards;}.npEchbZk_1{stroke-dasharray:1588 1590;stroke-dashoffset:1589;animation:npEchbZk_draw 30000ms linear 0ms forwards;}@keyframes npEchbZk_draw{100%{stroke-dashoffset:0;}}@keyframes npEchbZk_fade{0%{stroke-opacity:1;}98.83040935672514%{stroke-opacity:1;}100%{stroke-opacity:0;}}</style></svg>
