<!--?xml version="1.0" encoding="utf-8"?-->
<!-- Generator: Adobe Illustrator 22.0.1, SVG Export Plug-In . SVG Version: 6.00 Build 0)  -->
<svg version="1.1" id="Layer_1" xmlns="http://www.w3.org/2000/svg" xmlns:xlink="http://www.w3.org/1999/xlink" x="0px" y="0px" viewBox="0 0 307.3 499.2" style="" xml:space="preserve">
<style type="text/css">
	.st0{fill:none;stroke:#000000;stroke-width:4;stroke-miterlimit:10;}
	.st1{fill:none;stroke:#7F651B;stroke-width:3;stroke-miterlimit:10;}
</style>
<path class="st0 SxngCSJk_0" d="M101,24.5L101,63.5L159,63.5L159,44L121,44L121,15.5L177.5,15.5L177.5,102L216,102L216,179L101,179L
	101,255L168,255L168,245.5L244.5,245.5L244.5,236L282.5,236L282.5,255L235.2,255L235.2,273.5L215,273.5L215,350L235,350L235,369L
	292,369L292,439L215.5,439L215.5,408L177,408L177,389L149,389L149,360.5L91,360.5L91,399L33,399L33,417.5L101,417.5L101,465.5L
	71.5,465.5"></path>
<path class="st1 SxngCSJk_1" d="M101,24.5L101,63.5L159,63.5L159,44L121,44L121,15.5L177.5,15.5L177.5,102L216,102L216,179L101,179L
	101,255L168,255L168,245.5L244.5,245.5L244.5,236L282.5,236L282.5,255L235.2,255L235.2,273.5L215,273.5L215,350L235,350L235,369L
	292,369L292,439L215.5,439L215.5,408L177,408L177,389L149,389L149,360.5L91,360.5L91,399L33,399L33,417.5L101,417.5L101,465.5L
	71.5,465.5"></path>
<style>.SxngCSJk_0{stroke-dasharray:1721 1723;stroke-dashoffset:1722;animation:SxngCSJk_draw 30000ms linear 0ms forwards;}.SxngCSJk_1{stroke-dasharray:1721 1723;stroke-dashoffset:1722;animation:SxngCSJk_draw 30000ms linear 0ms forwards;}@keyframes SxngCSJk_draw{100%{stroke-dashoffset:0;}}@keyframes SxngCSJk_fade{0%{stroke-opacity:1;}98.83040935672514%{stroke-opacity:1;}100%{stroke-opacity:0;}}</style></svg>
