<?xml version="1.0" encoding="utf-8"?>
<!-- Generator: Adobe Illustrator 22.0.1, SVG Export Plug-In . SVG Version: 6.00 Build 0)  -->
<svg version="1.1" id="Layer_1" xmlns="http://www.w3.org/2000/svg" xmlns:xlink="http://www.w3.org/1999/xlink" x="0px" y="0px"
	 viewBox="0 0 307.3 499.2" style="enable-background:new 0 0 307.3 499.2;" xml:space="preserve">
<style type="text/css">
	.st0{fill:none;stroke:#000000;stroke-width:4;stroke-miterlimit:10;}
	.st1{fill:none;stroke:#7F651B;stroke-width:3;stroke-miterlimit:10;}
</style>
<polyline class="st0" points="101,24.5 101,63.5 159,63.5 159,44 121,44 121,15.5 177.5,15.5 177.5,102 216,102 216,179 101,179 
	101,255 168,255 168,245.5 244.5,245.5 244.5,236 282.5,236 282.5,255 235.2,255 235.2,273.5 215,273.5 215,350 235,350 235,369 
	292,369 292,439 215.5,439 215.5,408 177,408 177,389 149,389 149,360.5 91,360.5 91,399 33,399 33,417.5 101,417.5 101,465.5 
	71.5,465.5 "/>
<polyline class="st1" points="101,24.5 101,63.5 159,63.5 159,44 121,44 121,15.5 177.5,15.5 177.5,102 216,102 216,179 101,179 
	101,255 168,255 168,245.5 244.5,245.5 244.5,236 282.5,236 282.5,255 235.2,255 235.2,273.5 215,273.5 215,350 235,350 235,369 
	292,369 292,439 215.5,439 215.5,408 177,408 177,389 149,389 149,360.5 91,360.5 91,399 33,399 33,417.5 101,417.5 101,465.5 
	71.5,465.5 "/>
</svg>
