<!--?xml version="1.0" encoding="utf-8"?-->
<!-- Generator: Adobe Illustrator 22.0.1, SVG Export Plug-In . SVG Version: 6.00 Build 0)  -->
<svg version="1.1" id="Layer_1" xmlns="http://www.w3.org/2000/svg" xmlns:xlink="http://www.w3.org/1999/xlink" x="0px" y="0px" viewBox="0 0 230.5 851.6" style="" xml:space="preserve">
<style type="text/css">
	.st0{fill:none;stroke:#000000;stroke-width:4;stroke-miterlimit:10;}
	.st1{fill:none;stroke:#7F651B;stroke-width:3;stroke-miterlimit:10;}
</style>
<path class="st0 sYoJGfXd_0" d="M101,24v20h29v9h9v40h-29V73H92v20H34v28h29v28H16v38h44v29h70v105H90v50h11v38h57v57h10v67h-21v45h-37v70h17
	v66h-16v67"></path>
<path class="st1 sYoJGfXd_1" d="M101,24v20h29v9h9v40h-29V73H92v20H34v28h29v28H16v38h44v29h70v105H90v50h11v38h57v57h10v67h-21v45h-37v70h17
	v66h-16v67"></path>
<style>.sYoJGfXd_0{stroke-dasharray:1339 1341;stroke-dashoffset:1340;animation:sYoJGfXd_draw 30000ms linear 0ms forwards;}.sYoJGfXd_1{stroke-dasharray:1339 1341;stroke-dashoffset:1340;animation:sYoJGfXd_draw 30000ms linear 0ms forwards;}@keyframes sYoJGfXd_draw{100%{stroke-dashoffset:0;}}@keyframes sYoJGfXd_fade{0%{stroke-opacity:1;}98.83040935672514%{stroke-opacity:1;}100%{stroke-opacity:0;}}</style></svg>
