<?xml version="1.0" encoding="utf-8"?>
<!-- Generator: Adobe Illustrator 22.0.1, SVG Export Plug-In . SVG Version: 6.00 Build 0)  -->
<svg version="1.1" id="Layer_1" xmlns="http://www.w3.org/2000/svg" xmlns:xlink="http://www.w3.org/1999/xlink" x="0px" y="0px"
	 viewBox="0 0 537.7 268.8" style="enable-background:new 0 0 537.7 268.8;" xml:space="preserve">
<style type="text/css">
	.st0{fill:none;stroke:#000000;stroke-width:4;stroke-miterlimit:10;}
	.st1{fill:none;stroke:#7F651B;stroke-width:3;stroke-miterlimit:10;}
</style>
<polyline class="st0" points="91,14.3 129.7,14.3 129.7,24 159,24 159,5 216.3,5 216.3,33.3 197.3,33.3 197.3,63.3 216.3,63.3 
	216.3,92 254.3,92 254.3,129.7 100.3,129.7 100.3,177.3 168.7,177.3 168.7,206.7 206,206.7 206,246 283.3,246 283.3,216.3 
	331,216.3 331,246 369.7,246 369.7,178.3 436.7,178.3 436.7,110.7 417.3,110.7 417.3,80.7 427.7,80.7 427.7,42.3 455.3,42.3 
	455.3,91.7 503,91.7 503,62.7 "/>
<polyline class="st1" points="91,14.3 129.7,14.3 129.7,24 159,24 159,5 216.3,5 216.3,33.3 197.3,33.3 197.3,63.3 216.3,63.3 
	216.3,92 254.3,92 254.3,129.7 100.3,129.7 100.3,177.3 168.7,177.3 168.7,206.7 206,206.7 206,246 283.3,246 283.3,216.3 
	331,216.3 331,246 369.7,246 369.7,178.3 436.7,178.3 436.7,110.7 417.3,110.7 417.3,80.7 427.7,80.7 427.7,42.3 455.3,42.3 
	455.3,91.7 503,91.7 503,62.7 "/>
</svg>
