<!--?xml version="1.0" encoding="utf-8"?-->
<!-- Generator: Adobe Illustrator 22.0.1, SVG Export Plug-In . SVG Version: 6.00 Build 0)  -->
<svg version="1.1" id="Layer_1" xmlns="http://www.w3.org/2000/svg" xmlns:xlink="http://www.w3.org/1999/xlink" x="0px" y="0px" viewBox="0 0 154 1157.2" style="" xml:space="preserve">
<style type="text/css">
	.st0{fill:none;stroke:#000000;stroke-width:4;}
	.st1{fill:none;stroke:#7F651B;stroke-width:3;}
</style>
<path class="st0 xRptcxHI_0" d="M90.8,25.5h19.1v29.8h9.6v37.4H81.3v9.7H32.9v19.9h28.9V141H13.6v38.2h19.1v-18.9h29.1V189H42.1v29.2h48.4v18.1
	H110v38.2h19.1v38.2h-48v59.9h48v75.1H79.9v57.9H100V554H61v28.7H42.1v38.8h9.4v38.2h19.8v9.4h28.5v19.5h9.9v28.7h9.7v35.5h-19.3v32
	H44V814H23.2v46.4h37.6v56.9h30v68v67.8H71.3v18.9"></path>
<path class="st1 xRptcxHI_1" d="M90.8,25.5h19.1v29.8h9.6v37.4H81.3v9.7H32.9v19.9h28.9V141H13.6v38.2h19.1v-18.9h29.1V189H42.1v29.2h48.4v18.1
	H110v38.2h19.1v38.2h-48v59.9h48v75.1H79.9v57.9H100V554H61v28.7H42.1v38.8h9.4v38.2h19.8v9.4h28.5v19.5h9.9v28.7h9.7v35.5h-19.3v32
	H44V814H23.2v46.4h37.6v56.9h30v68v67.8H71.3v18.9"></path>
<style>.xRptcxHI_0{stroke-dasharray:1916 1918;stroke-dashoffset:1917;animation:xRptcxHI_draw 30000ms linear 0ms forwards;}.xRptcxHI_1{stroke-dasharray:1916 1918;stroke-dashoffset:1917;animation:xRptcxHI_draw 30000ms linear 0ms forwards;}@keyframes xRptcxHI_draw{100%{stroke-dashoffset:0;}}@keyframes xRptcxHI_fade{0%{stroke-opacity:1;}98.83040935672514%{stroke-opacity:1;}100%{stroke-opacity:0;}}</style></svg>
