<svg id="Layer_1" data-name="Layer 1" xmlns="http://www.w3.org/2000/svg" viewBox="0 0 241.352 200.321"><defs><style>.cls-1{fill:#c2ad21;}.cls-2{fill:#af9c4d;}.cls-3{fill:#fff;}.cls-4{fill:#eaeaea;}.cls-5{fill:#fff200;}.cls-6{fill:#4788c8;}.cls-7{fill:#98509f;}.cls-8{fill:#6fccdd;}.cls-9{fill:#9aca3c;}.cls-10{fill:#ee2924;}.cls-11{fill:#b56953;}.cls-12{fill:none;stroke:#000;stroke-miterlimit:10;}.cls-13{fill:#dac126;}</style></defs><title>portfolio</title><rect class="cls-1" y="51.654" width="169.333" height="148.667"/><polygon class="cls-2" points="0 125.987 36.004 145.737 0 200.321 0 125.987"/><rect class="cls-3" x="219.503" y="149.145" width="143.951" height="114.976" transform="translate(-231.217 -56.129) rotate(-14.097)"/><rect class="cls-4" x="224.615" y="153.988" width="133.727" height="105.29" transform="translate(-231.217 -56.129) rotate(-14.097)"/><rect class="cls-5" x="300.752" y="155.708" width="41" height="33.5" transform="translate(-221.633 -51.34) rotate(-13.865)"/><rect class="cls-6" x="291.309" y="192.971" width="37" height="29" transform="translate(-230.356 -53.062) rotate(-13.865)"/><rect class="cls-7" x="329.733" y="185.685" width="21.5" height="48" transform="translate(-229.993 -45.647) rotate(-13.865)"/><rect class="cls-8" x="248.489" y="202.676" width="44" height="29" transform="translate(-233.828 -62.201) rotate(-13.865)"/><rect class="cls-9" x="275.38" y="223.907" width="59" height="19" transform="translate(-236.715 -53.487) rotate(-13.865)"/><rect class="cls-10" x="242.406" y="181.649" width="61.5" height="19.639" transform="translate(-227.59 -62.311) rotate(-13.865)"/><rect class="cls-3" x="229.929" y="194.915" width="143.951" height="114.976" transform="translate(-187.952 -135.383) rotate(0.388)"/><rect class="cls-4" x="235.041" y="199.758" width="133.727" height="105.29" transform="translate(-187.952 -135.383) rotate(0.388)"/><circle class="cls-11" cx="77.145" cy="100.636" r="22.5"/><path class="cls-12" d="M354.942,220.008a17.807,17.807,0,0,0-10.215-2.431,27.081,27.081,0,0,0-7.134,1.9c-3.723,1.383-4.532,2.318-7.365,2.873a18.355,18.355,0,0,1-6.184.07,33.608,33.608,0,0,1-10.956-3.636h0c-2.629,2.669-6.254,5.349-10.492,5.212-4.408-.141-8.385-3.294-8.524-3.056-.053.09.5.578,3.058,2.269" transform="translate(-189.667 -133.346)"/><path class="cls-12" d="M294.821,239.582a38.27,38.27,0,0,1,6.372-2.423,29.082,29.082,0,0,1,6.863-1.322c4.12-.23,8.817.534,8.946,1.31s-4.392,1.712-4.615,1.472c-.3-.328,5.981-4.289,12.673-3.783,5.049.382,8.8,3.189,9.414,2.765s-3.115-3.053-2.6-3.378c.644-.405,6.122,3.86,9.952,3.157,3.119-.573,1.6-3.789,6.023-5.651,0,0,.823-.346,8.573-1.564" transform="translate(-189.667 -133.346)"/><path class="cls-12" d="M295.09,250.5c5.127-1.737,8.312-1.095,10.307-.117,1.959.961,2.372,2.052,4.887,3.219,2.683,1.245,5.032,1.313,7.9,1.366,4.186.077,5.347-.67,12.113-1.229,2.449-.2,2.743-.141,5.212-.3,10.83-.7,18.418-2.74,18.529-2.272.058.243-1.954.93-3.983,1.622a46.593,46.593,0,0,1-4.957,1.39" transform="translate(-189.667 -133.346)"/><polygon class="cls-13" points="0 200.321 169.333 200.321 241.352 91.154 72.008 91.154 0 200.321"/></svg>