<?xml version="1.0" encoding="UTF-8"?>
<svg width="400px" height="4650px" viewBox="0 0 400 4650" version="1.1" xmlns="http://www.w3.org/2000/svg" xmlns:xlink="http://www.w3.org/1999/xlink">
    <!-- Generator: Sketch 49.2 (51160) - http://www.bohemiancoding.com/sketch -->
    <title>mdpi/pt_branding_narrow</title>
    <desc>Created with Sketch.</desc>
    <defs></defs>
    <g id="Page-1" stroke="none" stroke-width="1" fill="none" fill-rule="evenodd">
        <g id="Artboard-12" transform="translate(-1680.000000, 0.000000)">
            <g id="pt_branding_narrow" transform="translate(1680.000000, 0.000000)">
                <rect id="Rectangle-8" fill="#F4D6D8" x="0" y="150" width="400" height="4500"></rect>
                <rect id="Rectangle-8" fill="#F4D6D8" x="0" y="0" width="400" height="50"></rect>
                <rect id="Rectangle-8" fill="#EDC7C9" x="225" y="150" width="50" height="50"></rect>
                <rect id="Rectangle-8" fill="#EDC7C9" x="375" y="150" width="25" height="25"></rect>
                <rect id="Rectangle-8" fill="#EDC7C9" x="125" y="175" width="25" height="25"></rect>
                <rect id="Rectangle-8" fill="#EDC7C9" x="25" y="150" width="25" height="25"></rect>
                <rect id="Rectangle-8" fill="#E4B6B7" x="200" y="125" width="25" height="25"></rect>
                <rect id="Rectangle-8" fill="#E4B6B7" x="125" y="100" width="25" height="25"></rect>
                <rect id="Rectangle-8" fill="#F4D6D8" x="375" y="125" width="25" height="25"></rect>
                <rect id="Rectangle-8" fill="#E4B6B7" x="0" y="100" width="50" height="50"></rect>
                <rect id="Rectangle-8" fill="#E4B6B7" x="300" y="100" width="50" height="50"></rect>
                <rect id="Rectangle-8" fill="#F4D6D8" x="50" y="125" width="25" height="25"></rect>
                <rect id="Rectangle-8" fill="#EDC7C9" x="0" y="25" width="25" height="25"></rect>
                <rect id="Rectangle-8" fill="#EDC7C9" x="175" y="25" width="25" height="25"></rect>
                <rect id="Rectangle-8" fill="#EDC7C9" x="50" y="0" width="25" height="25"></rect>
                <rect id="Rectangle-8" fill="#E4B6B7" x="350" y="50" width="50" height="50"></rect>
                <rect id="Rectangle-8" fill="#EDC7C9" x="250" y="0" width="50" height="50"></rect>
                <rect id="Rectangle-8" fill="#E4B6B7" x="101" y="50" width="25" height="25"></rect>
                <rect id="Rectangle-8" fill="#E4B6B7" x="50" y="75" width="25" height="25"></rect>
                <rect id="Rectangle-8" fill="#E4B6B7" x="250" y="75" width="25" height="25"></rect>
            </g>
        </g>
    </g>
</svg>