<?xml version="1.0" encoding="UTF-8"?>
<svg width="700px" height="1100px" viewBox="0 0 700 1100" version="1.1" xmlns="http://www.w3.org/2000/svg" xmlns:xlink="http://www.w3.org/1999/xlink">
    <!-- Generator: Sketch 49 (51002) - http://www.bohemiancoding.com/sketch -->
    <title>mdpi/Group 12</title>
    <desc>Created with Sketch.</desc>
    <defs></defs>
    <g id="CASE-STUDY" stroke="none" stroke-width="1" fill="none" fill-rule="evenodd">
        <g id="Artboard-7" transform="translate(-50.000000, -4350.000000)">
            <g id="Group-12" transform="translate(50.000000, 4350.000000)">
                <rect id="Rectangle-8" fill="#F4D6D8" x="650" y="250" width="50" height="50"></rect>
                <rect id="Rectangle-8" fill="#F4D6D8" x="675" y="175" width="25" height="25"></rect>
                <rect id="Rectangle-8" fill="#E4B6B7" x="650" y="400" width="25" height="25"></rect>
                <rect id="Rectangle-8" fill="#F4D6D8" x="650" y="50" width="50" height="50"></rect>
                <rect id="Rectangle-8" fill="#E4B6B7" x="650" y="125" width="25" height="25"></rect>
                <rect id="Rectangle-8" fill="#E4B6B7" x="675" y="451" width="25" height="25"></rect>
                <rect id="Rectangle-8" fill="#E4B6B7" x="650" y="850" width="50" height="50"></rect>
                <rect id="Rectangle-8" fill="#F4D6D8" x="650" y="750" width="50" height="50"></rect>
                <rect id="Rectangle-8" fill="#F4D6D8" x="675" y="600" width="25" height="25"></rect>
                <rect id="Rectangle-8" fill="#E4B6B7" x="650" y="650" width="50" height="50"></rect>
                <rect id="Rectangle-8" fill="#F4D6D8" x="675" y="500" width="25" height="25"></rect>
                <rect id="Rectangle-8" fill="#F4D6D8" x="50" y="50" width="600" height="1000"></rect>
                <g id="Group-3" transform="translate(25.000000, 462.500000) scale(-1, 1) translate(-25.000000, -462.500000) translate(0.000000, 50.000000)">
                    <rect id="Rectangle-8" fill="#F4D6D8" x="25" y="625" width="25" height="25"></rect>
                    <rect id="Rectangle-8" fill="#E4B6B7" x="0" y="550" width="50" height="50"></rect>
                    <rect id="Rectangle-8" fill="#F4D6D8" x="0" y="450" width="50" height="50"></rect>
                    <rect id="Rectangle-8" fill="#F4D6D8" x="25" y="375" width="25" height="25"></rect>
                    <rect id="Rectangle-8" fill="#F4D6D8" x="0" y="250" width="50" height="50"></rect>
                    <rect id="Rectangle-8" fill="#F4D6D8" x="25" y="75" width="25" height="25"></rect>
                    <rect id="Rectangle-8" fill="#E4B6B7" x="0" y="150" width="50" height="50"></rect>
                    <rect id="Rectangle-8" fill="#E4B6B7" x="0" y="325" width="25" height="25"></rect>
                    <rect id="Rectangle-8" fill="#E4B6B7" x="25" y="775" width="25" height="25"></rect>
                    <rect id="Rectangle-8" fill="#F4D6D8" x="0" y="700" width="25" height="25"></rect>
                    <rect id="Rectangle-8" fill="#F4D6D8" x="0" y="800" width="25" height="25"></rect>
                    <rect id="Rectangle-8" fill="#E4B6B7" x="0" y="0" width="25" height="25"></rect>
                </g>
                <g id="Group-4" transform="translate(362.500000, 50.000000) scale(-1, -1) translate(-362.500000, -50.000000) translate(75.000000, 0.000000)">
                    <rect id="Rectangle-8" fill="#F4D6D8" x="525" y="50" width="50" height="50"></rect>
                    <rect id="Rectangle-8" fill="#F4D6D8" x="125" y="75" width="25" height="25"></rect>
                    <rect id="Rectangle-8" fill="#EDC7C9" x="350" y="0" width="50" height="50"></rect>
                    <rect id="Rectangle-8" fill="#EDC7C9" x="150" y="0" width="50" height="50"></rect>
                    <rect id="Rectangle-8" fill="#E4B6B7" x="450" y="75" width="25" height="25"></rect>
                    <rect id="Rectangle-8" fill="#EDC7C9" x="450" y="25" width="25" height="25"></rect>
                    <rect id="Rectangle-8" fill="#EDC7C9" x="75" y="0" width="25" height="25"></rect>
                    <rect id="Rectangle-8" fill="#EDC7C9" x="500" y="0" width="25" height="25"></rect>
                    <rect id="Rectangle-8" fill="#E4B6B7" x="175" y="50" width="25" height="25"></rect>
                    <rect id="Rectangle-8" fill="#E4B6B7" x="250" y="50" width="50" height="50"></rect>
                    <rect id="Rectangle-8" fill="#E4B6B7" x="0" y="50" width="50" height="50"></rect>
                    <rect id="Rectangle-8" fill="#F4D6D8" x="375" y="75" width="25" height="25"></rect>
                </g>
                <rect id="Rectangle-8" fill="#EDC7C9" x="400" y="1000" width="50" height="50"></rect>
                <rect id="Rectangle-8" fill="#EDC7C9" x="200" y="1000" width="50" height="50"></rect>
                <rect id="Rectangle-8" fill="#EDC7C9" x="500" y="1025" width="25" height="25"></rect>
                <rect id="Rectangle-8" fill="#EDC7C9" x="125" y="1000" width="25" height="25"></rect>
                <rect id="Rectangle-8" fill="#EDC7C9" x="550" y="1000" width="25" height="25"></rect>
                <rect id="Rectangle-8" fill="#F4D6D8" transform="translate(687.500000, 1087.500000) scale(1, -1) translate(-687.500000, -1087.500000) " x="675" y="1075" width="25" height="25"></rect>
                <rect id="Rectangle-8" fill="#F4D6D8" transform="translate(125.000000, 1075.000000) scale(1, -1) translate(-125.000000, -1075.000000) " x="100" y="1050" width="50" height="50"></rect>
                <rect id="Rectangle-8" fill="#F4D6D8" transform="translate(37.500000, 1087.500000) scale(1, -1) translate(-37.500000, -1087.500000) " x="25" y="1075" width="25" height="25"></rect>
                <rect id="Rectangle-8" fill="#F4D6D8" transform="translate(512.500000, 1062.500000) scale(1, -1) translate(-512.500000, -1062.500000) " x="500" y="1050" width="25" height="25"></rect>
                <rect id="Rectangle-8" fill="#E4B6B7" transform="translate(187.500000, 1062.500000) scale(1, -1) translate(-187.500000, -1062.500000) " x="175" y="1050" width="25" height="25"></rect>
                <rect id="Rectangle-8" fill="#E4B6B7" transform="translate(462.500000, 1087.500000) scale(1, -1) translate(-462.500000, -1087.500000) " x="450" y="1075" width="25" height="25"></rect>
                <rect id="Rectangle-8" fill="#E4B6B7" transform="translate(375.000000, 1075.000000) scale(1, -1) translate(-375.000000, -1075.000000) " x="350" y="1050" width="50" height="50"></rect>
                <rect id="Rectangle-8" fill="#E4B6B7" transform="translate(625.000000, 1075.000000) scale(1, -1) translate(-625.000000, -1075.000000) " x="600" y="1050" width="50" height="50"></rect>
                <rect id="Rectangle-8" fill="#F4D6D8" transform="translate(262.500000, 1062.500000) scale(1, -1) translate(-262.500000, -1062.500000) " x="250" y="1050" width="25" height="25"></rect>
            </g>
        </g>
    </g>
</svg>