<?xml version="1.0" encoding="UTF-8"?>
<svg width="400px" height="1100px" viewBox="0 0 400 1100" version="1.1" xmlns="http://www.w3.org/2000/svg" xmlns:xlink="http://www.w3.org/1999/xlink">
    <!-- Generator: Sketch 49 (51002) - http://www.bohemiancoding.com/sketch -->
    <title>mdpi/Group 9</title>
    <desc>Created with Sketch.</desc>
    <defs></defs>
    <g id="CASE-STUDY" stroke="none" stroke-width="1" fill="none" fill-rule="evenodd">
        <g id="Artboard-5" transform="translate(0.000000, -4450.000000)">
            <g id="Group-9" transform="translate(0.000000, 4450.000000)">
                <rect id="Rectangle-8" fill="#F4D6D8" x="0" y="50" width="400" height="1000"></rect>
                <rect id="Rectangle-8" fill="#EDC7C9" transform="translate(200.000000, 75.000000) scale(-1, -1) translate(-200.000000, -75.000000) " x="175" y="50" width="50" height="50"></rect>
                <rect id="Rectangle-8" fill="#EDC7C9" transform="translate(387.500000, 62.500000) scale(-1, -1) translate(-387.500000, -62.500000) " x="375" y="50" width="25" height="25"></rect>
                <rect id="Rectangle-8" fill="#EDC7C9" transform="translate(137.500000, 62.500000) scale(-1, -1) translate(-137.500000, -62.500000) " x="125" y="50" width="25" height="25"></rect>
                <rect id="Rectangle-8" fill="#EDC7C9" transform="translate(62.500000, 87.500000) scale(-1, -1) translate(-62.500000, -87.500000) " x="50" y="75" width="25" height="25"></rect>
                <rect id="Rectangle-8" fill="#E4B6B7" transform="translate(37.500000, 37.500000) scale(-1, -1) translate(-37.500000, -37.500000) " x="25" y="25" width="25" height="25"></rect>
                <rect id="Rectangle-8" fill="#E4B6B7" transform="translate(137.500000, 12.500000) scale(-1, -1) translate(-137.500000, -12.500000) " x="125" y="0" width="25" height="25"></rect>
                <rect id="Rectangle-8" fill="#E4B6B7" transform="translate(250.000000, 25.000000) scale(-1, -1) translate(-250.000000, -25.000000) " x="225" y="0" width="50" height="50"></rect>
                <rect id="Rectangle-8" fill="#F4D6D8" transform="translate(337.500000, 37.500000) scale(-1, -1) translate(-337.500000, -37.500000) " x="325" y="25" width="25" height="25"></rect>
                <rect id="Rectangle-8" fill="#F4D6D8" transform="translate(187.500000, 37.500000) scale(-1, -1) translate(-187.500000, -37.500000) " x="175" y="25" width="25" height="25"></rect>
                <rect id="Rectangle-8" fill="#EDC7C9" transform="translate(375.000000, 1025.000000) scale(1, -1) translate(-375.000000, -1025.000000) " x="350" y="1000" width="50" height="50"></rect>
                <rect id="Rectangle-8" fill="#EDC7C9" transform="translate(75.000000, 1025.000000) scale(1, -1) translate(-75.000000, -1025.000000) " x="50" y="1000" width="50" height="50"></rect>
                <rect id="Rectangle-8" fill="#EDC7C9" transform="translate(212.500000, 1037.500000) scale(1, -1) translate(-212.500000, -1037.500000) " x="200" y="1025" width="25" height="25"></rect>
                <rect id="Rectangle-8" fill="#EDC7C9" transform="translate(262.500000, 1012.500000) scale(1, -1) translate(-262.500000, -1012.500000) " x="250" y="1000" width="25" height="25"></rect>
                <rect id="Rectangle-8" fill="#E4B6B7" transform="translate(287.500000, 1062.500000) scale(1, -1) translate(-287.500000, -1062.500000) " x="275" y="1050" width="25" height="25"></rect>
                <rect id="Rectangle-8" fill="#E4B6B7" transform="translate(387.500000, 1087.500000) scale(1, -1) translate(-387.500000, -1087.500000) " x="375" y="1075" width="25" height="25"></rect>
                <rect id="Rectangle-8" fill="#E4B6B7" transform="translate(175.000000, 1075.000000) scale(1, -1) translate(-175.000000, -1075.000000) " x="150" y="1050" width="50" height="50"></rect>
                <rect id="Rectangle-8" fill="#F4D6D8" transform="translate(37.500000, 1087.500000) scale(1, -1) translate(-37.500000, -1087.500000) " x="25" y="1075" width="25" height="25"></rect>
            </g>
        </g>
    </g>
</svg>