<?xml version="1.0" encoding="UTF-8"?>
<svg width="400px" height="900px" viewBox="0 0 400 900" version="1.1" xmlns="http://www.w3.org/2000/svg" xmlns:xlink="http://www.w3.org/1999/xlink">
    <!-- Generator: Sketch 49 (51002) - http://www.bohemiancoding.com/sketch -->
    <title>mdpi/Group 9</title>
    <desc>Created with Sketch.</desc>
    <defs></defs>
    <g id="CASE-STUDY" stroke="none" stroke-width="1" fill="none" fill-rule="evenodd">
        <g id="Artboard-5" transform="translate(0.000000, -3600.000000)">
            <g id="Group-9" transform="translate(0.000000, 3600.000000)">
                <rect id="Rectangle-8" fill="#F4D6D8" x="0" y="50" width="400" height="800"></rect>
                <rect id="Rectangle-8" fill="#EDC7C9" transform="translate(200.000000, 75.000000) scale(-1, -1) translate(-200.000000, -75.000000) " x="175" y="50" width="50" height="50"></rect>
                <rect id="Rectangle-8" fill="#EDC7C9" transform="translate(387.500000, 62.500000) scale(-1, -1) translate(-387.500000, -62.500000) " x="375" y="50" width="25" height="25"></rect>
                <rect id="Rectangle-8" fill="#EDC7C9" transform="translate(137.500000, 62.500000) scale(-1, -1) translate(-137.500000, -62.500000) " x="125" y="50" width="25" height="25"></rect>
                <rect id="Rectangle-8" fill="#EDC7C9" transform="translate(62.500000, 87.500000) scale(-1, -1) translate(-62.500000, -87.500000) " x="50" y="75" width="25" height="25"></rect>
                <rect id="Rectangle-8" fill="#E4B6B7" transform="translate(37.500000, 37.500000) scale(-1, -1) translate(-37.500000, -37.500000) " x="25" y="25" width="25" height="25"></rect>
                <rect id="Rectangle-8" fill="#E4B6B7" transform="translate(137.500000, 12.500000) scale(-1, -1) translate(-137.500000, -12.500000) " x="125" y="0" width="25" height="25"></rect>
                <rect id="Rectangle-8" fill="#E4B6B7" transform="translate(250.000000, 25.000000) scale(-1, -1) translate(-250.000000, -25.000000) " x="225" y="0" width="50" height="50"></rect>
                <rect id="Rectangle-8" fill="#F4D6D8" transform="translate(337.500000, 37.500000) scale(-1, -1) translate(-337.500000, -37.500000) " x="325" y="25" width="25" height="25"></rect>
                <rect id="Rectangle-8" fill="#F4D6D8" transform="translate(187.500000, 37.500000) scale(-1, -1) translate(-187.500000, -37.500000) " x="175" y="25" width="25" height="25"></rect>
                <rect id="Rectangle-8" fill="#EDC7C9" transform="translate(375.000000, 825.000000) scale(1, -1) translate(-375.000000, -825.000000) " x="350" y="800" width="50" height="50"></rect>
                <rect id="Rectangle-8" fill="#EDC7C9" transform="translate(75.000000, 825.000000) scale(1, -1) translate(-75.000000, -825.000000) " x="50" y="800" width="50" height="50"></rect>
                <rect id="Rectangle-8" fill="#EDC7C9" transform="translate(212.500000, 837.500000) scale(1, -1) translate(-212.500000, -837.500000) " x="200" y="825" width="25" height="25"></rect>
                <rect id="Rectangle-8" fill="#EDC7C9" transform="translate(262.500000, 812.500000) scale(1, -1) translate(-262.500000, -812.500000) " x="250" y="800" width="25" height="25"></rect>
                <rect id="Rectangle-8" fill="#E4B6B7" transform="translate(287.500000, 862.500000) scale(1, -1) translate(-287.500000, -862.500000) " x="275" y="850" width="25" height="25"></rect>
                <rect id="Rectangle-8" fill="#E4B6B7" transform="translate(387.500000, 887.500000) scale(1, -1) translate(-387.500000, -887.500000) " x="375" y="875" width="25" height="25"></rect>
                <rect id="Rectangle-8" fill="#E4B6B7" transform="translate(175.000000, 875.000000) scale(1, -1) translate(-175.000000, -875.000000) " x="150" y="850" width="50" height="50"></rect>
                <rect id="Rectangle-8" fill="#F4D6D8" transform="translate(37.500000, 887.500000) scale(1, -1) translate(-37.500000, -887.500000) " x="25" y="875" width="25" height="25"></rect>
            </g>
        </g>
    </g>
</svg>