<?xml version="1.0" encoding="UTF-8"?>
<svg width="700px" height="2481px" viewBox="0 0 700 2481" version="1.1" xmlns="http://www.w3.org/2000/svg" xmlns:xlink="http://www.w3.org/1999/xlink">
    <!-- Generator: Sketch 49.1 (51147) - http://www.bohemiancoding.com/sketch -->
    <title>mdpi/pt_future_wide</title>
    <desc>Created with Sketch.</desc>
    <defs></defs>
    <g id="Page-1" stroke="none" stroke-width="1" fill="none" fill-rule="evenodd">
        <g id="Artboard-13" transform="translate(-6025.000000, 0.000000)">
            <g id="pt_future_wide" transform="translate(6025.000000, 0.000000)">
                <rect id="Rectangle-8" fill="#F4D6D8" x="50" y="0" width="600" height="100"></rect>
                <rect id="Rectangle-8" fill="#F4D6D8" x="550" y="100" width="50" height="50"></rect>
                <rect id="Rectangle-8" fill="#E4B6B7" x="650" y="75" width="25" height="25"></rect>
                <rect id="Rectangle-8" fill="#F4D6D8" x="0" y="100" width="25" height="25"></rect>
                <rect id="Rectangle-8" fill="#EDC7C9" x="400" y="50" width="50" height="50"></rect>
                <rect id="Rectangle-8" fill="#EDC7C9" x="100" y="50" width="50" height="50"></rect>
                <rect id="Rectangle-8" fill="#E4B6B7" x="625" y="125" width="25" height="25"></rect>
                <rect id="Rectangle-8" fill="#E4B6B7" x="150" y="125" width="25" height="25"></rect>
                <rect id="Rectangle-8" fill="#EDC7C9" x="150" y="75" width="25" height="25"></rect>
                <rect id="Rectangle-8" fill="#EDC7C9" x="525" y="49" width="25" height="25"></rect>
                <rect id="Rectangle-8" fill="#E4B6B7" x="425" y="100" width="25" height="25"></rect>
                <rect id="Rectangle-8" fill="#E4B6B7" x="350" y="100" width="50" height="50"></rect>
                <rect id="Rectangle-8" fill="#E4B6B7" x="50" y="100" width="50" height="50"></rect>
                <rect id="Rectangle-8" fill="#F4D6D8" x="200" y="99" width="25" height="25"></rect>
                <rect id="Rectangle-8" fill="#F4D6D8" transform="translate(675.000000, 1655.000000) scale(1, -1) translate(-675.000000, -1655.000000) " x="650" y="1630" width="50" height="50"></rect>
                <rect id="Rectangle-8" fill="#E4B6B7" transform="translate(25.000000, 1630.000000) scale(1, -1) translate(-25.000000, -1630.000000) " x="0" y="1605" width="50" height="50"></rect>
                <rect id="Rectangle-8" fill="#E4B6B7" transform="translate(662.500000, 1592.500000) scale(1, -1) translate(-662.500000, -1592.500000) " x="650" y="1580" width="25" height="25"></rect>
                <rect id="Rectangle-8" fill="#E4B6B7" transform="translate(662.500000, 2142.500000) scale(-1, 1) translate(-662.500000, -2142.500000) " x="650" y="2130" width="25" height="25"></rect>
                <rect id="Rectangle-8" fill="#F4D6D8" transform="translate(687.500000, 2192.500000) scale(-1, 1) translate(-687.500000, -2192.500000) " x="675" y="2180" width="25" height="25"></rect>
                <rect id="Rectangle-8" fill="#F4D6D8" transform="translate(662.500000, 2317.500000) scale(-1, 1) translate(-662.500000, -2317.500000) " x="650" y="2305" width="25" height="25"></rect>
                <rect id="Rectangle-8" fill="#F4D6D8" transform="translate(12.500000, 2267.500000) scale(-1, 1) translate(-12.500000, -2267.500000) " x="0" y="2255" width="25" height="25"></rect>
                <rect id="Rectangle-8" fill="#E4B6B7" transform="translate(25.000000, 2205.000000) scale(-1, 1) translate(-25.000000, -2205.000000) " x="0" y="2180" width="50" height="50"></rect>
                <rect id="Rectangle-8" fill="#F4D6D8" transform="translate(25.000000, 2105.000000) scale(-1, 1) translate(-25.000000, -2105.000000) " x="0" y="2080" width="50" height="50"></rect>
                <rect id="Rectangle-8" fill="#F4D6D8" transform="translate(12.500000, 2017.500000) scale(-1, 1) translate(-12.500000, -2017.500000) " x="0" y="2005" width="25" height="25"></rect>
                <rect id="Rectangle-8" fill="#F4D6D8" transform="translate(25.000000, 1905.000000) scale(-1, 1) translate(-25.000000, -1905.000000) " x="0" y="1880" width="50" height="50"></rect>
                <rect id="Rectangle-8" fill="#F4D6D8" transform="translate(12.500000, 1717.500000) scale(-1, 1) translate(-12.500000, -1717.500000) " x="0" y="1705" width="25" height="25"></rect>
                <rect id="Rectangle-8" fill="#E4B6B7" transform="translate(25.000000, 1805.000000) scale(-1, 1) translate(-25.000000, -1805.000000) " x="0" y="1780" width="50" height="50"></rect>
                <rect id="Rectangle-8" fill="#E4B6B7" transform="translate(37.500000, 1967.500000) scale(-1, 1) translate(-37.500000, -1967.500000) " x="25" y="1955" width="25" height="25"></rect>
                <rect id="Rectangle-8" fill="#F4D6D8" transform="translate(350.000000, 1340.000000) scale(-1, 1) translate(-350.000000, -1340.000000) " x="50" y="250" width="600" height="2180"></rect>
                <rect id="Rectangle-8" fill="#E4B6B7" transform="translate(675.000000, 2255.000000) scale(-1, 1) translate(-675.000000, -2255.000000) " x="650" y="2230" width="50" height="50"></rect>
                <rect id="Rectangle-8" fill="#E4B6B7" transform="translate(675.000000, 2405.000000) scale(-1, 1) translate(-675.000000, -2405.000000) " x="650" y="2380" width="50" height="50"></rect>
                <rect id="Rectangle-8" fill="#E4B6B7" transform="translate(12.500000, 2417.500000) scale(-1, 1) translate(-12.500000, -2417.500000) " x="0" y="2405" width="25" height="25"></rect>
                <rect id="Rectangle-8" fill="#F4D6D8" transform="translate(37.500000, 2342.500000) scale(-1, 1) translate(-37.500000, -2342.500000) " x="25" y="2330" width="25" height="25"></rect>
                <rect id="Rectangle-8" fill="#F4D6D8" transform="translate(675.000000, 1905.000000) scale(-1, 1) translate(-675.000000, -1905.000000) " x="650" y="1880" width="50" height="50"></rect>
                <rect id="Rectangle-8" fill="#F4D6D8" transform="translate(675.000000, 2105.000000) scale(-1, 1) translate(-675.000000, -2105.000000) " x="650" y="2080" width="50" height="50"></rect>
                <rect id="Rectangle-8" fill="#F4D6D8" transform="translate(662.500000, 1717.500000) scale(-1, 1) translate(-662.500000, -1717.500000) " x="650" y="1705" width="25" height="25"></rect>
                <rect id="Rectangle-8" fill="#F4D6D8" transform="translate(662.500000, 2017.500000) scale(-1, 1) translate(-662.500000, -2017.500000) " x="650" y="2005" width="25" height="25"></rect>
                <rect id="Rectangle-8" fill="#E4B6B7" transform="translate(675.000000, 1805.000000) scale(-1, 1) translate(-675.000000, -1805.000000) " x="650" y="1780" width="50" height="50"></rect>
                <rect id="Rectangle-8" fill="#F4D6D8" transform="translate(675.000000, 1530.000000) scale(1, -1) translate(-675.000000, -1530.000000) " x="650" y="1505" width="50" height="50"></rect>
                <rect id="Rectangle-8" fill="#E4B6B7" transform="translate(675.000000, 1330.000000) scale(1, -1) translate(-675.000000, -1330.000000) " x="650" y="1305" width="50" height="50"></rect>
                <rect id="Rectangle-8" fill="#E4B6B7" transform="translate(662.500000, 1392.500000) scale(1, -1) translate(-662.500000, -1392.500000) " x="650" y="1380" width="25" height="25"></rect>
                <rect id="Rectangle-8" fill="#F4D6D8" transform="translate(687.500000, 1167.500000) scale(1, -1) translate(-687.500000, -1167.500000) " x="675" y="1155" width="25" height="25"></rect>
                <rect id="Rectangle-8" fill="#E4B6B7" transform="translate(662.500000, 1242.500000) scale(1, -1) translate(-662.500000, -1242.500000) " x="650" y="1230" width="25" height="25"></rect>
                <rect id="Rectangle-8" fill="#F4D6D8" transform="translate(687.500000, 507.500000) scale(1, -1) translate(-687.500000, -507.500000) " x="675" y="495" width="25" height="25"></rect>
                <rect id="Rectangle-8" fill="#E4B6B7" transform="translate(675.000000, 670.000000) scale(1, -1) translate(-675.000000, -670.000000) " x="650" y="645" width="50" height="50"></rect>
                <rect id="Rectangle-8" fill="#F4D6D8" transform="translate(675.000000, 770.000000) scale(1, -1) translate(-675.000000, -770.000000) " x="650" y="745" width="50" height="50"></rect>
                <rect id="Rectangle-8" fill="#F4D6D8" transform="translate(687.500000, 857.500000) scale(1, -1) translate(-687.500000, -857.500000) " x="675" y="845" width="25" height="25"></rect>
                <rect id="Rectangle-8" fill="#F4D6D8" transform="translate(675.000000, 970.000000) scale(1, -1) translate(-675.000000, -970.000000) " x="650" y="945" width="50" height="50"></rect>
                <rect id="Rectangle-8" fill="#E4B6B7" transform="translate(675.000000, 1070.000000) scale(1, -1) translate(-675.000000, -1070.000000) " x="650" y="1045" width="50" height="50"></rect>
                <rect id="Rectangle-8" fill="#E4B6B7" transform="translate(662.500000, 907.500000) scale(1, -1) translate(-662.500000, -907.500000) " x="650" y="895" width="25" height="25"></rect>
                <rect id="Rectangle-8" fill="#E4B6B7" transform="translate(687.500000, 357.500000) scale(1, -1) translate(-687.500000, -357.500000) " x="675" y="345" width="25" height="25"></rect>
                <rect id="Rectangle-8" fill="#F4D6D8" transform="translate(662.500000, 432.500000) scale(1, -1) translate(-662.500000, -432.500000) " x="650" y="420" width="25" height="25"></rect>
                <rect id="Rectangle-8" fill="#F4D6D8" transform="translate(675.000000, 570.000000) scale(1, -1) translate(-675.000000, -570.000000) " x="650" y="545" width="50" height="50"></rect>
                <rect id="Rectangle-8" fill="#F4D6D8" transform="translate(675.000000, 320.000000) scale(1, -1) translate(-675.000000, -320.000000) " x="650" y="295" width="50" height="50"></rect>
                <rect id="Rectangle-8" fill="#E4B6B7" transform="translate(25.000000, 1080.000000) scale(1, -1) translate(-25.000000, -1080.000000) " x="0" y="1055" width="50" height="50"></rect>
                <rect id="Rectangle-8" fill="#E4B6B7" transform="translate(37.500000, 917.500000) scale(1, -1) translate(-37.500000, -917.500000) " x="25" y="905" width="25" height="25"></rect>
                <rect id="Rectangle-8" fill="#F4D6D8" transform="translate(12.500000, 992.500000) scale(1, -1) translate(-12.500000, -992.500000) " x="0" y="980" width="25" height="25"></rect>
                <rect id="Rectangle-8" fill="#F4D6D8" transform="translate(25.000000, 1430.000000) scale(1, -1) translate(-25.000000, -1430.000000) " x="0" y="1405" width="50" height="50"></rect>
                <rect id="Rectangle-8" fill="#F4D6D8" transform="translate(25.000000, 1230.000000) scale(1, -1) translate(-25.000000, -1230.000000) " x="0" y="1205" width="50" height="50"></rect>
                <rect id="Rectangle-8" fill="#F4D6D8" transform="translate(37.500000, 1317.500000) scale(1, -1) translate(-37.500000, -1317.500000) " x="25" y="1305" width="25" height="25"></rect>
                <rect id="Rectangle-8" fill="#E4B6B7" transform="translate(25.000000, 1530.000000) scale(1, -1) translate(-25.000000, -1530.000000) " x="0" y="1505" width="50" height="50"></rect>
                <rect id="Rectangle-8" fill="#E4B6B7" transform="translate(12.500000, 1367.500000) scale(1, -1) translate(-12.500000, -1367.500000) " x="0" y="1355" width="25" height="25"></rect>
                <rect id="Rectangle-8" fill="#F4D6D8" transform="translate(12.500000, 740.500000) scale(-1, 1) translate(-12.500000, -740.500000) " x="0" y="728" width="25" height="25"></rect>
                <rect id="Rectangle-8" fill="#E4B6B7" transform="translate(25.000000, 678.000000) scale(-1, 1) translate(-25.000000, -678.000000) " x="0" y="653" width="50" height="50"></rect>
                <rect id="Rectangle-8" fill="#E4B6B7" transform="translate(675.000000, 25.000000) scale(1, -1) translate(-675.000000, -25.000000) " x="650" y="0" width="50" height="50"></rect>
                <rect id="Rectangle-8" fill="#F4D6D8" transform="translate(12.500000, 12.500000) scale(-1, 1) translate(-12.500000, -12.500000) " x="0" y="0" width="25" height="25"></rect>
                <rect id="Rectangle-8" fill="#E4B6B7" transform="translate(25.000000, 50.000000) scale(-1, 1) translate(-25.000000, -50.000000) " x="0" y="25" width="50" height="50"></rect>
                <rect id="Rectangle-8" fill="#F4D6D8" transform="translate(25.000000, 578.000000) scale(-1, 1) translate(-25.000000, -578.000000) " x="0" y="553" width="50" height="50"></rect>
                <rect id="Rectangle-8" fill="#F4D6D8" transform="translate(12.500000, 490.500000) scale(-1, 1) translate(-12.500000, -490.500000) " x="0" y="478" width="25" height="25"></rect>
                <rect id="Rectangle-8" fill="#F4D6D8" transform="translate(25.000000, 378.000000) scale(-1, 1) translate(-25.000000, -378.000000) " x="0" y="353" width="50" height="50"></rect>
                <rect id="Rectangle-8" fill="#E4B6B7" transform="translate(25.000000, 275.000000) scale(-1, 1) translate(-25.000000, -275.000000) " x="0" y="250" width="50" height="50"></rect>
                <rect id="Rectangle-8" fill="#E4B6B7" transform="translate(37.500000, 440.500000) scale(-1, 1) translate(-37.500000, -440.500000) " x="25" y="428" width="25" height="25"></rect>
                <rect id="Rectangle-8" fill="#E4B6B7" transform="translate(12.500000, 890.500000) scale(-1, 1) translate(-12.500000, -890.500000) " x="0" y="878" width="25" height="25"></rect>
                <rect id="Rectangle-8" fill="#F4D6D8" transform="translate(37.500000, 815.500000) scale(-1, 1) translate(-37.500000, -815.500000) " x="25" y="803" width="25" height="25"></rect>
                <rect id="Rectangle-8" fill="#EDC7C9" x="100" y="200" width="50" height="50"></rect>
                <rect id="Rectangle-8" fill="#E4B6B7" x="350" y="200" width="50" height="50"></rect>
                <rect id="Rectangle-8" fill="#E4B6B7" x="50" y="250" width="25" height="25"></rect>
                <rect id="Rectangle-8" fill="#EDC7C9" x="175" y="250" width="25" height="25"></rect>
                <rect id="Rectangle-8" fill="#E4B6B7" x="250" y="250" width="50" height="50"></rect>
                <rect id="Rectangle-8" fill="#EDC7C9" x="475" y="250" width="25" height="25"></rect>
                <rect id="Rectangle-8" fill="#E4B6B7" x="600" y="200" width="50" height="50"></rect>
                <rect id="Rectangle-8" fill="#E4B6B7" x="450" y="225" width="25" height="25"></rect>
                <rect id="Rectangle-8" fill="#E4B6B7" x="675" y="250" width="25" height="25"></rect>
                <rect id="Rectangle-8" fill="#E4B6B7" x="25" y="200" width="25" height="25"></rect>
                <rect id="Rectangle-8" fill="#F4D6D8" x="125" y="2430" width="50" height="50"></rect>
                <rect id="Rectangle-8" fill="#E4B6B7" x="25" y="2455" width="25" height="25"></rect>
                <rect id="Rectangle-8" fill="#F4D6D8" x="675" y="2455" width="25" height="25"></rect>
                <rect id="Rectangle-8" fill="#EDC7C9" x="275" y="2380" width="50" height="50"></rect>
                <rect id="Rectangle-8" fill="#EDC7C9" x="550" y="2380" width="50" height="50"></rect>
                <rect id="Rectangle-8" fill="#E4B6B7" x="500" y="2456" width="25" height="25"></rect>
                <rect id="Rectangle-8" fill="#EDC7C9" x="500" y="2405" width="25" height="25"></rect>
                <rect id="Rectangle-8" fill="#EDC7C9" x="150" y="2380" width="25" height="25"></rect>
                <rect id="Rectangle-8" fill="#E4B6B7" x="250" y="2430" width="25" height="25"></rect>
                <rect id="Rectangle-8" fill="#E4B6B7" x="325" y="2430" width="50" height="50"></rect>
                <rect id="Rectangle-8" fill="#F4D6D8" x="450" y="2430" width="25" height="25"></rect>
            </g>
        </g>
    </g>
</svg>