<?xml version="1.0" encoding="UTF-8"?>
<svg width="700px" height="1100px" viewBox="0 0 700 1100" version="1.1" xmlns="http://www.w3.org/2000/svg" xmlns:xlink="http://www.w3.org/1999/xlink">
    <!-- Generator: Sketch 49 (51002) - http://www.bohemiancoding.com/sketch -->
    <title>mdpi/Group 6</title>
    <desc>Created with Sketch.</desc>
    <defs></defs>
    <g id="CASE-STUDY" stroke="none" stroke-width="1" fill="none" fill-rule="evenodd">
        <g id="Artboard-7" transform="translate(-50.000000, -6350.000000)">
            <g id="Group-6" transform="translate(400.000000, 6900.000000) scale(-1, -1) translate(-400.000000, -6900.000000) translate(50.000000, 6350.000000)">
                <rect id="Rectangle-8" fill="#E4B6B7" x="25" y="750" width="25" height="25"></rect>
                <rect id="Rectangle-8" fill="#F4D6D8" x="0" y="825" width="25" height="25"></rect>
                <rect id="Rectangle-8" fill="#F4D6D8" x="0" y="975" width="25" height="25"></rect>
                <rect id="Rectangle-8" fill="#F4D6D8" x="0" y="1050" width="25" height="25"></rect>
                <rect id="Rectangle-8" fill="#F4D6D8" x="675" y="875" width="25" height="25"></rect>
                <rect id="Rectangle-8" fill="#E4B6B7" x="650" y="800" width="50" height="50"></rect>
                <rect id="Rectangle-8" fill="#F4D6D8" x="650" y="700" width="50" height="50"></rect>
                <rect id="Rectangle-8" fill="#F4D6D8" x="675" y="625" width="25" height="25"></rect>
                <rect id="Rectangle-8" fill="#F4D6D8" x="650" y="500" width="50" height="50"></rect>
                <rect id="Rectangle-8" fill="#F4D6D8" x="675" y="325" width="25" height="25"></rect>
                <rect id="Rectangle-8" fill="#E4B6B7" x="650" y="400" width="50" height="50"></rect>
                <rect id="Rectangle-8" fill="#E4B6B7" x="650" y="575" width="25" height="25"></rect>
                <rect id="Rectangle-8" fill="#F4D6D8" x="550" y="1050" width="50" height="50"></rect>
                <rect id="Rectangle-8" fill="#F4D6D8" x="50" y="50" width="600" height="1000"></rect>
                <rect id="Rectangle-8" fill="#E4B6B7" x="0" y="850" width="50" height="50"></rect>
                <rect id="Rectangle-8" fill="#E4B6B7" x="675" y="1025" width="25" height="25"></rect>
                <rect id="Rectangle-8" fill="#F4D6D8" x="650" y="950" width="25" height="25"></rect>
                <rect id="Rectangle-8" fill="#F4D6D8" x="650" y="1050" width="25" height="25"></rect>
                <rect id="Rectangle-8" fill="#F4D6D8" x="175" y="1075" width="25" height="25"></rect>
                <rect id="Rectangle-8" fill="#F4D6D8" x="0" y="500" width="50" height="50"></rect>
                <rect id="Rectangle-8" fill="#F4D6D8" x="0" y="700" width="50" height="50"></rect>
                <rect id="Rectangle-8" fill="#F4D6D8" x="25" y="325" width="25" height="25"></rect>
                <rect id="Rectangle-8" fill="#F4D6D8" x="25" y="625" width="25" height="25"></rect>
                <rect id="Rectangle-8" fill="#E4B6B7" x="0" y="400" width="50" height="50"></rect>
                <rect id="Rectangle-8" fill="#E4B6B7" x="650" y="250" width="25" height="25"></rect>
                <rect id="Rectangle-8" fill="#F4D6D8" x="25" y="225" width="25" height="25"></rect>
                <rect id="Rectangle-8" fill="#EDC7C9" x="500" y="50" width="50" height="50"></rect>
                <rect id="Rectangle-8" fill="#EDC7C9" x="250" y="50" width="50" height="50"></rect>
                <rect id="Rectangle-8" fill="#EDC7C9" x="50" y="50" width="50" height="50"></rect>
                <rect id="Rectangle-8" fill="#EDC7C9" x="400" y="1000" width="50" height="50"></rect>
                <rect id="Rectangle-8" fill="#EDC7C9" x="200" y="1000" width="50" height="50"></rect>
                <rect id="Rectangle-8" fill="#E4B6B7" x="475" y="1075" width="25" height="25"></rect>
                <rect id="Rectangle-8" fill="#E4B6B7" x="550" y="0" width="25" height="25"></rect>
                <rect id="Rectangle-8" fill="#EDC7C9" x="425" y="75" width="25" height="25"></rect>
                <rect id="Rectangle-8" fill="#EDC7C9" x="175" y="75" width="25" height="25"></rect>
                <rect id="Rectangle-8" fill="#EDC7C9" x="500" y="1025" width="25" height="25"></rect>
                <rect id="Rectangle-8" fill="#EDC7C9" x="125" y="1000" width="25" height="25"></rect>
                <rect id="Rectangle-8" fill="#EDC7C9" x="550" y="1000" width="25" height="25"></rect>
                <rect id="Rectangle-8" fill="#E4B6B7" x="275" y="1050" width="25" height="25"></rect>
                <rect id="Rectangle-8" fill="#E4B6B7" x="350" y="0" width="50" height="50"></rect>
                <rect id="Rectangle-8" fill="#E4B6B7" x="350" y="1050" width="50" height="50"></rect>
                <rect id="Rectangle-8" fill="#E4B6B7" x="50" y="1050" width="50" height="50"></rect>
                <rect id="Rectangle-8" fill="#F4D6D8" x="200" y="224" width="25" height="25"></rect>
                <rect id="Rectangle-8" fill="#F4D6D8" x="450" y="224" width="25" height="25"></rect>
                <rect id="Rectangle-8" fill="#F4D6D8" x="425" y="1075" width="25" height="25"></rect>
                <rect id="Rectangle-8" fill="#EDC7C9" x="125" y="75" width="25" height="25"></rect>
                <rect id="Rectangle-8" fill="#E4B6B7" x="0" y="50" width="50" height="50"></rect>
                <rect id="Rectangle-8" fill="#F4D6D8" x="200" y="50" width="25" height="25"></rect>
                <rect id="Rectangle-8" fill="#E4B6B7" x="150" y="25" width="25" height="25"></rect>
            </g>
        </g>
    </g>
</svg>