<?xml version="1.0" encoding="UTF-8"?>
<svg width="400px" height="800px" viewBox="0 0 400 800" version="1.1" xmlns="http://www.w3.org/2000/svg" xmlns:xlink="http://www.w3.org/1999/xlink">
    <!-- Generator: Sketch 49 (51002) - http://www.bohemiancoding.com/sketch -->
    <title>mdpi/Group 7</title>
    <desc>Created with Sketch.</desc>
    <defs></defs>
    <g id="CASE-STUDY" stroke="none" stroke-width="1" fill="none" fill-rule="evenodd">
        <g id="Artboard-5" transform="translate(0.000000, -2000.000000)">
            <g id="Group-7" transform="translate(0.000000, 2000.000000)">
                <rect id="Rectangle-8" fill="#F4D6D8" x="0" y="50" width="400" height="700"></rect>
                <rect id="Rectangle-8" fill="#EDC7C9" x="300" y="50" width="50" height="50"></rect>
                <rect id="Rectangle-8" fill="#EDC7C9" x="0" y="50" width="50" height="50"></rect>
                <rect id="Rectangle-8" fill="#EDC7C9" x="150" y="50" width="25" height="25"></rect>
                <rect id="Rectangle-8" fill="#EDC7C9" x="200" y="75" width="25" height="25"></rect>
                <rect id="Rectangle-8" fill="#E4B6B7" x="225" y="25" width="25" height="25"></rect>
                <rect id="Rectangle-8" fill="#E4B6B7" x="325" y="0" width="25" height="25"></rect>
                <rect id="Rectangle-8" fill="#E4B6B7" x="100" y="0" width="50" height="50"></rect>
                <rect id="Rectangle-8" fill="#F4D6D8" x="25" y="0" width="25" height="25"></rect>
                <rect id="Rectangle-8" fill="#EDC7C9" x="0" y="725" width="25" height="25"></rect>
                <rect id="Rectangle-8" fill="#EDC7C9" x="175" y="725" width="25" height="25"></rect>
                <rect id="Rectangle-8" fill="#EDC7C9" x="50" y="700" width="25" height="25"></rect>
                <rect id="Rectangle-8" fill="#E4B6B7" x="350" y="750" width="50" height="50"></rect>
                <rect id="Rectangle-8" fill="#EDC7C9" x="250" y="700" width="50" height="50"></rect>
                <rect id="Rectangle-8" fill="#E4B6B7" x="101" y="750" width="25" height="25"></rect>
                <rect id="Rectangle-8" fill="#E4B6B7" x="50" y="775" width="25" height="25"></rect>
                <rect id="Rectangle-8" fill="#E4B6B7" x="250" y="775" width="25" height="25"></rect>
            </g>
        </g>
    </g>
</svg>