<?xml version="1.0" encoding="UTF-8"?>
<svg width="700px" height="2830px" viewBox="0 0 700 2830" version="1.1" xmlns="http://www.w3.org/2000/svg" xmlns:xlink="http://www.w3.org/1999/xlink">
    <!-- Generator: Sketch 49.1 (51147) - http://www.bohemiancoding.com/sketch -->
    <title>mdpi/pt_ia_wide</title>
    <desc>Created with Sketch.</desc>
    <defs></defs>
    <g id="Page-1" stroke="none" stroke-width="1" fill="none" fill-rule="evenodd">
        <g id="Artboard-13" transform="translate(-3753.000000, 0.000000)">
            <g id="pt_ia_wide" transform="translate(3753.000000, 0.000000)">
                <rect id="Rectangle-8" fill="#F4D6D8" x="650" y="450" width="50" height="50"></rect>
                <rect id="Rectangle-8" fill="#F4D6D8" x="675" y="375" width="25" height="25"></rect>
                <rect id="Rectangle-8" fill="#E4B6B7" x="650" y="600" width="25" height="25"></rect>
                <rect id="Rectangle-8" fill="#F4D6D8" x="650" y="250" width="50" height="50"></rect>
                <rect id="Rectangle-8" fill="#E4B6B7" x="650" y="325" width="25" height="25"></rect>
                <rect id="Rectangle-8" fill="#E4B6B7" x="675" y="651" width="25" height="25"></rect>
                <rect id="Rectangle-8" fill="#E4B6B7" x="675" y="951" width="25" height="25"></rect>
                <rect id="Rectangle-8" fill="#E4B6B7" x="650" y="1050" width="50" height="50"></rect>
                <rect id="Rectangle-8" fill="#F4D6D8" x="675" y="800" width="25" height="25"></rect>
                <rect id="Rectangle-8" fill="#E4B6B7" x="650" y="850" width="50" height="50"></rect>
                <rect id="Rectangle-8" fill="#F4D6D8" x="675" y="700" width="25" height="25"></rect>
                <rect id="Rectangle-8" fill="#F4D6D8" x="50" y="250" width="600" height="2580"></rect>
                <rect id="Rectangle-8" fill="#F4D6D8" transform="translate(12.500000, 887.500000) scale(-1, 1) translate(-12.500000, -887.500000) " x="0" y="875" width="25" height="25"></rect>
                <rect id="Rectangle-8" fill="#E4B6B7" transform="translate(25.000000, 825.000000) scale(-1, 1) translate(-25.000000, -825.000000) " x="0" y="800" width="50" height="50"></rect>
                <rect id="Rectangle-8" fill="#F4D6D8" transform="translate(25.000000, 725.000000) scale(-1, 1) translate(-25.000000, -725.000000) " x="0" y="700" width="50" height="50"></rect>
                <rect id="Rectangle-8" fill="#F4D6D8" transform="translate(12.500000, 637.500000) scale(-1, 1) translate(-12.500000, -637.500000) " x="0" y="625" width="25" height="25"></rect>
                <rect id="Rectangle-8" fill="#F4D6D8" transform="translate(25.000000, 525.000000) scale(-1, 1) translate(-25.000000, -525.000000) " x="0" y="500" width="50" height="50"></rect>
                <rect id="Rectangle-8" fill="#F4D6D8" transform="translate(12.500000, 337.500000) scale(-1, 1) translate(-12.500000, -337.500000) " x="0" y="325" width="25" height="25"></rect>
                <rect id="Rectangle-8" fill="#E4B6B7" transform="translate(25.000000, 425.000000) scale(-1, 1) translate(-25.000000, -425.000000) " x="0" y="400" width="50" height="50"></rect>
                <rect id="Rectangle-8" fill="#E4B6B7" transform="translate(37.500000, 587.500000) scale(-1, 1) translate(-37.500000, -587.500000) " x="25" y="575" width="25" height="25"></rect>
                <rect id="Rectangle-8" fill="#E4B6B7" transform="translate(12.500000, 1037.500000) scale(-1, 1) translate(-12.500000, -1037.500000) " x="0" y="1025" width="25" height="25"></rect>
                <rect id="Rectangle-8" fill="#F4D6D8" transform="translate(37.500000, 962.500000) scale(-1, 1) translate(-37.500000, -962.500000) " x="25" y="950" width="25" height="25"></rect>
                <rect id="Rectangle-8" fill="#F4D6D8" transform="translate(37.500000, 1062.500000) scale(-1, 1) translate(-37.500000, -1062.500000) " x="25" y="1050" width="25" height="25"></rect>
                <rect id="Rectangle-8" fill="#E4B6B7" transform="translate(37.500000, 262.500000) scale(-1, 1) translate(-37.500000, -262.500000) " x="25" y="250" width="25" height="25"></rect>
                <rect id="Rectangle-8" fill="#F4D6D8" transform="translate(100.000000, 225.000000) scale(-1, -1) translate(-100.000000, -225.000000) " x="75" y="200" width="50" height="50"></rect>
                <rect id="Rectangle-8" fill="#F4D6D8" transform="translate(512.500000, 212.500000) scale(-1, -1) translate(-512.500000, -212.500000) " x="500" y="200" width="25" height="25"></rect>
                <rect id="Rectangle-8" fill="#EDC7C9" transform="translate(275.000000, 275.000000) scale(-1, -1) translate(-275.000000, -275.000000) " x="250" y="250" width="50" height="50"></rect>
                <rect id="Rectangle-8" fill="#EDC7C9" transform="translate(475.000000, 275.000000) scale(-1, -1) translate(-475.000000, -275.000000) " x="450" y="250" width="50" height="50"></rect>
                <rect id="Rectangle-8" fill="#E4B6B7" transform="translate(187.500000, 212.500000) scale(-1, -1) translate(-187.500000, -212.500000) " x="175" y="200" width="25" height="25"></rect>
                <rect id="Rectangle-8" fill="#EDC7C9" transform="translate(187.500000, 262.500000) scale(-1, -1) translate(-187.500000, -262.500000) " x="175" y="250" width="25" height="25"></rect>
                <rect id="Rectangle-8" fill="#EDC7C9" transform="translate(562.500000, 287.500000) scale(-1, -1) translate(-562.500000, -287.500000) " x="550" y="275" width="25" height="25"></rect>
                <rect id="Rectangle-8" fill="#EDC7C9" transform="translate(137.500000, 287.500000) scale(-1, -1) translate(-137.500000, -287.500000) " x="125" y="275" width="25" height="25"></rect>
                <rect id="Rectangle-8" fill="#E4B6B7" transform="translate(462.500000, 237.500000) scale(-1, -1) translate(-462.500000, -237.500000) " x="450" y="225" width="25" height="25"></rect>
                <rect id="Rectangle-8" fill="#E4B6B7" transform="translate(375.000000, 225.000000) scale(-1, -1) translate(-375.000000, -225.000000) " x="350" y="200" width="50" height="50"></rect>
                <rect id="Rectangle-8" fill="#E4B6B7" transform="translate(625.000000, 225.000000) scale(-1, -1) translate(-625.000000, -225.000000) " x="600" y="200" width="50" height="50"></rect>
                <rect id="Rectangle-8" fill="#F4D6D8" transform="translate(262.500000, 212.500000) scale(-1, -1) translate(-262.500000, -212.500000) " x="250" y="200" width="25" height="25"></rect>
                <rect id="Rectangle-8" fill="#F4D6D8" transform="translate(675.000000, 2380.000000) scale(1, -1) translate(-675.000000, -2380.000000) " x="650" y="2355" width="50" height="50"></rect>
                <rect id="Rectangle-8" fill="#E4B6B7" transform="translate(675.000000, 2233.000000) scale(1, -1) translate(-675.000000, -2233.000000) " x="650" y="2208" width="50" height="50"></rect>
                <rect id="Rectangle-8" fill="#E4B6B7" transform="translate(662.500000, 2295.500000) scale(1, -1) translate(-662.500000, -2295.500000) " x="650" y="2283" width="25" height="25"></rect>
                <rect id="Rectangle-8" fill="#F4D6D8" transform="translate(687.500000, 2070.500000) scale(1, -1) translate(-687.500000, -2070.500000) " x="675" y="2058" width="25" height="25"></rect>
                <rect id="Rectangle-8" fill="#E4B6B7" transform="translate(662.500000, 2145.500000) scale(1, -1) translate(-662.500000, -2145.500000) " x="650" y="2133" width="25" height="25"></rect>
                <rect id="Rectangle-8" fill="#F4D6D8" transform="translate(687.500000, 1410.500000) scale(1, -1) translate(-687.500000, -1410.500000) " x="675" y="1398" width="25" height="25"></rect>
                <rect id="Rectangle-8" fill="#E4B6B7" transform="translate(675.000000, 1573.000000) scale(1, -1) translate(-675.000000, -1573.000000) " x="650" y="1548" width="50" height="50"></rect>
                <rect id="Rectangle-8" fill="#F4D6D8" transform="translate(675.000000, 1673.000000) scale(1, -1) translate(-675.000000, -1673.000000) " x="650" y="1648" width="50" height="50"></rect>
                <rect id="Rectangle-8" fill="#F4D6D8" transform="translate(687.500000, 1760.500000) scale(1, -1) translate(-687.500000, -1760.500000) " x="675" y="1748" width="25" height="25"></rect>
                <rect id="Rectangle-8" fill="#F4D6D8" transform="translate(675.000000, 1873.000000) scale(1, -1) translate(-675.000000, -1873.000000) " x="650" y="1848" width="50" height="50"></rect>
                <rect id="Rectangle-8" fill="#E4B6B7" transform="translate(675.000000, 1973.000000) scale(1, -1) translate(-675.000000, -1973.000000) " x="650" y="1948" width="50" height="50"></rect>
                <rect id="Rectangle-8" fill="#E4B6B7" transform="translate(662.500000, 1810.500000) scale(1, -1) translate(-662.500000, -1810.500000) " x="650" y="1798" width="25" height="25"></rect>
                <rect id="Rectangle-8" fill="#F4D6D8" transform="translate(662.500000, 1335.500000) scale(1, -1) translate(-662.500000, -1335.500000) " x="650" y="1323" width="25" height="25"></rect>
                <rect id="Rectangle-8" fill="#F4D6D8" transform="translate(675.000000, 1473.000000) scale(1, -1) translate(-675.000000, -1473.000000) " x="650" y="1448" width="50" height="50"></rect>
                <rect id="Rectangle-8" fill="#E4B6B7" transform="translate(687.500000, 1184.500000) scale(1, -1) translate(-687.500000, -1184.500000) " x="675" y="1172" width="25" height="25"></rect>
                <rect id="Rectangle-8" fill="#F4D6D8" transform="translate(662.500000, 1112.500000) scale(1, -1) translate(-662.500000, -1112.500000) " x="650" y="1100" width="25" height="25"></rect>
                <rect id="Rectangle-8" fill="#F4D6D8" transform="translate(675.000000, 1222.000000) scale(1, -1) translate(-675.000000, -1222.000000) " x="650" y="1197" width="50" height="50"></rect>
                <rect id="Rectangle-8" fill="#E4B6B7" transform="translate(25.000000, 1952.000000) scale(1, -1) translate(-25.000000, -1952.000000) " x="0" y="1927" width="50" height="50"></rect>
                <rect id="Rectangle-8" fill="#E4B6B7" transform="translate(37.500000, 1789.500000) scale(1, -1) translate(-37.500000, -1789.500000) " x="25" y="1777" width="25" height="25"></rect>
                <rect id="Rectangle-8" fill="#F4D6D8" transform="translate(12.500000, 1864.500000) scale(1, -1) translate(-12.500000, -1864.500000) " x="0" y="1852" width="25" height="25"></rect>
                <rect id="Rectangle-8" fill="#F4D6D8" transform="translate(25.000000, 2307.000000) scale(1, -1) translate(-25.000000, -2307.000000) " x="0" y="2282" width="50" height="50"></rect>
                <rect id="Rectangle-8" fill="#F4D6D8" transform="translate(25.000000, 2102.000000) scale(1, -1) translate(-25.000000, -2102.000000) " x="0" y="2077" width="50" height="50"></rect>
                <rect id="Rectangle-8" fill="#F4D6D8" transform="translate(37.500000, 2189.500000) scale(1, -1) translate(-37.500000, -2189.500000) " x="25" y="2177" width="25" height="25"></rect>
                <rect id="Rectangle-8" fill="#E4B6B7" transform="translate(25.000000, 2405.000000) scale(1, -1) translate(-25.000000, -2405.000000) " x="0" y="2380" width="50" height="50"></rect>
                <rect id="Rectangle-8" fill="#E4B6B7" transform="translate(12.500000, 2239.500000) scale(1, -1) translate(-12.500000, -2239.500000) " x="0" y="2227" width="25" height="25"></rect>
                <rect id="Rectangle-8" fill="#F4D6D8" transform="translate(12.500000, 1612.500000) scale(-1, 1) translate(-12.500000, -1612.500000) " x="0" y="1600" width="25" height="25"></rect>
                <rect id="Rectangle-8" fill="#E4B6B7" transform="translate(25.000000, 1550.000000) scale(-1, 1) translate(-25.000000, -1550.000000) " x="0" y="1525" width="50" height="50"></rect>
                <rect id="Rectangle-8" fill="#F4D6D8" transform="translate(25.000000, 1450.000000) scale(-1, 1) translate(-25.000000, -1450.000000) " x="0" y="1425" width="50" height="50"></rect>
                <rect id="Rectangle-8" fill="#F4D6D8" transform="translate(12.500000, 1362.500000) scale(-1, 1) translate(-12.500000, -1362.500000) " x="0" y="1350" width="25" height="25"></rect>
                <rect id="Rectangle-8" fill="#F4D6D8" transform="translate(25.000000, 1250.000000) scale(-1, 1) translate(-25.000000, -1250.000000) " x="0" y="1225" width="50" height="50"></rect>
                <rect id="Rectangle-8" fill="#E4B6B7" transform="translate(25.000000, 1150.000000) scale(-1, 1) translate(-25.000000, -1150.000000) " x="0" y="1125" width="50" height="50"></rect>
                <rect id="Rectangle-8" fill="#E4B6B7" transform="translate(37.500000, 1312.500000) scale(-1, 1) translate(-37.500000, -1312.500000) " x="25" y="1300" width="25" height="25"></rect>
                <rect id="Rectangle-8" fill="#E4B6B7" transform="translate(12.500000, 1762.500000) scale(-1, 1) translate(-12.500000, -1762.500000) " x="0" y="1750" width="25" height="25"></rect>
                <rect id="Rectangle-8" fill="#F4D6D8" transform="translate(37.500000, 1687.500000) scale(-1, 1) translate(-37.500000, -1687.500000) " x="25" y="1675" width="25" height="25"></rect>
                <rect id="Rectangle-8" fill="#F4D6D8" x="50" y="0" width="600" height="100"></rect>
                <rect id="Rectangle-8" fill="#F4D6D8" x="0" y="51" width="25" height="25"></rect>
                <rect id="Rectangle-8" fill="#F4D6D8" x="25" y="0" width="25" height="25"></rect>
                <rect id="Rectangle-8" fill="#F4D6D8" x="0" y="100" width="50" height="50"></rect>
                <rect id="Rectangle-8" fill="#F4D6D8" x="675" y="75" width="25" height="25"></rect>
                <rect id="Rectangle-8" fill="#E4B6B7" transform="translate(37.500000, 87.500000) scale(-1, -1) translate(-37.500000, -87.500000) " x="25" y="75" width="25" height="25"></rect>
                <rect id="Rectangle-8" fill="#F4D6D8" transform="translate(662.500000, 112.500000) scale(-1, -1) translate(-662.500000, -112.500000) " x="650" y="100" width="25" height="25"></rect>
                <rect id="Rectangle-8" fill="#EDC7C9" transform="translate(175.000000, 75.000000) scale(-1, -1) translate(-175.000000, -75.000000) " x="150" y="50" width="50" height="50"></rect>
                <rect id="Rectangle-8" fill="#EDC7C9" transform="translate(425.000000, 75.000000) scale(-1, -1) translate(-425.000000, -75.000000) " x="400" y="50" width="50" height="50"></rect>
                <rect id="Rectangle-8" fill="#EDC7C9" transform="translate(625.000000, 75.000000) scale(-1, -1) translate(-625.000000, -75.000000) " x="600" y="50" width="50" height="50"></rect>
                <rect id="Rectangle-8" fill="#E4B6B7" transform="translate(137.500000, 137.500000) scale(-1, -1) translate(-137.500000, -137.500000) " x="125" y="125" width="25" height="25"></rect>
                <rect id="Rectangle-8" fill="#E4B6B7" transform="translate(562.500000, 137.500000) scale(-1, -1) translate(-562.500000, -137.500000) " x="550" y="125" width="25" height="25"></rect>
                <rect id="Rectangle-8" fill="#EDC7C9" transform="translate(262.500000, 62.500000) scale(-1, -1) translate(-262.500000, -62.500000) " x="250" y="50" width="25" height="25"></rect>
                <rect id="Rectangle-8" fill="#EDC7C9" transform="translate(512.500000, 62.500000) scale(-1, -1) translate(-512.500000, -62.500000) " x="500" y="50" width="25" height="25"></rect>
                <rect id="Rectangle-8" fill="#E4B6B7" transform="translate(325.000000, 125.000000) scale(-1, -1) translate(-325.000000, -125.000000) " x="300" y="100" width="50" height="50"></rect>
                <rect id="Rectangle-8" fill="#F4D6D8" transform="translate(487.500000, 112.500000) scale(-1, -1) translate(-487.500000, -112.500000) " x="475" y="100" width="25" height="25"></rect>
                <rect id="Rectangle-8" fill="#F4D6D8" transform="translate(237.500000, 112.500000) scale(-1, -1) translate(-237.500000, -112.500000) " x="225" y="100" width="25" height="25"></rect>
                <rect id="Rectangle-8" fill="#E4B6B7" transform="translate(662.500000, 38.500000) scale(-1, -1) translate(-662.500000, -38.500000) " x="650" y="26" width="25" height="25"></rect>
                <rect id="Rectangle-8" fill="#E4B6B7" x="675" y="2656" width="25" height="25"></rect>
                <rect id="Rectangle-8" fill="#E4B6B7" x="650" y="2755" width="50" height="50"></rect>
                <rect id="Rectangle-8" fill="#F4D6D8" x="675" y="2505" width="25" height="25"></rect>
                <rect id="Rectangle-8" fill="#E4B6B7" x="650" y="2555" width="50" height="50"></rect>
                <rect id="Rectangle-8" fill="#F4D6D8" transform="translate(12.500000, 2592.500000) scale(-1, 1) translate(-12.500000, -2592.500000) " x="0" y="2580" width="25" height="25"></rect>
                <rect id="Rectangle-8" fill="#E4B6B7" transform="translate(25.000000, 2530.000000) scale(-1, 1) translate(-25.000000, -2530.000000) " x="0" y="2505" width="50" height="50"></rect>
                <rect id="Rectangle-8" fill="#E4B6B7" transform="translate(12.500000, 2742.500000) scale(-1, 1) translate(-12.500000, -2742.500000) " x="0" y="2730" width="25" height="25"></rect>
                <rect id="Rectangle-8" fill="#F4D6D8" transform="translate(37.500000, 2667.500000) scale(-1, 1) translate(-37.500000, -2667.500000) " x="25" y="2655" width="25" height="25"></rect>
                <rect id="Rectangle-8" fill="#F4D6D8" transform="translate(37.500000, 2767.500000) scale(-1, 1) translate(-37.500000, -2767.500000) " x="25" y="2755" width="25" height="25"></rect>
                <rect id="Rectangle-8" fill="#E4B6B7" transform="translate(662.500000, 2442.500000) scale(-1, 1) translate(-662.500000, -2442.500000) " x="650" y="2430" width="25" height="25"></rect>
                <rect id="Rectangle-8" fill="#F4D6D8" transform="translate(687.500000, 2467.500000) scale(-1, 1) translate(-687.500000, -2467.500000) " x="675" y="2455" width="25" height="25"></rect>
                <rect id="Rectangle-8" fill="#F4D6D8" transform="translate(662.500000, 2817.500000) scale(1, -1) translate(-662.500000, -2817.500000) " x="650" y="2805" width="25" height="25"></rect>
            </g>
        </g>
    </g>
</svg>