<?xml version="1.0" encoding="UTF-8"?>
<svg width="700px" height="2830px" viewBox="0 0 700 2830" version="1.1" xmlns="http://www.w3.org/2000/svg" xmlns:xlink="http://www.w3.org/1999/xlink">
    <!-- Generator: Sketch 49.1 (51147) - http://www.bohemiancoding.com/sketch -->
    <title>mdpi/pt_mockups_wide</title>
    <desc>Created with Sketch.</desc>
    <defs></defs>
    <g id="Page-1" stroke="none" stroke-width="1" fill="none" fill-rule="evenodd">
        <g id="Artboard-13" transform="translate(-4523.000000, 0.000000)">
            <g id="pt_mockups_wide" transform="translate(4523.000000, 0.000000)">
                <rect id="Rectangle-8" fill="#F4D6D8" transform="translate(350.000000, 1540.000000) scale(-1, 1) translate(-350.000000, -1540.000000) " x="50" y="250" width="600" height="2580"></rect>
                <rect id="Rectangle-8" fill="#F4D6D8" transform="translate(675.000000, 1100.000000) scale(-1, 1) translate(-675.000000, -1100.000000) " x="650" y="1075" width="50" height="50"></rect>
                <rect id="Rectangle-8" fill="#F4D6D8" transform="translate(662.500000, 1012.500000) scale(-1, 1) translate(-662.500000, -1012.500000) " x="650" y="1000" width="25" height="25"></rect>
                <rect id="Rectangle-8" fill="#E4B6B7" transform="translate(25.000000, 875.000000) scale(-1, 1) translate(-25.000000, -875.000000) " x="0" y="850" width="50" height="50"></rect>
                <rect id="Rectangle-8" fill="#E4B6B7" transform="translate(12.500000, 1037.500000) scale(-1, 1) translate(-12.500000, -1037.500000) " x="0" y="1025" width="25" height="25"></rect>
                <rect id="Rectangle-8" fill="#E4B6B7" transform="translate(12.500000, 1162.500000) scale(-1, 1) translate(-12.500000, -1162.500000) " x="0" y="1150" width="25" height="25"></rect>
                <rect id="Rectangle-8" fill="#F4D6D8" transform="translate(37.500000, 962.500000) scale(-1, 1) translate(-37.500000, -962.500000) " x="25" y="950" width="25" height="25"></rect>
                <rect id="Rectangle-8" fill="#F4D6D8" transform="translate(25.000000, 525.000000) scale(-1, 1) translate(-25.000000, -525.000000) " x="0" y="500" width="50" height="50"></rect>
                <rect id="Rectangle-8" fill="#F4D6D8" transform="translate(25.000000, 725.000000) scale(-1, 1) translate(-25.000000, -725.000000) " x="0" y="700" width="50" height="50"></rect>
                <rect id="Rectangle-8" fill="#F4D6D8" transform="translate(12.500000, 337.500000) scale(-1, 1) translate(-12.500000, -337.500000) " x="0" y="325" width="25" height="25"></rect>
                <rect id="Rectangle-8" fill="#F4D6D8" transform="translate(12.500000, 637.500000) scale(-1, 1) translate(-12.500000, -637.500000) " x="0" y="625" width="25" height="25"></rect>
                <rect id="Rectangle-8" fill="#E4B6B7" transform="translate(25.000000, 425.000000) scale(-1, 1) translate(-25.000000, -425.000000) " x="0" y="400" width="50" height="50"></rect>
                <rect id="Rectangle-8" fill="#E4B6B7" transform="translate(37.500000, 587.500000) scale(-1, 1) translate(-37.500000, -587.500000) " x="25" y="575" width="25" height="25"></rect>
                <rect id="Rectangle-8" fill="#E4B6B7" transform="translate(37.500000, 262.500000) scale(-1, 1) translate(-37.500000, -262.500000) " x="25" y="250" width="25" height="25"></rect>
                <rect id="Rectangle-8" fill="#F4D6D8" transform="translate(675.000000, 350.000000) scale(-1, 1) translate(-675.000000, -350.000000) " x="650" y="325" width="50" height="50"></rect>
                <rect id="Rectangle-8" fill="#F4D6D8" transform="translate(662.500000, 237.500000) scale(-1, 1) translate(-662.500000, -237.500000) " x="650" y="225" width="25" height="25"></rect>
                <rect id="Rectangle-8" fill="#E4B6B7" transform="translate(675.000000, 550.000000) scale(-1, 1) translate(-675.000000, -550.000000) " x="650" y="525" width="50" height="50"></rect>
                <rect id="Rectangle-8" fill="#E4B6B7" transform="translate(687.500000, 487.500000) scale(-1, 1) translate(-687.500000, -487.500000) " x="675" y="475" width="25" height="25"></rect>
                <rect id="Rectangle-8" fill="#F4D6D8" transform="translate(675.000000, 900.000000) scale(-1, 1) translate(-675.000000, -900.000000) " x="650" y="875" width="50" height="50"></rect>
                <rect id="Rectangle-8" fill="#F4D6D8" transform="translate(662.500000, 712.500000) scale(-1, 1) translate(-662.500000, -712.500000) " x="650" y="700" width="25" height="25"></rect>
                <rect id="Rectangle-8" fill="#E4B6B7" transform="translate(675.000000, 800.000000) scale(-1, 1) translate(-675.000000, -800.000000) " x="650" y="775" width="50" height="50"></rect>
                <rect id="Rectangle-8" fill="#E4B6B7" transform="translate(687.500000, 962.500000) scale(-1, 1) translate(-687.500000, -962.500000) " x="675" y="950" width="25" height="25"></rect>
                <rect id="Rectangle-8" fill="#E4B6B7" transform="translate(687.500000, 637.500000) scale(-1, 1) translate(-687.500000, -637.500000) " x="675" y="625" width="25" height="25"></rect>
                <rect id="Rectangle-8" fill="#EDC7C9" transform="translate(575.000000, 275.000000) scale(-1, 1) translate(-575.000000, -275.000000) " x="550" y="250" width="50" height="50"></rect>
                <rect id="Rectangle-8" fill="#EDC7C9" transform="translate(225.000000, 275.000000) scale(-1, 1) translate(-225.000000, -275.000000) " x="200" y="250" width="50" height="50"></rect>
                <rect id="Rectangle-8" fill="#EDC7C9" transform="translate(75.000000, 275.000000) scale(-1, 1) translate(-75.000000, -275.000000) " x="50" y="250" width="50" height="50"></rect>
                <rect id="Rectangle-8" fill="#E4B6B7" transform="translate(137.500000, 212.500000) scale(-1, 1) translate(-137.500000, -212.500000) " x="125" y="200" width="25" height="25"></rect>
                <rect id="Rectangle-8" fill="#EDC7C9" transform="translate(387.500000, 262.500000) scale(-1, 1) translate(-387.500000, -262.500000) " x="375" y="250" width="25" height="25"></rect>
                <rect id="Rectangle-8" fill="#E4B6B7" transform="translate(325.000000, 225.000000) scale(-1, 1) translate(-325.000000, -225.000000) " x="300" y="200" width="50" height="50"></rect>
                <rect id="Rectangle-8" fill="#F4D6D8" transform="translate(462.500000, 237.500000) scale(-1, 1) translate(-462.500000, -237.500000) " x="450" y="225" width="25" height="25"></rect>
                <rect id="Rectangle-8" fill="#F4D6D8" transform="translate(237.500000, 237.500000) scale(-1, 1) translate(-237.500000, -237.500000) " x="225" y="225" width="25" height="25"></rect>
                <rect id="Rectangle-8" fill="#F4D6D8" x="50" y="0" width="600" height="100"></rect>
                <rect id="Rectangle-8" fill="#EDC7C9" x="75" y="50" width="50" height="50"></rect>
                <rect id="Rectangle-8" fill="#EDC7C9" x="325" y="50" width="50" height="50"></rect>
                <rect id="Rectangle-8" fill="#EDC7C9" x="525" y="50" width="50" height="50"></rect>
                <rect id="Rectangle-8" fill="#E4B6B7" x="25" y="100" width="25" height="25"></rect>
                <rect id="Rectangle-8" fill="#EDC7C9" x="150" y="100" width="25" height="25"></rect>
                <rect id="Rectangle-8" fill="#EDC7C9" x="400" y="100" width="25" height="25"></rect>
                <rect id="Rectangle-8" fill="#E4B6B7" x="225" y="100" width="50" height="50"></rect>
                <rect id="Rectangle-8" fill="#E4B6B7" x="650" y="0" width="50" height="50"></rect>
                <rect id="Rectangle-8" fill="#EDC7C9" x="450" y="100" width="25" height="25"></rect>
                <rect id="Rectangle-8" fill="#E4B6B7" x="575" y="50" width="50" height="50"></rect>
                <rect id="Rectangle-8" fill="#E4B6B7" x="425" y="75" width="25" height="25"></rect>
                <rect id="Rectangle-8" fill="#E4B6B7" x="650" y="100" width="25" height="25"></rect>
                <rect id="Rectangle-8" fill="#F4D6D8" x="0" y="50" width="25" height="25"></rect>
                <rect id="Rectangle-8" fill="#E4B6B7" x="25" y="0" width="25" height="25"></rect>
                <rect id="Rectangle-8" fill="#E4B6B7" transform="translate(37.500000, 1536.500000) scale(1, -1) translate(-37.500000, -1536.500000) " x="25" y="1524" width="25" height="25"></rect>
                <rect id="Rectangle-8" fill="#E4B6B7" transform="translate(37.500000, 1411.500000) scale(1, -1) translate(-37.500000, -1411.500000) " x="25" y="1399" width="25" height="25"></rect>
                <rect id="Rectangle-8" fill="#F4D6D8" transform="translate(12.500000, 1462.500000) scale(1, -1) translate(-12.500000, -1462.500000) " x="0" y="1450" width="25" height="25"></rect>
                <rect id="Rectangle-8" fill="#F4D6D8" transform="translate(12.500000, 1211.500000) scale(1, -1) translate(-12.500000, -1211.500000) " x="0" y="1199" width="25" height="25"></rect>
                <rect id="Rectangle-8" fill="#F4D6D8" transform="translate(687.500000, 1312.500000) scale(1, -1) translate(-687.500000, -1312.500000) " x="675" y="1300" width="25" height="25"></rect>
                <rect id="Rectangle-8" fill="#E4B6B7" transform="translate(25.000000, 1325.000000) scale(1, -1) translate(-25.000000, -1325.000000) " x="0" y="1300" width="50" height="50"></rect>
                <rect id="Rectangle-8" fill="#F4D6D8" transform="translate(662.500000, 1237.500000) scale(1, -1) translate(-662.500000, -1237.500000) " x="650" y="1225" width="25" height="25"></rect>
                <rect id="Rectangle-8" fill="#F4D6D8" transform="translate(675.000000, 1375.000000) scale(1, -1) translate(-675.000000, -1375.000000) " x="650" y="1350" width="50" height="50"></rect>
                <rect id="Rectangle-8" fill="#E4B6B7" transform="translate(675.000000, 1450.000000) scale(1, -1) translate(-675.000000, -1450.000000) " x="650" y="1425" width="50" height="50"></rect>
                <rect id="Rectangle-8" fill="#F4D6D8" transform="translate(675.000000, 1550.000000) scale(1, -1) translate(-675.000000, -1550.000000) " x="650" y="1525" width="50" height="50"></rect>
                <rect id="Rectangle-8" fill="#F4D6D8" transform="translate(687.500000, 1712.500000) scale(1, -1) translate(-687.500000, -1712.500000) " x="675" y="1700" width="25" height="25"></rect>
                <rect id="Rectangle-8" fill="#E4B6B7" transform="translate(675.000000, 1650.000000) scale(1, -1) translate(-675.000000, -1650.000000) " x="650" y="1625" width="50" height="50"></rect>
                <rect id="Rectangle-8" fill="#F4D6D8" transform="translate(687.500000, 1812.500000) scale(1, -1) translate(-687.500000, -1812.500000) " x="675" y="1800" width="25" height="25"></rect>
                <rect id="Rectangle-8" fill="#F4D6D8" transform="translate(662.500000, 2042.500000) scale(-1, -1) translate(-662.500000, -2042.500000) " x="650" y="2030" width="25" height="25"></rect>
                <rect id="Rectangle-8" fill="#E4B6B7" transform="translate(675.000000, 2105.000000) scale(-1, -1) translate(-675.000000, -2105.000000) " x="650" y="2080" width="50" height="50"></rect>
                <rect id="Rectangle-8" fill="#F4D6D8" transform="translate(675.000000, 2205.000000) scale(-1, -1) translate(-675.000000, -2205.000000) " x="650" y="2180" width="50" height="50"></rect>
                <rect id="Rectangle-8" fill="#F4D6D8" transform="translate(662.500000, 2292.500000) scale(-1, -1) translate(-662.500000, -2292.500000) " x="650" y="2280" width="25" height="25"></rect>
                <rect id="Rectangle-8" fill="#F4D6D8" transform="translate(675.000000, 2405.000000) scale(-1, -1) translate(-675.000000, -2405.000000) " x="650" y="2380" width="50" height="50"></rect>
                <rect id="Rectangle-8" fill="#E4B6B7" transform="translate(687.500000, 2342.500000) scale(-1, -1) translate(-687.500000, -2342.500000) " x="675" y="2330" width="25" height="25"></rect>
                <rect id="Rectangle-8" fill="#E4B6B7" transform="translate(662.500000, 1892.500000) scale(-1, -1) translate(-662.500000, -1892.500000) " x="650" y="1880" width="25" height="25"></rect>
                <rect id="Rectangle-8" fill="#F4D6D8" transform="translate(687.500000, 1967.500000) scale(-1, -1) translate(-687.500000, -1967.500000) " x="675" y="1955" width="25" height="25"></rect>
                <rect id="Rectangle-8" fill="#F4D6D8" transform="translate(687.500000, 1867.500000) scale(-1, -1) translate(-687.500000, -1867.500000) " x="675" y="1855" width="25" height="25"></rect>
                <rect id="Rectangle-8" fill="#E4B6B7" transform="translate(37.500000, 1787.500000) scale(1, -1) translate(-37.500000, -1787.500000) " x="25" y="1775" width="25" height="25"></rect>
                <rect id="Rectangle-8" fill="#F4D6D8" transform="translate(12.500000, 2012.500000) scale(1, -1) translate(-12.500000, -2012.500000) " x="0" y="2000" width="25" height="25"></rect>
                <rect id="Rectangle-8" fill="#E4B6B7" transform="translate(25.000000, 1875.000000) scale(1, -1) translate(-25.000000, -1875.000000) " x="0" y="1850" width="50" height="50"></rect>
                <rect id="Rectangle-8" fill="#F4D6D8" transform="translate(25.000000, 1525.000000) scale(1, -1) translate(-25.000000, -1525.000000) " x="0" y="1500" width="50" height="50"></rect>
                <rect id="Rectangle-8" fill="#F4D6D8" transform="translate(25.000000, 1725.000000) scale(1, -1) translate(-25.000000, -1725.000000) " x="0" y="1700" width="50" height="50"></rect>
                <rect id="Rectangle-8" fill="#F4D6D8" transform="translate(37.500000, 1362.500000) scale(1, -1) translate(-37.500000, -1362.500000) " x="25" y="1350" width="25" height="25"></rect>
                <rect id="Rectangle-8" fill="#F4D6D8" transform="translate(37.500000, 1662.500000) scale(1, -1) translate(-37.500000, -1662.500000) " x="25" y="1650" width="25" height="25"></rect>
                <rect id="Rectangle-8" fill="#F4D6D8" transform="translate(37.500000, 1262.500000) scale(1, -1) translate(-37.500000, -1262.500000) " x="25" y="1250" width="25" height="25"></rect>
                <rect id="Rectangle-8" fill="#F4D6D8" transform="translate(37.500000, 2392.500000) scale(1, -1) translate(-37.500000, -2392.500000) " x="25" y="2380" width="25" height="25"></rect>
                <rect id="Rectangle-8" fill="#F4D6D8" transform="translate(25.000000, 2255.000000) scale(1, -1) translate(-25.000000, -2255.000000) " x="0" y="2230" width="50" height="50"></rect>
                <rect id="Rectangle-8" fill="#F4D6D8" transform="translate(37.500000, 2092.500000) scale(1, -1) translate(-37.500000, -2092.500000) " x="25" y="2080" width="25" height="25"></rect>
                <rect id="Rectangle-8" fill="#E4B6B7" transform="translate(25.000000, 2155.000000) scale(1, -1) translate(-25.000000, -2155.000000) " x="0" y="2130" width="50" height="50"></rect>
                <rect id="Rectangle-8" fill="#E4B6B7" transform="translate(12.500000, 2342.500000) scale(1, -1) translate(-12.500000, -2342.500000) " x="0" y="2330" width="25" height="25"></rect>
                <rect id="Rectangle-8" fill="#F4D6D8" transform="translate(662.500000, 2817.500000) scale(-1, 1) translate(-662.500000, -2817.500000) " x="650" y="2805" width="25" height="25"></rect>
                <rect id="Rectangle-8" fill="#E4B6B7" transform="translate(25.000000, 2805.000000) scale(-1, 1) translate(-25.000000, -2805.000000) " x="0" y="2780" width="50" height="50"></rect>
                <rect id="Rectangle-8" fill="#F4D6D8" transform="translate(25.000000, 2455.000000) scale(-1, 1) translate(-25.000000, -2455.000000) " x="0" y="2430" width="50" height="50"></rect>
                <rect id="Rectangle-8" fill="#F4D6D8" transform="translate(25.000000, 2655.000000) scale(-1, 1) translate(-25.000000, -2655.000000) " x="0" y="2630" width="50" height="50"></rect>
                <rect id="Rectangle-8" fill="#F4D6D8" transform="translate(12.500000, 2567.500000) scale(-1, 1) translate(-12.500000, -2567.500000) " x="0" y="2555" width="25" height="25"></rect>
                <rect id="Rectangle-8" fill="#E4B6B7" transform="translate(37.500000, 2517.500000) scale(-1, 1) translate(-37.500000, -2517.500000) " x="25" y="2505" width="25" height="25"></rect>
                <rect id="Rectangle-8" fill="#E4B6B7" transform="translate(675.000000, 2505.000000) scale(-1, 1) translate(-675.000000, -2505.000000) " x="650" y="2480" width="50" height="50"></rect>
                <rect id="Rectangle-8" fill="#F4D6D8" transform="translate(662.500000, 2642.500000) scale(-1, 1) translate(-662.500000, -2642.500000) " x="650" y="2630" width="25" height="25"></rect>
                <rect id="Rectangle-8" fill="#E4B6B7" transform="translate(675.000000, 2730.000000) scale(-1, 1) translate(-675.000000, -2730.000000) " x="650" y="2705" width="50" height="50"></rect>
                <rect id="Rectangle-8" fill="#E4B6B7" transform="translate(687.500000, 2567.500000) scale(-1, 1) translate(-687.500000, -2567.500000) " x="675" y="2555" width="25" height="25"></rect>
            </g>
        </g>
    </g>
</svg>