<svg xmlns="http://www.w3.org/2000/svg" viewBox="0 0 2240 617.33" style=""><defs><style>.cls-1{fill:none;stroke:#000;stroke-linecap:round;stroke-miterlimit:10;stroke-width:50px;}</style></defs><title>Asset 2</title><g id="Layer_2" data-name="Layer 2"><g id="Layer_1-2" data-name="Layer 1"><path class="cls-1 WBByVaaB_0" d="M208.33,298.33L146.33,298.33L63.67,298.33L45,298.33L39.67,298.33L36.33,293L36.33,289.67L36.33,284.33L40.33,277L51.67,262.33L77.67,243.67L122.33,220.33L178.33,192.33L235.67,161.67L293,135L352.33,109L404.33,88.33L454.33,70.33L517.67,50.33L567.67,38.33L621.67,29.67L663,25L687.67,25L700.33,30.33L707.67,39.67L710.33,53.67L710.33,66.33L702.33,83L680.33,114.33L636.33,155L563.67,216.33L420.33,318.33L319,392.33L201,483.67L111.67,547L54.33,587.67L44.33,592.33L36.33,592.33L28.33,587L25,581L25,568.33L39,547.67L86.33,495.67L143.67,437L195,391L257,349L329,308.67L379.67,284.33L441.67,259.67L505,240.33L538.92,233.95"></path><path class="cls-1 WBByVaaB_1" d="M1081,25L1022.33,39L964.33,57.67L908.33,77L855,99L799.67,123.67L749.67,152.33L703.67,179L671,207L656.33,224.33L656.33,229L656.33,235.67L663.67,239.67L675,239.67L695.67,239.67L721,235.67L806.33,220.33L872.33,209.67L926.33,201L971,199L1025.67,197.67L1075,201.67L1121.57,211L1159,221L1193.67,239.67L1227.67,256.33L1269,279L1316.33,295L1362.33,299L1421,303L1461.67,299.67L1519,296.33L1599.67,293L1723,288.33L1817.67,287L1897,287L1985.67,289.67L2101,291L2215,297.67"></path></g></g><style>.WBByVaaB_0{stroke-dasharray:2467 2469;stroke-dashoffset:2468;animation:WBByVaaB_draw 815ms linear 0ms forwards;}.WBByVaaB_1{stroke-dasharray:2070 2072;stroke-dashoffset:2071;animation:WBByVaaB_draw 684ms linear 815ms forwards;}@keyframes WBByVaaB_draw{100%{stroke-dashoffset:0;}}@keyframes WBByVaaB_fade{0%{stroke-opacity:1;}93.22033898305085%{stroke-opacity:1;}100%{stroke-opacity:0;}}</style></svg>