<svg xmlns="http://www.w3.org/2000/svg" viewBox="0 0 900 400.04"><defs><style>.cls-1{fill:#abc4a1;}.cls-2{fill:#bce2b5;}.cls-3{fill:#b4d6ae;}</style></defs><title>Asset 5</title><g id="Layer_2" data-name="Layer 2"><g id="Layer_1-2" data-name="Layer 1"><rect class="cls-1" x="550" y="200.04" width="50" height="50"/><rect class="cls-2" x="850" y="250.04" width="50" height="50"/><rect class="cls-3" x="300" y="250.04" width="50" height="50"/><rect class="cls-1" x="300" y="300.04" width="100" height="100"/><rect class="cls-2" x="600" y="150.04" width="100" height="100"/><rect class="cls-3" x="800" y="300.04" width="100" height="100"/><rect class="cls-1" x="600" y="250.04" width="150" height="150"/><rect class="cls-2" x="750" y="0.04" width="150" height="150"/><rect class="cls-3" x="400" y="250.04" width="150" height="150"/><rect class="cls-1" x="450" y="0.04" width="50" height="50"/><rect class="cls-1" x="550" y="300.04" width="50" height="50"/><rect class="cls-2" x="550" y="250.04" width="50" height="50"/><rect class="cls-2" x="750" y="350.04" width="50" height="50"/><rect class="cls-3" x="750" y="300.04" width="50" height="50"/><rect class="cls-3" x="500" y="0.04" width="50" height="50"/><rect class="cls-1" x="750" y="250.04" width="50" height="50"/><rect class="cls-1" x="500" y="200.04" width="50" height="50"/><rect class="cls-2" x="350" y="250.04" width="50" height="50"/><rect class="cls-2" x="450" y="200.04" width="50" height="50"/><rect class="cls-3" x="400" y="0.04" width="50" height="50"/><rect class="cls-3" x="800" y="250.04" width="50" height="50"/><rect class="cls-3" x="600" y="0.04" width="150" height="150"/><rect class="cls-1" x="300" y="100.04" width="150" height="150"/><rect class="cls-2" x="450" y="50.04" width="150" height="150"/><rect class="cls-2" x="300" y="0.04" width="100" height="100"/><rect class="cls-1" x="700" y="150.04" width="100" height="100"/><rect class="cls-3" x="800" y="150.04" width="100" height="100"/><rect class="cls-2" x="550" y="0.04" width="50" height="50"/><rect class="cls-1" x="400" y="50.04" width="50" height="50"/><rect class="cls-3" x="550" y="350.04" width="50" height="50"/><rect class="cls-1" x="150" width="150" height="150"/><rect class="cls-3" x="0.13" y="249.87" width="150" height="150"/><rect class="cls-2" x="150" y="150.04" width="150" height="150"/><rect class="cls-2" y="150.04" width="100" height="100"/><rect class="cls-1" x="150" y="300.04" width="100" height="100"/><rect class="cls-3" x="50" y="0.04" width="100" height="100"/><rect class="cls-3" x="0.13" width="50" height="50"/><rect class="cls-3" x="100" y="150.04" width="50" height="50"/><rect class="cls-3" x="250" y="300.04" width="50" height="50"/><rect class="cls-2" y="50.04" width="50" height="50"/><rect class="cls-2" x="50" y="100.04" width="50" height="50"/><rect class="cls-2" x="250" y="350.04" width="50" height="50"/><rect class="cls-1" x="100" y="200.04" width="50" height="50"/><rect class="cls-1" x="100" y="100.04" width="50" height="50"/><rect class="cls-1" y="100.04" width="50" height="50"/></g></g></svg>