<svg xmlns="http://www.w3.org/2000/svg" viewBox="0 0 2240 617.33"><defs><style>.cls-1{fill:none;stroke:#000;stroke-linecap:round;stroke-miterlimit:10;stroke-width:50px;}</style></defs><title>Asset 2</title><g id="Layer_2" data-name="Layer 2"><g id="Layer_1-2" data-name="Layer 1"><polyline class="cls-1" points="208.33 298.33 146.33 298.33 63.67 298.33 45 298.33 39.67 298.33 36.33 293 36.33 289.67 36.33 284.33 40.33 277 51.67 262.33 77.67 243.67 122.33 220.33 178.33 192.33 235.67 161.67 293 135 352.33 109 404.33 88.33 454.33 70.33 517.67 50.33 567.67 38.33 621.67 29.67 663 25 687.67 25 700.33 30.33 707.67 39.67 710.33 53.67 710.33 66.33 702.33 83 680.33 114.33 636.33 155 563.67 216.33 420.33 318.33 319 392.33 201 483.67 111.67 547 54.33 587.67 44.33 592.33 36.33 592.33 28.33 587 25 581 25 568.33 39 547.67 86.33 495.67 143.67 437 195 391 257 349 329 308.67 379.67 284.33 441.67 259.67 505 240.33 538.92 233.95"/><polyline class="cls-1" points="1081 25 1022.33 39 964.33 57.67 908.33 77 855 99 799.67 123.67 749.67 152.33 703.67 179 671 207 656.33 224.33 656.33 229 656.33 235.67 663.67 239.67 675 239.67 695.67 239.67 721 235.67 806.33 220.33 872.33 209.67 926.33 201 971 199 1025.67 197.67 1075 201.67 1121.57 211 1159 221 1193.67 239.67 1227.67 256.33 1269 279 1316.33 295 1362.33 299 1421 303 1461.67 299.67 1519 296.33 1599.67 293 1723 288.33 1817.67 287 1897 287 1985.67 289.67 2101 291 2215 297.67"/></g></g></svg>