<?xml version="1.0" encoding="utf-8"?>
<!-- Generator: Adobe Illustrator 21.1.0, SVG Export Plug-In . SVG Version: 6.00 Build 0)  -->
<svg version="1.1" id="Layer_1" xmlns="http://www.w3.org/2000/svg" xmlns:xlink="http://www.w3.org/1999/xlink" x="0px" y="0px"
	 viewBox="0 0 3092 1240" style="enable-background:new 0 0 3092 1240;" xml:space="preserve">
<style type="text/css">
	.st0{fill:#FFFFFF;}
</style>
<g>
	<g>
		<g>
			<polyline class="st0" points="564.7,646.6 395.7,646.6 419.7,602.4 494.7,557.4 602.7,503.4 719.7,452.4 824.7,410.4 
				923.4,388.5 1022.7,374.4 1070.7,389.4 1070.7,416.4 1040.7,464.4 947.7,545.4 916.8,568.2 833.7,629.4 683.7,737.5 539.7,845.5 
				434.7,923.5 395.7,941.5 383.7,926.5 449.7,842.5 536.7,752.5 626.7,689.5 727.2,635.4 860.7,584.4 916.8,568.2 			"/>
			<path d="M395.7,966.5c-7.4,0-14.7-3.3-19.5-9.4c0,0-12-15-12-15c-21.9-27.4,47-93.5,64.5-113.7c32.7-37.8,68.9-72.5,107.8-103.9
				c95.3-76.6,202.4-120.3,315.3-163.4c0.6-0.2,1.3-0.5,2-0.7l51.8-15l26.5-19.5l89.4-77.9l22.2-30.9c0.6-1,1-2.1,1.2-3.3l1.5-8.7
				l-25.7-5.1l-92.8,13.1l-95.8,21.3l-102.8,41.1l-116.1,50.6l-106.6,53.3l-68.3,41l-0.7,1.3h126.4c14,0,25.8,11.5,25.6,25.5
				c-0.3,13.6-11.4,24.5-25,24.5H396.1c-7.1,0-14-2.8-18.9-8c-7.4-8.1-6.5-19.1-3.6-28.9l23.1-41.2c2.1-3.9,13.1-10.6,14.7-13.8
				l70.3-43.7c0.5-0.3,1.1-0.6,1.7-0.9l108-54c0.4-0.2,0.8-0.4,1.2-0.6l117-51c0.2-0.1,0.5-0.2,0.7-0.3L817.5,389
				c2.1,1.8,0.8-0.4,2.2-0.7l98.3-24.3c0.6-0.1,1.3-0.3,1.9-0.4l99.3-14c3.7-0.5,7.4-0.2,11,0.9l48,15c10.4,3.3,17.5,12.9,17.5,23.9
				v27c0,4.7-1.3,9.3-3.8,13.2l-30,48c-1.3,2.1-2.9,4-4.8,5.6l-93,81c-0.5,0.4-1,0.9-1.6,1.3L932.1,588c-0.3,0.2-0.6,0.5-0.9,0.7
				l-82.6,60.9c-0.1,0.1-0.1,0.1-0.2,0.2L698.5,757.6L554.7,865.5c0,0-0.1,0-0.1,0.1l-105,78c-1.4,1-2.9,1.9-4.4,2.6l-39,18
				C402.8,965.7,399.2,966.5,395.7,966.5z M468.5,858.9L453,878.7l71.8-53.3l144-108c0.1-0.1,0.3-0.2,0.4-0.3l96.9-69.8l-28.4,10.8
				l-97.8,52.5L553,771.6L468.5,858.9z"/>
		</g>
		<g>
			<path d="M1041.1,464.8L1041.1,464.8L948,545.8l-114,84l-150,108c0,0-144,108-144,108c-45.6,33.9-90.8,76-144.5,96.1
				c-4.1-5.2-8.3-10.3-12.4-15.5c22.1-28.1,44.1-56.2,66.2-84.3l87-90l90.1-63.1L727,635l133.6-51l56.1-16.2
				c0,0,30.8-22.7,30.8-22.7 M685.8,466.4c-44.8,19.6-88.9,40.7-132.2,63.2c-42.2,21.9-88.2,39.6-125.3,69.9
				c-14.7,12-28.5,27.5-30.6,46.5c55.1,0.2,110.3,0.3,165.4,0.5c-55.2,0.2-111.2,3.1-166.3,0.3c-3.1-35.3,50.7-63.8,76.9-77.6
				c97.7-51.6,196.8-101.4,300.7-139.4 M384.3,926.5l11.5,14.4l38.6-17.8l105-78l144-108l150-108l80.8-59.6l-53.4,15.5l-133.5,51
				l-100.5,54l-90,63L450,842.8L384.3,926.5z"/>
			<path d="M395.7,966.5c-2,0.1-2,0.1-6,0.4c-8,0.7-15.3-3.5-20.4-9.7c-6.3-7.5-11.7-10.1-11-30.9c0.4-12.1,11.6-22.9,19-32.3
				c7.4-9.4,14.8-18.9,22.2-28.3c10.1-12.9,20.2-25.7,30.3-38.6c0.5-0.7,1.1-1.3,1.7-1.9c22-22.8,44.1-45.7,66.1-68.5
				c7.4-7.7,14.8-15.4,22.9-22.4c16.8-14.5,36.1-25.6,54-38.7c12.5-9.1,25.2-17.8,37.9-26.7c0.8-0.6,1.6-1.1,2.5-1.5
				c49.4-26.5,97.6-53.5,150.1-73.5c27-10.3,54.1-20.5,81.2-30.4c18.9-6.9,40.1-9.9,58.1-18.8c3.1-1.5,6.1-3.3,9-5.2
				c15.3-9.9,32.2-22.5,45.1-35.4c0,0,55.9-48.7,55.9-48.7c11-11.8,20.2-25,27.4-39.4c0.7-1.5,1.1-3.8,0.3-6.4
				c-0.5-1.9-2.8-4.6-6-5.7c-3.1-1.1-17.5-3.3-34.4-2.8c-15.4,0.5-30.7,4.6-45.9,7.1c-16.1,2.8-31.8,5.8-47.5,9.2
				c-65.5,14.7-134.5,38.2-212.2,72.1c-43.4,18.9-87.3,40-130.7,62.5c-11.5,6-23.3,11.7-34.7,17.2c-31.5,15.2-61.3,29.5-86.3,50
				c-0.9,0.7-1.8,1.5-2.7,2.2l121.8,0.4c13.8,0,24.9,11.2,24.9,25c0,13.8-11.1,25-24.9,25c-17.5,0.1-35.5,0.4-52.8,0.8
				c-37.6,0.7-76.5,1.5-114.8-0.5c-12.5-0.6-22.5-10.4-23.6-22.8c-4.6-51.9,59.4-85.7,90.2-101.9c95-50.1,197.6-101.9,303.8-140.8
				c45.4-16.6,85.9-27.9,125.6-36.7c19.2-4.4,38.1-8.1,56.9-11.1c17.5-3.1,35.2-5.9,53.6-8.8c0.7-0.1,1.4-0.2,2.1-0.2l25.5-1.8
				c1.5-0.1,2.9-0.1,4.4,0.1c11.8-0.5,21.6,0.3,29.7,2.9c25.6,8.4,33,29.9,32.8,54.8c-0.1,6.3-0.1,12.7-2,18.8
				c-2.3,7.3-7,13.5-11.2,19.8c-11,16.7-19.2,33.7-34.4,47c-17.4,18.3-37.4,34.2-56.1,49.1c-0.9,0.7-1.8,1.4-2.7,2.1l-25.7,22.4
				c-0.5,0.4-1,0.9-1.6,1.3l-114,84c-0.1,0.1-0.1,0.1-0.2,0.2L699,758.6c-5.9,4.4-140.6,105.4-143.7,107.8c-0.1,0-0.1,0.1-0.2,0.1
				c-10.2,7.6-20.2,15.5-30.9,23.8c-35.1,27.6-70.6,54.8-111.9,72.5C407,965.1,401.3,966.3,395.7,966.5z M469,859.7
				c-5.2,5.3-10.2,10.9-12.7,16.5c12.8-7.6,24.8-18.2,36.8-27.2c10.5-7.8,21.1-15.6,31.5-23.4c0,0,144-108,144-108
				c0.1-0.1,0.3-0.2,0.4-0.3c27.2-19.6,54.4-39.1,81.5-58.7c3.5-2.5,8.6-5.2,11.1-8.5c-7,0.6-15.8,6.3-22.2,9.3
				c-7.9,3.7-15.8,7.5-23.5,11.4c-15.2,7.7-30.2,15.9-45,24.3c-35.5,20.1-70.5,41.5-102.3,67.1c-20.9,16.8-40.3,35.4-58.9,54.7
				c-9.3,9.7-18.4,19.5-27.4,29.5C478.4,850.6,473.6,855,469,859.7z"/>
		</g>
	</g>
	<g>
		<g>
			<path d="M1785.9,679.6c-0.7,0-1.4,0-2,0c-47.7-3.7-95.2-4.9-141.5-18.1c-11-3.1-22-6.8-32.2-12c-10.7-5.5-20.4-12.7-30.5-19.2
				c-53.2-34.4-116.5-50.3-179.5-55.9c-83.3-7.4-162.1,8.3-243.1,22.7c-12.1,2.2-24.1,4.3-36.2,6.5c-20.8,3.7-39.8,7.2-62.8,9
				c-10.8,0.9-17.5,0.5-28.3,0.8c-5.4,0.1-15-0.5-20.4-1.2s-10.7-2.5-14.6-6.1c-6.7-6.1-8.2-16-8.3-25c-0.2-10.3,1.1-21.1,9.6-28
				c25.1-20.5,49.4-42.7,76.3-60.8c35-23.5,73.8-40.6,112.3-57.3c48.2-20.9,96.7-41.3,146.6-57.7c25.2-8.3,50.8-15.5,76.8-21.2
				c18.7-4.1,48.3-15.1,56.6,10.7c4.5,14.1-4.2,28.6-18.5,32.1c-133,32.4-263.5,80.8-377.9,156c-2.3,1.5-4.5,3.7-4.7,6.5
				c1.1,1.6,3,2.4,4.9,2.6c1.9,0.2,3.8-0.2,5.7-0.6c24.8-5.2,49.5-10.3,74.3-15.4c0.1,0,0.2,0,0.4-0.1
				c83.8-13.7,165.3-31.2,250.9-24.3c72.1,5.8,143.5,26,205.3,63.6c11.1,6.8,22,14.2,33.9,19.6c14.7,6.7,30.6,10.2,46.4,13
				c68.5,12.1,134.9,7.3,203.7,2.1c0.3,0,0.6,0,0.9-0.1l130.1-5c0.1,0,0.2,0,0.3,0l114-3c0.1,0,0.1,0,0.2,0l100-2c0.3,0,0.6,0,0.9,0
				l114,2l125,2c0.3,0,0.7,0,1,0l105,6c13.8,0.8,24.3,12.6,23.5,26.4c-0.8,13.8-12.6,24.3-26.4,23.5l-104.5-6l-124.5-2l-113.6-2
				l-99.5,2l-113.8,3l-129.5,5l-104.5,8C1787.1,679.6,1786.5,679.6,1785.9,679.6z"/>
		</g>
	</g>
</g>
</svg>
